<?xml version="1.0" encoding="utf-8" standalone="no"?>
<!DOCTYPE svg PUBLIC "-//W3C//DTD SVG 1.1//EN"
  "http://www.w3.org/Graphics/SVG/1.1/DTD/svg11.dtd">
<!-- Created with matplotlib (https://matplotlib.org/) -->
<svg height="223.86775pt" version="1.1" viewBox="0 0 314.43 223.86775" width="314.43pt" xmlns="http://www.w3.org/2000/svg" xmlns:xlink="http://www.w3.org/1999/xlink">
 <defs>
  <style type="text/css">
*{stroke-linecap:butt;stroke-linejoin:round;}
  </style>
 </defs>
 <g id="figure_1">
  <g id="patch_1">
   <path d="M 0 223.86775 
L 314.43 223.86775 
L 314.43 0 
L 0 0 
z
" style="fill:#ffffff;"/>
  </g>
  <g id="axes_1">
   <g id="patch_2">
    <path d="M 39.39 181.56 
L 307.23 181.56 
L 307.23 7.608 
L 39.39 7.608 
z
" style="fill:#ffffff;"/>
   </g>
   <g id="PolyCollection_1">
    <defs>
     <path d="M 39.39 -50.214659 
L 39.39 -50.214659 
L 46.438421 -51.194047 
L 53.486842 -51.427059 
L 60.535263 -51.507679 
L 67.583684 -51.561069 
L 74.632105 -51.597984 
L 81.680526 -51.597984 
L 88.728947 -51.597984 
L 95.777368 -51.804282 
L 102.825789 -51.804282 
L 109.874211 -51.804282 
L 116.922632 -51.804282 
L 123.971053 -73.884081 
L 131.019474 -77.365025 
L 138.067895 -78.105173 
L 145.116316 -78.264527 
L 152.164737 -78.399326 
L 159.213158 -78.512813 
L 166.261579 -78.512813 
L 173.31 -78.512813 
L 180.358421 -78.512813 
L 187.406842 -78.512813 
L 194.455263 -78.512813 
L 201.503684 -78.512813 
L 208.552105 -78.512813 
L 215.600526 -78.730458 
L 222.648947 -78.730458 
L 229.697368 -78.730458 
L 236.745789 -78.730458 
L 243.794211 -78.730458 
L 250.842632 -78.730458 
L 257.891053 -78.730458 
L 264.939474 -78.730458 
L 271.987895 -78.948361 
L 279.036316 -78.948361 
L 286.084737 -78.948361 
L 293.133158 -78.948361 
L 300.181579 -78.948361 
L 300.181579 -82.862799 
L 300.181579 -82.862799 
L 293.133158 -82.862799 
L 286.084737 -82.862799 
L 279.036316 -82.862799 
L 271.987895 -82.862799 
L 264.939474 -82.639105 
L 257.891053 -82.639105 
L 250.842632 -82.639105 
L 243.794211 -82.639105 
L 236.745789 -82.639105 
L 229.697368 -82.639105 
L 222.648947 -82.639105 
L 215.600526 -82.639105 
L 208.552105 -82.415155 
L 201.503684 -82.415155 
L 194.455263 -82.415155 
L 187.406842 -82.415155 
L 180.358421 -82.415155 
L 173.31 -82.415155 
L 166.261579 -82.415155 
L 159.213158 -82.415155 
L 152.164737 -82.087046 
L 145.116316 -81.780248 
L 138.067895 -81.498007 
L 131.019474 -80.47177 
L 123.971053 -76.445583 
L 116.922632 -54.365784 
L 109.874211 -54.365784 
L 102.825789 -54.365784 
L 95.777368 -54.365784 
L 88.728947 -54.130486 
L 81.680526 -54.130486 
L 74.632105 -54.130486 
L 67.583684 -53.725804 
L 60.535263 -53.337599 
L 53.486842 -52.976623 
L 46.438421 -52.326443 
L 39.39 -50.214659 
z
" id="mb2e077c7e3" style="stroke:#2e72bd;stroke-opacity:0.25;stroke-width:0.8;"/>
    </defs>
    <g clip-path="url(#pe5dfa9d889)">
     <use style="fill:#2e72bd;fill-opacity:0.25;stroke:#2e72bd;stroke-opacity:0.25;stroke-width:0.8;" x="0" xlink:href="#mb2e077c7e3" y="223.86775"/>
    </g>
   </g>
   <g id="PolyCollection_2">
    <defs>
     <path d="M 39.39 -50.214659 
L 39.39 -50.214659 
L 46.438421 -51.012439 
L 53.486842 -51.427059 
L 60.535263 -51.507679 
L 67.583684 -73.335198 
L 74.632105 -90.930733 
L 81.680526 -103.24623 
L 88.728947 -110.453855 
L 95.777368 -110.453855 
L 102.825789 -115.87724 
L 109.874211 -115.87724 
L 116.922632 -119.866717 
L 123.971053 -119.866717 
L 131.019474 -122.235767 
L 138.067895 -122.235767 
L 145.116316 -123.996217 
L 152.164737 -124.207991 
L 159.213158 -125.73936 
L 166.261579 -125.73936 
L 173.31 -126.90834 
L 180.358421 -126.90834 
L 187.406842 -127.872785 
L 194.455263 -127.872785 
L 201.503684 -128.510675 
L 208.552105 -128.510675 
L 215.600526 -128.510675 
L 222.648947 -129.129451 
L 229.697368 -129.432353 
L 236.745789 -129.432353 
L 243.794211 -129.432353 
L 250.842632 -129.724274 
L 257.891053 -129.724274 
L 264.939474 -129.724274 
L 271.987895 -129.724274 
L 279.036316 -129.871518 
L 286.084737 -130.012737 
L 293.133158 -130.012737 
L 300.181579 -130.012737 
L 300.181579 -144.405397 
L 300.181579 -144.405397 
L 293.133158 -144.405397 
L 286.084737 -144.405397 
L 279.036316 -144.10502 
L 271.987895 -143.810669 
L 264.939474 -143.810669 
L 257.891053 -143.810669 
L 250.842632 -143.810669 
L 243.794211 -143.219397 
L 236.745789 -143.219397 
L 229.697368 -143.219397 
L 222.648947 -142.639107 
L 215.600526 -141.4915 
L 208.552105 -141.4915 
L 201.503684 -141.4915 
L 194.455263 -140.363005 
L 187.406842 -140.363005 
L 180.358421 -138.677875 
L 173.31 -138.677875 
L 166.261579 -136.755683 
L 159.213158 -136.755683 
L 152.164737 -134.312687 
L 145.116316 -134.082866 
L 138.067895 -131.427356 
L 131.019474 -131.427356 
L 123.971053 -128.055659 
L 116.922632 -128.055659 
L 109.874211 -122.77162 
L 102.825789 -122.77162 
L 95.777368 -115.830317 
L 88.728947 -115.830317 
L 81.680526 -107.140487 
L 74.632105 -93.401822 
L 67.583684 -75.228082 
L 60.535263 -53.337599 
L 53.486842 -52.976623 
L 46.438421 -52.066455 
L 39.39 -50.214659 
z
" id="m3f4534c43e" style="stroke:#66c2a5;stroke-opacity:0.25;stroke-width:0.8;"/>
    </defs>
    <g clip-path="url(#pe5dfa9d889)">
     <use style="fill:#66c2a5;fill-opacity:0.25;stroke:#66c2a5;stroke-opacity:0.25;stroke-width:0.8;" x="0" xlink:href="#m3f4534c43e" y="223.86775"/>
    </g>
   </g>
   <g id="PolyCollection_3">
    <defs>
     <path d="M 39.39 -50.214659 
L 39.39 -50.214659 
L 46.438421 -71.542188 
L 53.486842 -73.702329 
L 60.535263 -94.220389 
L 67.583684 -94.694102 
L 74.632105 -114.884913 
L 81.680526 -115.472066 
L 88.728947 -134.462724 
L 95.777368 -134.877086 
L 102.825789 -134.877086 
L 109.874211 -134.877086 
L 116.922632 -134.877086 
L 123.971053 -152.802017 
L 131.019474 -166.724217 
L 138.067895 -175.570835 
L 145.116316 -181.367815 
L 152.164737 -181.367815 
L 159.213158 -184.232788 
L 166.261579 -184.232788 
L 173.31 -186.246599 
L 180.358421 -186.246599 
L 187.406842 -187.670831 
L 194.455263 -187.670831 
L 201.503684 -189.143168 
L 208.552105 -189.143168 
L 215.600526 -189.143168 
L 222.648947 -190.320469 
L 229.697368 -190.814425 
L 236.745789 -190.814425 
L 243.794211 -190.814425 
L 250.842632 -191.12708 
L 257.891053 -191.12708 
L 264.939474 -191.12708 
L 271.987895 -191.12708 
L 279.036316 -191.277254 
L 286.084737 -191.572926 
L 293.133158 -191.572926 
L 300.181579 -191.572926 
L 300.181579 -205.60889 
L 300.181579 -205.60889 
L 293.133158 -205.60889 
L 286.084737 -205.60889 
L 279.036316 -205.02137 
L 271.987895 -204.729948 
L 264.939474 -204.729948 
L 257.891053 -204.729948 
L 250.842632 -204.729948 
L 243.794211 -204.159412 
L 236.745789 -204.159412 
L 229.697368 -204.159412 
L 222.648947 -203.328579 
L 215.600526 -201.414709 
L 208.552105 -201.414709 
L 201.503684 -201.414709 
L 194.455263 -199.354278 
L 187.406842 -199.354278 
L 180.358421 -197.245743 
L 173.31 -197.245743 
L 166.261579 -194.401997 
L 159.213158 -194.401997 
L 152.164737 -190.64303 
L 145.116316 -190.64303 
L 138.067895 -183.633727 
L 131.019474 -173.491718 
L 123.971053 -158.268583 
L 116.922632 -139.099452 
L 109.874211 -139.099452 
L 102.825789 -139.099452 
L 95.777368 -139.099452 
L 88.728947 -138.630623 
L 81.680526 -118.760834 
L 74.632105 -118.023199 
L 67.583684 -97.145584 
L 60.535263 -96.294509 
L 53.486842 -75.302547 
L 46.438421 -72.163537 
L 39.39 -50.214659 
z
" id="mad71f22069" style="stroke:#fc8d62;stroke-opacity:0.25;stroke-width:0.8;"/>
    </defs>
    <g clip-path="url(#pe5dfa9d889)">
     <use style="fill:#fc8d62;fill-opacity:0.25;stroke:#fc8d62;stroke-opacity:0.25;stroke-width:0.8;" x="0" xlink:href="#mad71f22069" y="223.86775"/>
    </g>
   </g>
   <g id="PolyCollection_4">
    <defs>
     <path d="M 39.39 -50.214659 
L 39.39 -50.214659 
L 46.438421 -71.253513 
L 53.486842 -72.862145 
L 60.535263 -93.287123 
L 67.583684 -93.601211 
L 74.632105 -113.270086 
L 81.680526 -113.797802 
L 88.728947 -132.039055 
L 95.777368 -132.039055 
L 102.825789 -147.694309 
L 109.874211 -147.694309 
L 116.922632 -159.735713 
L 123.971053 -159.735713 
L 131.019474 -169.335433 
L 138.067895 -169.335433 
L 145.116316 -176.334591 
L 152.164737 -176.334591 
L 159.213158 -176.334591 
L 166.261579 -176.334591 
L 173.31 -176.334591 
L 180.358421 -182.239315 
L 187.406842 -187.389992 
L 194.455263 -190.22614 
L 201.503684 -191.526724 
L 208.552105 -191.526724 
L 215.600526 -191.755875 
L 222.648947 -191.93783 
L 229.697368 -192.356038 
L 236.745789 -192.356038 
L 243.794211 -192.356038 
L 250.842632 -192.531849 
L 257.891053 -192.701372 
L 264.939474 -192.701372 
L 271.987895 -192.924124 
L 279.036316 -193.08754 
L 286.084737 -193.244935 
L 293.133158 -193.244935 
L 300.181579 -193.244935 
L 300.181579 -208.352841 
L 300.181579 -208.352841 
L 293.133158 -208.352841 
L 286.084737 -208.352841 
L 279.036316 -208.06864 
L 271.987895 -207.79046 
L 264.939474 -207.571616 
L 257.891053 -207.571616 
L 250.842632 -207.299544 
L 243.794211 -207.033758 
L 236.745789 -207.033758 
L 229.697368 -207.033758 
L 222.648947 -206.568774 
L 215.600526 -206.309133 
L 208.552105 -206.096688 
L 201.503684 -206.096688 
L 194.455263 -204.306101 
L 187.406842 -200.518309 
L 180.358421 -194.187491 
L 173.31 -186.844335 
L 166.261579 -186.844335 
L 159.213158 -186.844335 
L 152.164737 -186.844335 
L 145.116316 -186.844335 
L 138.067895 -178.387634 
L 131.019474 -178.387634 
L 123.971053 -167.232342 
L 116.922632 -167.232342 
L 109.874211 -153.66118 
L 102.825789 -153.66118 
L 95.777368 -136.638331 
L 88.728947 -136.638331 
L 81.680526 -117.343926 
L 74.632105 -116.546854 
L 67.583684 -96.030495 
L 60.535263 -95.461391 
L 53.486842 -74.376347 
L 46.438421 -72.010615 
L 39.39 -50.214659 
z
" id="m6cbb2ce710" style="stroke:#8da0cb;stroke-opacity:0.25;stroke-width:0.8;"/>
    </defs>
    <g clip-path="url(#pe5dfa9d889)">
     <use style="fill:#8da0cb;fill-opacity:0.25;stroke:#8da0cb;stroke-opacity:0.25;stroke-width:0.8;" x="0" xlink:href="#m6cbb2ce710" y="223.86775"/>
    </g>
   </g>
   <g id="matplotlib.axis_1">
    <g id="xtick_1">
     <g id="line2d_1">
      <defs>
       <path d="M 0 0 
L 0 4.8 
" id="mb3c35c4643" style="stroke:#000000;"/>
      </defs>
      <g>
       <use style="stroke:#000000;" x="39.39" xlink:href="#mb3c35c4643" y="186.56"/>
      </g>
     </g>
     <g id="text_1">
      <!-- 0 -->
      <defs>
       <path d="M 31.78125 66.40625 
Q 24.171875 66.40625 20.328125 58.90625 
Q 16.5 51.421875 16.5 36.375 
Q 16.5 21.390625 20.328125 13.890625 
Q 24.171875 6.390625 31.78125 6.390625 
Q 39.453125 6.390625 43.28125 13.890625 
Q 47.125 21.390625 47.125 36.375 
Q 47.125 51.421875 43.28125 58.90625 
Q 39.453125 66.40625 31.78125 66.40625 
z
M 31.78125 74.21875 
Q 44.046875 74.21875 50.515625 64.515625 
Q 56.984375 54.828125 56.984375 36.375 
Q 56.984375 17.96875 50.515625 8.265625 
Q 44.046875 -1.421875 31.78125 -1.421875 
Q 19.53125 -1.421875 13.0625 8.265625 
Q 6.59375 17.96875 6.59375 36.375 
Q 6.59375 54.828125 13.0625 64.515625 
Q 19.53125 74.21875 31.78125 74.21875 
z
" id="DejaVuSans-48"/>
      </defs>
      <g transform="translate(36.5905 201.546625)scale(0.088 -0.088)">
       <use xlink:href="#DejaVuSans-48"/>
      </g>
     </g>
    </g>
    <g id="xtick_2">
     <g id="line2d_2">
      <g>
       <use style="stroke:#000000;" x="74.632105" xlink:href="#mb3c35c4643" y="186.56"/>
      </g>
     </g>
     <g id="text_2">
      <!-- 5 -->
      <defs>
       <path d="M 10.796875 72.90625 
L 49.515625 72.90625 
L 49.515625 64.59375 
L 19.828125 64.59375 
L 19.828125 46.734375 
Q 21.96875 47.46875 24.109375 47.828125 
Q 26.265625 48.1875 28.421875 48.1875 
Q 40.625 48.1875 47.75 41.5 
Q 54.890625 34.8125 54.890625 23.390625 
Q 54.890625 11.625 47.5625 5.09375 
Q 40.234375 -1.421875 26.90625 -1.421875 
Q 22.3125 -1.421875 17.546875 -0.640625 
Q 12.796875 0.140625 7.71875 1.703125 
L 7.71875 11.625 
Q 12.109375 9.234375 16.796875 8.0625 
Q 21.484375 6.890625 26.703125 6.890625 
Q 35.15625 6.890625 40.078125 11.328125 
Q 45.015625 15.765625 45.015625 23.390625 
Q 45.015625 31 40.078125 35.4375 
Q 35.15625 39.890625 26.703125 39.890625 
Q 22.75 39.890625 18.8125 39.015625 
Q 14.890625 38.140625 10.796875 36.28125 
z
" id="DejaVuSans-53"/>
      </defs>
      <g transform="translate(71.832605 201.546625)scale(0.088 -0.088)">
       <use xlink:href="#DejaVuSans-53"/>
      </g>
     </g>
    </g>
    <g id="xtick_3">
     <g id="line2d_3">
      <g>
       <use style="stroke:#000000;" x="109.874211" xlink:href="#mb3c35c4643" y="186.56"/>
      </g>
     </g>
     <g id="text_3">
      <!-- 10 -->
      <defs>
       <path d="M 12.40625 8.296875 
L 28.515625 8.296875 
L 28.515625 63.921875 
L 10.984375 60.40625 
L 10.984375 69.390625 
L 28.421875 72.90625 
L 38.28125 72.90625 
L 38.28125 8.296875 
L 54.390625 8.296875 
L 54.390625 0 
L 12.40625 0 
z
" id="DejaVuSans-49"/>
      </defs>
      <g transform="translate(104.275211 201.546625)scale(0.088 -0.088)">
       <use xlink:href="#DejaVuSans-49"/>
       <use x="63.623047" xlink:href="#DejaVuSans-48"/>
      </g>
     </g>
    </g>
    <g id="xtick_4">
     <g id="line2d_4">
      <g>
       <use style="stroke:#000000;" x="145.116316" xlink:href="#mb3c35c4643" y="186.56"/>
      </g>
     </g>
     <g id="text_4">
      <!-- 15 -->
      <g transform="translate(139.517316 201.546625)scale(0.088 -0.088)">
       <use xlink:href="#DejaVuSans-49"/>
       <use x="63.623047" xlink:href="#DejaVuSans-53"/>
      </g>
     </g>
    </g>
    <g id="xtick_5">
     <g id="line2d_5">
      <g>
       <use style="stroke:#000000;" x="180.358421" xlink:href="#mb3c35c4643" y="186.56"/>
      </g>
     </g>
     <g id="text_5">
      <!-- 20 -->
      <defs>
       <path d="M 19.1875 8.296875 
L 53.609375 8.296875 
L 53.609375 0 
L 7.328125 0 
L 7.328125 8.296875 
Q 12.9375 14.109375 22.625 23.890625 
Q 32.328125 33.6875 34.8125 36.53125 
Q 39.546875 41.84375 41.421875 45.53125 
Q 43.3125 49.21875 43.3125 52.78125 
Q 43.3125 58.59375 39.234375 62.25 
Q 35.15625 65.921875 28.609375 65.921875 
Q 23.96875 65.921875 18.8125 64.3125 
Q 13.671875 62.703125 7.8125 59.421875 
L 7.8125 69.390625 
Q 13.765625 71.78125 18.9375 73 
Q 24.125 74.21875 28.421875 74.21875 
Q 39.75 74.21875 46.484375 68.546875 
Q 53.21875 62.890625 53.21875 53.421875 
Q 53.21875 48.921875 51.53125 44.890625 
Q 49.859375 40.875 45.40625 35.40625 
Q 44.1875 33.984375 37.640625 27.21875 
Q 31.109375 20.453125 19.1875 8.296875 
z
" id="DejaVuSans-50"/>
      </defs>
      <g transform="translate(174.759421 201.546625)scale(0.088 -0.088)">
       <use xlink:href="#DejaVuSans-50"/>
       <use x="63.623047" xlink:href="#DejaVuSans-48"/>
      </g>
     </g>
    </g>
    <g id="xtick_6">
     <g id="line2d_6">
      <g>
       <use style="stroke:#000000;" x="215.600526" xlink:href="#mb3c35c4643" y="186.56"/>
      </g>
     </g>
     <g id="text_6">
      <!-- 25 -->
      <g transform="translate(210.001526 201.546625)scale(0.088 -0.088)">
       <use xlink:href="#DejaVuSans-50"/>
       <use x="63.623047" xlink:href="#DejaVuSans-53"/>
      </g>
     </g>
    </g>
    <g id="xtick_7">
     <g id="line2d_7">
      <g>
       <use style="stroke:#000000;" x="250.842632" xlink:href="#mb3c35c4643" y="186.56"/>
      </g>
     </g>
     <g id="text_7">
      <!-- 30 -->
      <defs>
       <path d="M 40.578125 39.3125 
Q 47.65625 37.796875 51.625 33 
Q 55.609375 28.21875 55.609375 21.1875 
Q 55.609375 10.40625 48.1875 4.484375 
Q 40.765625 -1.421875 27.09375 -1.421875 
Q 22.515625 -1.421875 17.65625 -0.515625 
Q 12.796875 0.390625 7.625 2.203125 
L 7.625 11.71875 
Q 11.71875 9.328125 16.59375 8.109375 
Q 21.484375 6.890625 26.8125 6.890625 
Q 36.078125 6.890625 40.9375 10.546875 
Q 45.796875 14.203125 45.796875 21.1875 
Q 45.796875 27.640625 41.28125 31.265625 
Q 36.765625 34.90625 28.71875 34.90625 
L 20.21875 34.90625 
L 20.21875 43.015625 
L 29.109375 43.015625 
Q 36.375 43.015625 40.234375 45.921875 
Q 44.09375 48.828125 44.09375 54.296875 
Q 44.09375 59.90625 40.109375 62.90625 
Q 36.140625 65.921875 28.71875 65.921875 
Q 24.65625 65.921875 20.015625 65.03125 
Q 15.375 64.15625 9.8125 62.3125 
L 9.8125 71.09375 
Q 15.4375 72.65625 20.34375 73.4375 
Q 25.25 74.21875 29.59375 74.21875 
Q 40.828125 74.21875 47.359375 69.109375 
Q 53.90625 64.015625 53.90625 55.328125 
Q 53.90625 49.265625 50.4375 45.09375 
Q 46.96875 40.921875 40.578125 39.3125 
z
" id="DejaVuSans-51"/>
      </defs>
      <g transform="translate(245.243632 201.546625)scale(0.088 -0.088)">
       <use xlink:href="#DejaVuSans-51"/>
       <use x="63.623047" xlink:href="#DejaVuSans-48"/>
      </g>
     </g>
    </g>
    <g id="xtick_8">
     <g id="line2d_8">
      <g>
       <use style="stroke:#000000;" x="286.084737" xlink:href="#mb3c35c4643" y="186.56"/>
      </g>
     </g>
     <g id="text_8">
      <!-- 35 -->
      <g transform="translate(280.485737 201.546625)scale(0.088 -0.088)">
       <use xlink:href="#DejaVuSans-51"/>
       <use x="63.623047" xlink:href="#DejaVuSans-53"/>
      </g>
     </g>
    </g>
    <g id="text_9">
     <!-- Time (event) -->
     <defs>
      <path d="M -0.296875 72.90625 
L 61.375 72.90625 
L 61.375 64.59375 
L 35.5 64.59375 
L 35.5 0 
L 25.59375 0 
L 25.59375 64.59375 
L -0.296875 64.59375 
z
" id="DejaVuSans-84"/>
      <path d="M 9.421875 54.6875 
L 18.40625 54.6875 
L 18.40625 0 
L 9.421875 0 
z
M 9.421875 75.984375 
L 18.40625 75.984375 
L 18.40625 64.59375 
L 9.421875 64.59375 
z
" id="DejaVuSans-105"/>
      <path d="M 52 44.1875 
Q 55.375 50.25 60.0625 53.125 
Q 64.75 56 71.09375 56 
Q 79.640625 56 84.28125 50.015625 
Q 88.921875 44.046875 88.921875 33.015625 
L 88.921875 0 
L 79.890625 0 
L 79.890625 32.71875 
Q 79.890625 40.578125 77.09375 44.375 
Q 74.3125 48.1875 68.609375 48.1875 
Q 61.625 48.1875 57.5625 43.546875 
Q 53.515625 38.921875 53.515625 30.90625 
L 53.515625 0 
L 44.484375 0 
L 44.484375 32.71875 
Q 44.484375 40.625 41.703125 44.40625 
Q 38.921875 48.1875 33.109375 48.1875 
Q 26.21875 48.1875 22.15625 43.53125 
Q 18.109375 38.875 18.109375 30.90625 
L 18.109375 0 
L 9.078125 0 
L 9.078125 54.6875 
L 18.109375 54.6875 
L 18.109375 46.1875 
Q 21.1875 51.21875 25.484375 53.609375 
Q 29.78125 56 35.6875 56 
Q 41.65625 56 45.828125 52.96875 
Q 50 49.953125 52 44.1875 
z
" id="DejaVuSans-109"/>
      <path d="M 56.203125 29.59375 
L 56.203125 25.203125 
L 14.890625 25.203125 
Q 15.484375 15.921875 20.484375 11.0625 
Q 25.484375 6.203125 34.421875 6.203125 
Q 39.59375 6.203125 44.453125 7.46875 
Q 49.3125 8.734375 54.109375 11.28125 
L 54.109375 2.78125 
Q 49.265625 0.734375 44.1875 -0.34375 
Q 39.109375 -1.421875 33.890625 -1.421875 
Q 20.796875 -1.421875 13.15625 6.1875 
Q 5.515625 13.8125 5.515625 26.8125 
Q 5.515625 40.234375 12.765625 48.109375 
Q 20.015625 56 32.328125 56 
Q 43.359375 56 49.78125 48.890625 
Q 56.203125 41.796875 56.203125 29.59375 
z
M 47.21875 32.234375 
Q 47.125 39.59375 43.09375 43.984375 
Q 39.0625 48.390625 32.421875 48.390625 
Q 24.90625 48.390625 20.390625 44.140625 
Q 15.875 39.890625 15.1875 32.171875 
z
" id="DejaVuSans-101"/>
      <path id="DejaVuSans-32"/>
      <path d="M 31 75.875 
Q 24.46875 64.65625 21.28125 53.65625 
Q 18.109375 42.671875 18.109375 31.390625 
Q 18.109375 20.125 21.3125 9.0625 
Q 24.515625 -2 31 -13.1875 
L 23.1875 -13.1875 
Q 15.875 -1.703125 12.234375 9.375 
Q 8.59375 20.453125 8.59375 31.390625 
Q 8.59375 42.28125 12.203125 53.3125 
Q 15.828125 64.359375 23.1875 75.875 
z
" id="DejaVuSans-40"/>
      <path d="M 2.984375 54.6875 
L 12.5 54.6875 
L 29.59375 8.796875 
L 46.6875 54.6875 
L 56.203125 54.6875 
L 35.6875 0 
L 23.484375 0 
z
" id="DejaVuSans-118"/>
      <path d="M 54.890625 33.015625 
L 54.890625 0 
L 45.90625 0 
L 45.90625 32.71875 
Q 45.90625 40.484375 42.875 44.328125 
Q 39.84375 48.1875 33.796875 48.1875 
Q 26.515625 48.1875 22.3125 43.546875 
Q 18.109375 38.921875 18.109375 30.90625 
L 18.109375 0 
L 9.078125 0 
L 9.078125 54.6875 
L 18.109375 54.6875 
L 18.109375 46.1875 
Q 21.34375 51.125 25.703125 53.5625 
Q 30.078125 56 35.796875 56 
Q 45.21875 56 50.046875 50.171875 
Q 54.890625 44.34375 54.890625 33.015625 
z
" id="DejaVuSans-110"/>
      <path d="M 18.3125 70.21875 
L 18.3125 54.6875 
L 36.8125 54.6875 
L 36.8125 47.703125 
L 18.3125 47.703125 
L 18.3125 18.015625 
Q 18.3125 11.328125 20.140625 9.421875 
Q 21.96875 7.515625 27.59375 7.515625 
L 36.8125 7.515625 
L 36.8125 0 
L 27.59375 0 
Q 17.1875 0 13.234375 3.875 
Q 9.28125 7.765625 9.28125 18.015625 
L 9.28125 47.703125 
L 2.6875 47.703125 
L 2.6875 54.6875 
L 9.28125 54.6875 
L 9.28125 70.21875 
z
" id="DejaVuSans-116"/>
      <path d="M 8.015625 75.875 
L 15.828125 75.875 
Q 23.140625 64.359375 26.78125 53.3125 
Q 30.421875 42.28125 30.421875 31.390625 
Q 30.421875 20.453125 26.78125 9.375 
Q 23.140625 -1.703125 15.828125 -13.1875 
L 8.015625 -13.1875 
Q 14.5 -2 17.703125 9.0625 
Q 20.90625 20.125 20.90625 31.390625 
Q 20.90625 42.671875 17.703125 53.65625 
Q 14.5 64.65625 8.015625 75.875 
z
" id="DejaVuSans-41"/>
     </defs>
     <g transform="translate(142.47525 214.67125)scale(0.096 -0.096)">
      <use xlink:href="#DejaVuSans-84"/>
      <use x="61.037109" xlink:href="#DejaVuSans-105"/>
      <use x="88.820312" xlink:href="#DejaVuSans-109"/>
      <use x="186.232422" xlink:href="#DejaVuSans-101"/>
      <use x="247.755859" xlink:href="#DejaVuSans-32"/>
      <use x="279.542969" xlink:href="#DejaVuSans-40"/>
      <use x="318.556641" xlink:href="#DejaVuSans-101"/>
      <use x="380.080078" xlink:href="#DejaVuSans-118"/>
      <use x="439.259766" xlink:href="#DejaVuSans-101"/>
      <use x="500.783203" xlink:href="#DejaVuSans-110"/>
      <use x="564.162109" xlink:href="#DejaVuSans-116"/>
      <use x="603.371094" xlink:href="#DejaVuSans-41"/>
     </g>
    </g>
   </g>
   <g id="matplotlib.axis_2">
    <g id="ytick_1">
     <g id="line2d_9">
      <defs>
       <path d="M 0 0 
L -4.8 0 
" id="md60c1cdc81" style="stroke:#000000;"/>
      </defs>
      <g>
       <use style="stroke:#000000;" x="34.39" xlink:href="#md60c1cdc81" y="173.653091"/>
      </g>
     </g>
     <g id="text_10">
      <!-- 1 -->
      <g transform="translate(20.491 176.996403)scale(0.088 -0.088)">
       <use xlink:href="#DejaVuSans-49"/>
      </g>
     </g>
    </g>
    <g id="ytick_2">
     <g id="line2d_10">
      <g>
       <use style="stroke:#000000;" x="34.39" xlink:href="#md60c1cdc81" y="151.573292"/>
      </g>
     </g>
     <g id="text_11">
      <!-- 2 -->
      <g transform="translate(20.491 154.916604)scale(0.088 -0.088)">
       <use xlink:href="#DejaVuSans-50"/>
      </g>
     </g>
    </g>
    <g id="ytick_3">
     <g id="line2d_11">
      <g>
       <use style="stroke:#000000;" x="34.39" xlink:href="#md60c1cdc81" y="129.493493"/>
      </g>
     </g>
     <g id="text_12">
      <!-- 3 -->
      <g transform="translate(20.491 132.836805)scale(0.088 -0.088)">
       <use xlink:href="#DejaVuSans-51"/>
      </g>
     </g>
    </g>
    <g id="ytick_4">
     <g id="line2d_12">
      <g>
       <use style="stroke:#000000;" x="34.39" xlink:href="#md60c1cdc81" y="107.413694"/>
      </g>
     </g>
     <g id="text_13">
      <!-- 4 -->
      <defs>
       <path d="M 37.796875 64.3125 
L 12.890625 25.390625 
L 37.796875 25.390625 
z
M 35.203125 72.90625 
L 47.609375 72.90625 
L 47.609375 25.390625 
L 58.015625 25.390625 
L 58.015625 17.1875 
L 47.609375 17.1875 
L 47.609375 0 
L 37.796875 0 
L 37.796875 17.1875 
L 4.890625 17.1875 
L 4.890625 26.703125 
z
" id="DejaVuSans-52"/>
      </defs>
      <g transform="translate(20.491 110.757006)scale(0.088 -0.088)">
       <use xlink:href="#DejaVuSans-52"/>
      </g>
     </g>
    </g>
    <g id="ytick_5">
     <g id="line2d_13">
      <g>
       <use style="stroke:#000000;" x="34.39" xlink:href="#md60c1cdc81" y="85.333895"/>
      </g>
     </g>
     <g id="text_14">
      <!-- 5 -->
      <g transform="translate(20.491 88.677207)scale(0.088 -0.088)">
       <use xlink:href="#DejaVuSans-53"/>
      </g>
     </g>
    </g>
    <g id="ytick_6">
     <g id="line2d_14">
      <g>
       <use style="stroke:#000000;" x="34.39" xlink:href="#md60c1cdc81" y="63.254096"/>
      </g>
     </g>
     <g id="text_15">
      <!-- 6 -->
      <defs>
       <path d="M 33.015625 40.375 
Q 26.375 40.375 22.484375 35.828125 
Q 18.609375 31.296875 18.609375 23.390625 
Q 18.609375 15.53125 22.484375 10.953125 
Q 26.375 6.390625 33.015625 6.390625 
Q 39.65625 6.390625 43.53125 10.953125 
Q 47.40625 15.53125 47.40625 23.390625 
Q 47.40625 31.296875 43.53125 35.828125 
Q 39.65625 40.375 33.015625 40.375 
z
M 52.59375 71.296875 
L 52.59375 62.3125 
Q 48.875 64.0625 45.09375 64.984375 
Q 41.3125 65.921875 37.59375 65.921875 
Q 27.828125 65.921875 22.671875 59.328125 
Q 17.53125 52.734375 16.796875 39.40625 
Q 19.671875 43.65625 24.015625 45.921875 
Q 28.375 48.1875 33.59375 48.1875 
Q 44.578125 48.1875 50.953125 41.515625 
Q 57.328125 34.859375 57.328125 23.390625 
Q 57.328125 12.15625 50.6875 5.359375 
Q 44.046875 -1.421875 33.015625 -1.421875 
Q 20.359375 -1.421875 13.671875 8.265625 
Q 6.984375 17.96875 6.984375 36.375 
Q 6.984375 53.65625 15.1875 63.9375 
Q 23.390625 74.21875 37.203125 74.21875 
Q 40.921875 74.21875 44.703125 73.484375 
Q 48.484375 72.75 52.59375 71.296875 
z
" id="DejaVuSans-54"/>
      </defs>
      <g transform="translate(20.491 66.597409)scale(0.088 -0.088)">
       <use xlink:href="#DejaVuSans-54"/>
      </g>
     </g>
    </g>
    <g id="ytick_7">
     <g id="line2d_15">
      <g>
       <use style="stroke:#000000;" x="34.39" xlink:href="#md60c1cdc81" y="41.174297"/>
      </g>
     </g>
     <g id="text_16">
      <!-- 7 -->
      <defs>
       <path d="M 8.203125 72.90625 
L 55.078125 72.90625 
L 55.078125 68.703125 
L 28.609375 0 
L 18.3125 0 
L 43.21875 64.59375 
L 8.203125 64.59375 
z
" id="DejaVuSans-55"/>
      </defs>
      <g transform="translate(20.491 44.51761)scale(0.088 -0.088)">
       <use xlink:href="#DejaVuSans-55"/>
      </g>
     </g>
    </g>
    <g id="ytick_8">
     <g id="line2d_16">
      <g>
       <use style="stroke:#000000;" x="34.39" xlink:href="#md60c1cdc81" y="19.094498"/>
      </g>
     </g>
     <g id="text_17">
      <!-- 8 -->
      <defs>
       <path d="M 31.78125 34.625 
Q 24.75 34.625 20.71875 30.859375 
Q 16.703125 27.09375 16.703125 20.515625 
Q 16.703125 13.921875 20.71875 10.15625 
Q 24.75 6.390625 31.78125 6.390625 
Q 38.8125 6.390625 42.859375 10.171875 
Q 46.921875 13.96875 46.921875 20.515625 
Q 46.921875 27.09375 42.890625 30.859375 
Q 38.875 34.625 31.78125 34.625 
z
M 21.921875 38.8125 
Q 15.578125 40.375 12.03125 44.71875 
Q 8.5 49.078125 8.5 55.328125 
Q 8.5 64.0625 14.71875 69.140625 
Q 20.953125 74.21875 31.78125 74.21875 
Q 42.671875 74.21875 48.875 69.140625 
Q 55.078125 64.0625 55.078125 55.328125 
Q 55.078125 49.078125 51.53125 44.71875 
Q 48 40.375 41.703125 38.8125 
Q 48.828125 37.15625 52.796875 32.3125 
Q 56.78125 27.484375 56.78125 20.515625 
Q 56.78125 9.90625 50.3125 4.234375 
Q 43.84375 -1.421875 31.78125 -1.421875 
Q 19.734375 -1.421875 13.25 4.234375 
Q 6.78125 9.90625 6.78125 20.515625 
Q 6.78125 27.484375 10.78125 32.3125 
Q 14.796875 37.15625 21.921875 38.8125 
z
M 18.3125 54.390625 
Q 18.3125 48.734375 21.84375 45.5625 
Q 25.390625 42.390625 31.78125 42.390625 
Q 38.140625 42.390625 41.71875 45.5625 
Q 45.3125 48.734375 45.3125 54.390625 
Q 45.3125 60.0625 41.71875 63.234375 
Q 38.140625 66.40625 31.78125 66.40625 
Q 25.390625 66.40625 21.84375 63.234375 
Q 18.3125 60.0625 18.3125 54.390625 
z
" id="DejaVuSans-56"/>
      </defs>
      <g transform="translate(20.491 22.437811)scale(0.088 -0.088)">
       <use xlink:href="#DejaVuSans-56"/>
      </g>
     </g>
    </g>
    <g id="text_18">
     <!-- Total number of experienced events -->
     <defs>
      <path d="M 30.609375 48.390625 
Q 23.390625 48.390625 19.1875 42.75 
Q 14.984375 37.109375 14.984375 27.296875 
Q 14.984375 17.484375 19.15625 11.84375 
Q 23.34375 6.203125 30.609375 6.203125 
Q 37.796875 6.203125 41.984375 11.859375 
Q 46.1875 17.53125 46.1875 27.296875 
Q 46.1875 37.015625 41.984375 42.703125 
Q 37.796875 48.390625 30.609375 48.390625 
z
M 30.609375 56 
Q 42.328125 56 49.015625 48.375 
Q 55.71875 40.765625 55.71875 27.296875 
Q 55.71875 13.875 49.015625 6.21875 
Q 42.328125 -1.421875 30.609375 -1.421875 
Q 18.84375 -1.421875 12.171875 6.21875 
Q 5.515625 13.875 5.515625 27.296875 
Q 5.515625 40.765625 12.171875 48.375 
Q 18.84375 56 30.609375 56 
z
" id="DejaVuSans-111"/>
      <path d="M 34.28125 27.484375 
Q 23.390625 27.484375 19.1875 25 
Q 14.984375 22.515625 14.984375 16.5 
Q 14.984375 11.71875 18.140625 8.90625 
Q 21.296875 6.109375 26.703125 6.109375 
Q 34.1875 6.109375 38.703125 11.40625 
Q 43.21875 16.703125 43.21875 25.484375 
L 43.21875 27.484375 
z
M 52.203125 31.203125 
L 52.203125 0 
L 43.21875 0 
L 43.21875 8.296875 
Q 40.140625 3.328125 35.546875 0.953125 
Q 30.953125 -1.421875 24.3125 -1.421875 
Q 15.921875 -1.421875 10.953125 3.296875 
Q 6 8.015625 6 15.921875 
Q 6 25.140625 12.171875 29.828125 
Q 18.359375 34.515625 30.609375 34.515625 
L 43.21875 34.515625 
L 43.21875 35.40625 
Q 43.21875 41.609375 39.140625 45 
Q 35.0625 48.390625 27.6875 48.390625 
Q 23 48.390625 18.546875 47.265625 
Q 14.109375 46.140625 10.015625 43.890625 
L 10.015625 52.203125 
Q 14.9375 54.109375 19.578125 55.046875 
Q 24.21875 56 28.609375 56 
Q 40.484375 56 46.34375 49.84375 
Q 52.203125 43.703125 52.203125 31.203125 
z
" id="DejaVuSans-97"/>
      <path d="M 9.421875 75.984375 
L 18.40625 75.984375 
L 18.40625 0 
L 9.421875 0 
z
" id="DejaVuSans-108"/>
      <path d="M 8.5 21.578125 
L 8.5 54.6875 
L 17.484375 54.6875 
L 17.484375 21.921875 
Q 17.484375 14.15625 20.5 10.265625 
Q 23.53125 6.390625 29.59375 6.390625 
Q 36.859375 6.390625 41.078125 11.03125 
Q 45.3125 15.671875 45.3125 23.6875 
L 45.3125 54.6875 
L 54.296875 54.6875 
L 54.296875 0 
L 45.3125 0 
L 45.3125 8.40625 
Q 42.046875 3.421875 37.71875 1 
Q 33.40625 -1.421875 27.6875 -1.421875 
Q 18.265625 -1.421875 13.375 4.4375 
Q 8.5 10.296875 8.5 21.578125 
z
M 31.109375 56 
z
" id="DejaVuSans-117"/>
      <path d="M 48.6875 27.296875 
Q 48.6875 37.203125 44.609375 42.84375 
Q 40.53125 48.484375 33.40625 48.484375 
Q 26.265625 48.484375 22.1875 42.84375 
Q 18.109375 37.203125 18.109375 27.296875 
Q 18.109375 17.390625 22.1875 11.75 
Q 26.265625 6.109375 33.40625 6.109375 
Q 40.53125 6.109375 44.609375 11.75 
Q 48.6875 17.390625 48.6875 27.296875 
z
M 18.109375 46.390625 
Q 20.953125 51.265625 25.265625 53.625 
Q 29.59375 56 35.59375 56 
Q 45.5625 56 51.78125 48.09375 
Q 58.015625 40.1875 58.015625 27.296875 
Q 58.015625 14.40625 51.78125 6.484375 
Q 45.5625 -1.421875 35.59375 -1.421875 
Q 29.59375 -1.421875 25.265625 0.953125 
Q 20.953125 3.328125 18.109375 8.203125 
L 18.109375 0 
L 9.078125 0 
L 9.078125 75.984375 
L 18.109375 75.984375 
z
" id="DejaVuSans-98"/>
      <path d="M 41.109375 46.296875 
Q 39.59375 47.171875 37.8125 47.578125 
Q 36.03125 48 33.890625 48 
Q 26.265625 48 22.1875 43.046875 
Q 18.109375 38.09375 18.109375 28.8125 
L 18.109375 0 
L 9.078125 0 
L 9.078125 54.6875 
L 18.109375 54.6875 
L 18.109375 46.1875 
Q 20.953125 51.171875 25.484375 53.578125 
Q 30.03125 56 36.53125 56 
Q 37.453125 56 38.578125 55.875 
Q 39.703125 55.765625 41.0625 55.515625 
z
" id="DejaVuSans-114"/>
      <path d="M 37.109375 75.984375 
L 37.109375 68.5 
L 28.515625 68.5 
Q 23.6875 68.5 21.796875 66.546875 
Q 19.921875 64.59375 19.921875 59.515625 
L 19.921875 54.6875 
L 34.71875 54.6875 
L 34.71875 47.703125 
L 19.921875 47.703125 
L 19.921875 0 
L 10.890625 0 
L 10.890625 47.703125 
L 2.296875 47.703125 
L 2.296875 54.6875 
L 10.890625 54.6875 
L 10.890625 58.5 
Q 10.890625 67.625 15.140625 71.796875 
Q 19.390625 75.984375 28.609375 75.984375 
z
" id="DejaVuSans-102"/>
      <path d="M 54.890625 54.6875 
L 35.109375 28.078125 
L 55.90625 0 
L 45.3125 0 
L 29.390625 21.484375 
L 13.484375 0 
L 2.875 0 
L 24.125 28.609375 
L 4.6875 54.6875 
L 15.28125 54.6875 
L 29.78125 35.203125 
L 44.28125 54.6875 
z
" id="DejaVuSans-120"/>
      <path d="M 18.109375 8.203125 
L 18.109375 -20.796875 
L 9.078125 -20.796875 
L 9.078125 54.6875 
L 18.109375 54.6875 
L 18.109375 46.390625 
Q 20.953125 51.265625 25.265625 53.625 
Q 29.59375 56 35.59375 56 
Q 45.5625 56 51.78125 48.09375 
Q 58.015625 40.1875 58.015625 27.296875 
Q 58.015625 14.40625 51.78125 6.484375 
Q 45.5625 -1.421875 35.59375 -1.421875 
Q 29.59375 -1.421875 25.265625 0.953125 
Q 20.953125 3.328125 18.109375 8.203125 
z
M 48.6875 27.296875 
Q 48.6875 37.203125 44.609375 42.84375 
Q 40.53125 48.484375 33.40625 48.484375 
Q 26.265625 48.484375 22.1875 42.84375 
Q 18.109375 37.203125 18.109375 27.296875 
Q 18.109375 17.390625 22.1875 11.75 
Q 26.265625 6.109375 33.40625 6.109375 
Q 40.53125 6.109375 44.609375 11.75 
Q 48.6875 17.390625 48.6875 27.296875 
z
" id="DejaVuSans-112"/>
      <path d="M 48.78125 52.59375 
L 48.78125 44.1875 
Q 44.96875 46.296875 41.140625 47.34375 
Q 37.3125 48.390625 33.40625 48.390625 
Q 24.65625 48.390625 19.8125 42.84375 
Q 14.984375 37.3125 14.984375 27.296875 
Q 14.984375 17.28125 19.8125 11.734375 
Q 24.65625 6.203125 33.40625 6.203125 
Q 37.3125 6.203125 41.140625 7.25 
Q 44.96875 8.296875 48.78125 10.40625 
L 48.78125 2.09375 
Q 45.015625 0.34375 40.984375 -0.53125 
Q 36.96875 -1.421875 32.421875 -1.421875 
Q 20.0625 -1.421875 12.78125 6.34375 
Q 5.515625 14.109375 5.515625 27.296875 
Q 5.515625 40.671875 12.859375 48.328125 
Q 20.21875 56 33.015625 56 
Q 37.15625 56 41.109375 55.140625 
Q 45.0625 54.296875 48.78125 52.59375 
z
" id="DejaVuSans-99"/>
      <path d="M 45.40625 46.390625 
L 45.40625 75.984375 
L 54.390625 75.984375 
L 54.390625 0 
L 45.40625 0 
L 45.40625 8.203125 
Q 42.578125 3.328125 38.25 0.953125 
Q 33.9375 -1.421875 27.875 -1.421875 
Q 17.96875 -1.421875 11.734375 6.484375 
Q 5.515625 14.40625 5.515625 27.296875 
Q 5.515625 40.1875 11.734375 48.09375 
Q 17.96875 56 27.875 56 
Q 33.9375 56 38.25 53.625 
Q 42.578125 51.265625 45.40625 46.390625 
z
M 14.796875 27.296875 
Q 14.796875 17.390625 18.875 11.75 
Q 22.953125 6.109375 30.078125 6.109375 
Q 37.203125 6.109375 41.296875 11.75 
Q 45.40625 17.390625 45.40625 27.296875 
Q 45.40625 37.203125 41.296875 42.84375 
Q 37.203125 48.484375 30.078125 48.484375 
Q 22.953125 48.484375 18.875 42.84375 
Q 14.796875 37.203125 14.796875 27.296875 
z
" id="DejaVuSans-100"/>
      <path d="M 44.28125 53.078125 
L 44.28125 44.578125 
Q 40.484375 46.53125 36.375 47.5 
Q 32.28125 48.484375 27.875 48.484375 
Q 21.1875 48.484375 17.84375 46.4375 
Q 14.5 44.390625 14.5 40.28125 
Q 14.5 37.15625 16.890625 35.375 
Q 19.28125 33.59375 26.515625 31.984375 
L 29.59375 31.296875 
Q 39.15625 29.25 43.1875 25.515625 
Q 47.21875 21.78125 47.21875 15.09375 
Q 47.21875 7.46875 41.1875 3.015625 
Q 35.15625 -1.421875 24.609375 -1.421875 
Q 20.21875 -1.421875 15.453125 -0.5625 
Q 10.6875 0.296875 5.421875 2 
L 5.421875 11.28125 
Q 10.40625 8.6875 15.234375 7.390625 
Q 20.0625 6.109375 24.8125 6.109375 
Q 31.15625 6.109375 34.5625 8.28125 
Q 37.984375 10.453125 37.984375 14.40625 
Q 37.984375 18.0625 35.515625 20.015625 
Q 33.0625 21.96875 24.703125 23.78125 
L 21.578125 24.515625 
Q 13.234375 26.265625 9.515625 29.90625 
Q 5.8125 33.546875 5.8125 39.890625 
Q 5.8125 47.609375 11.28125 51.796875 
Q 16.75 56 26.8125 56 
Q 31.78125 56 36.171875 55.265625 
Q 40.578125 54.546875 44.28125 53.078125 
z
" id="DejaVuSans-115"/>
     </defs>
     <g transform="translate(14.4945 181.968)rotate(-90)scale(0.096 -0.096)">
      <use xlink:href="#DejaVuSans-84"/>
      <use x="60.818359" xlink:href="#DejaVuSans-111"/>
      <use x="122" xlink:href="#DejaVuSans-116"/>
      <use x="161.208984" xlink:href="#DejaVuSans-97"/>
      <use x="222.488281" xlink:href="#DejaVuSans-108"/>
      <use x="250.271484" xlink:href="#DejaVuSans-32"/>
      <use x="282.058594" xlink:href="#DejaVuSans-110"/>
      <use x="345.4375" xlink:href="#DejaVuSans-117"/>
      <use x="408.816406" xlink:href="#DejaVuSans-109"/>
      <use x="506.228516" xlink:href="#DejaVuSans-98"/>
      <use x="569.705078" xlink:href="#DejaVuSans-101"/>
      <use x="631.228516" xlink:href="#DejaVuSans-114"/>
      <use x="672.341797" xlink:href="#DejaVuSans-32"/>
      <use x="704.128906" xlink:href="#DejaVuSans-111"/>
      <use x="765.310547" xlink:href="#DejaVuSans-102"/>
      <use x="800.515625" xlink:href="#DejaVuSans-32"/>
      <use x="832.302734" xlink:href="#DejaVuSans-101"/>
      <use x="893.810547" xlink:href="#DejaVuSans-120"/>
      <use x="952.990234" xlink:href="#DejaVuSans-112"/>
      <use x="1016.466797" xlink:href="#DejaVuSans-101"/>
      <use x="1077.990234" xlink:href="#DejaVuSans-114"/>
      <use x="1119.103516" xlink:href="#DejaVuSans-105"/>
      <use x="1146.886719" xlink:href="#DejaVuSans-101"/>
      <use x="1208.410156" xlink:href="#DejaVuSans-110"/>
      <use x="1271.789062" xlink:href="#DejaVuSans-99"/>
      <use x="1326.769531" xlink:href="#DejaVuSans-101"/>
      <use x="1388.292969" xlink:href="#DejaVuSans-100"/>
      <use x="1451.769531" xlink:href="#DejaVuSans-32"/>
      <use x="1483.556641" xlink:href="#DejaVuSans-101"/>
      <use x="1545.080078" xlink:href="#DejaVuSans-118"/>
      <use x="1604.259766" xlink:href="#DejaVuSans-101"/>
      <use x="1665.783203" xlink:href="#DejaVuSans-110"/>
      <use x="1729.162109" xlink:href="#DejaVuSans-116"/>
      <use x="1768.371094" xlink:href="#DejaVuSans-115"/>
     </g>
    </g>
   </g>
   <g id="line2d_17">
    <path clip-path="url(#pe5dfa9d889)" d="M 39.39 173.653091 
L 46.438421 172.107505 
L 53.486842 171.665909 
L 60.535263 171.445111 
L 67.583684 171.224313 
L 74.632105 171.003515 
L 81.680526 171.003515 
L 88.728947 171.003515 
L 95.777368 170.782717 
L 102.825789 170.782717 
L 109.874211 170.782717 
L 116.922632 170.782717 
L 123.971053 148.702918 
L 131.019474 144.949352 
L 138.067895 144.06616 
L 145.116316 143.845362 
L 152.164737 143.624564 
L 159.213158 143.403766 
L 166.261579 143.403766 
L 173.31 143.403766 
L 180.358421 143.403766 
L 187.406842 143.403766 
L 194.455263 143.403766 
L 201.503684 143.403766 
L 208.552105 143.403766 
L 215.600526 143.182968 
L 222.648947 143.182968 
L 229.697368 143.182968 
L 236.745789 143.182968 
L 243.794211 143.182968 
L 250.842632 143.182968 
L 257.891053 143.182968 
L 264.939474 143.182968 
L 271.987895 142.96217 
L 279.036316 142.96217 
L 286.084737 142.96217 
L 293.133158 142.96217 
L 300.181579 142.96217 
" style="fill:none;stroke:#2e72bd;stroke-linecap:square;stroke-width:1.2;"/>
   </g>
   <g id="line2d_18">
    <path clip-path="url(#pe5dfa9d889)" d="M 39.39 173.653091 
L 46.438421 172.328303 
L 53.486842 171.665909 
L 60.535263 171.445111 
L 67.583684 149.58611 
L 74.632105 131.701473 
L 81.680526 118.674391 
L 88.728947 110.725664 
L 95.777368 110.725664 
L 102.825789 104.54332 
L 109.874211 104.54332 
L 116.922632 99.906562 
L 123.971053 99.906562 
L 131.019474 97.036188 
L 138.067895 97.036188 
L 145.116316 94.828209 
L 152.164737 94.607411 
L 159.213158 92.620229 
L 166.261579 92.620229 
L 173.31 91.074643 
L 180.358421 91.074643 
L 187.406842 89.749855 
L 194.455263 89.749855 
L 201.503684 88.866663 
L 208.552105 88.866663 
L 215.600526 88.866663 
L 222.648947 87.983471 
L 229.697368 87.541875 
L 236.745789 87.541875 
L 243.794211 87.541875 
L 250.842632 87.100279 
L 257.891053 87.100279 
L 264.939474 87.100279 
L 271.987895 87.100279 
L 279.036316 86.879481 
L 286.084737 86.658683 
L 293.133158 86.658683 
L 300.181579 86.658683 
" style="fill:none;stroke:#66c2a5;stroke-linecap:square;stroke-width:1.2;"/>
   </g>
   <g id="line2d_19">
    <path clip-path="url(#pe5dfa9d889)" d="M 39.39 173.653091 
L 46.438421 152.014888 
L 53.486842 149.365312 
L 60.535263 128.610301 
L 67.583684 127.947907 
L 74.632105 107.413694 
L 81.680526 106.7513 
L 88.728947 87.321077 
L 95.777368 86.879481 
L 102.825789 86.879481 
L 109.874211 86.879481 
L 116.922632 86.879481 
L 123.971053 68.33245 
L 131.019474 53.759782 
L 138.067895 44.265469 
L 145.116316 37.862327 
L 152.164737 37.862327 
L 159.213158 34.550357 
L 166.261579 34.550357 
L 173.31 32.121579 
L 180.358421 32.121579 
L 187.406842 30.355196 
L 194.455263 30.355196 
L 201.503684 28.588812 
L 208.552105 28.588812 
L 215.600526 28.588812 
L 222.648947 27.043226 
L 229.697368 26.380832 
L 236.745789 26.380832 
L 243.794211 26.380832 
L 250.842632 25.939236 
L 257.891053 25.939236 
L 264.939474 25.939236 
L 271.987895 25.939236 
L 279.036316 25.718438 
L 286.084737 25.276842 
L 293.133158 25.276842 
L 300.181579 25.276842 
" style="fill:none;stroke:#fc8d62;stroke-linecap:square;stroke-width:1.2;"/>
   </g>
   <g id="line2d_20">
    <path clip-path="url(#pe5dfa9d889)" d="M 39.39 173.653091 
L 46.438421 152.235686 
L 53.486842 150.248504 
L 60.535263 129.493493 
L 67.583684 129.051897 
L 74.632105 108.95928 
L 81.680526 108.296886 
L 88.728947 89.529057 
L 95.777368 89.529057 
L 102.825789 73.190006 
L 109.874211 73.190006 
L 116.922632 60.383722 
L 123.971053 60.383722 
L 131.019474 50.006217 
L 138.067895 50.006217 
L 145.116316 42.278287 
L 152.164737 42.278287 
L 159.213158 42.278287 
L 166.261579 42.278287 
L 173.31 42.278287 
L 180.358421 35.654347 
L 187.406842 29.9136 
L 194.455263 26.60163 
L 201.503684 25.056044 
L 208.552105 25.056044 
L 215.600526 24.835246 
L 222.648947 24.614448 
L 229.697368 24.172852 
L 236.745789 24.172852 
L 243.794211 24.172852 
L 250.842632 23.952054 
L 257.891053 23.731256 
L 264.939474 23.731256 
L 271.987895 23.510458 
L 279.036316 23.28966 
L 286.084737 23.068862 
L 293.133158 23.068862 
L 300.181579 23.068862 
" style="fill:none;stroke:#8da0cb;stroke-linecap:square;stroke-width:1.2;"/>
   </g>
   <g id="line2d_21">
    <path clip-path="url(#pe5dfa9d889)" d="M 215.600526 181.56 
L 215.600526 7.608 
" style="fill:none;stroke:#000000;stroke-dasharray:1.2,1.98;stroke-dashoffset:0;stroke-width:1.2;"/>
   </g>
   <g id="patch_3">
    <path d="M 34.39 181.56 
L 34.39 7.608 
" style="fill:none;stroke:#000000;stroke-linecap:square;stroke-linejoin:miter;"/>
   </g>
   <g id="patch_4">
    <path d="M 39.39 186.56 
L 307.23 186.56 
" style="fill:none;stroke:#000000;stroke-linecap:square;stroke-linejoin:miter;"/>
   </g>
   <g id="legend_1">
    <g id="line2d_22">
     <path d="M 47.31 19.134625 
L 64.91 19.134625 
" style="fill:none;stroke:#2e72bd;stroke-linecap:square;stroke-width:1.2;"/>
    </g>
    <g id="line2d_23"/>
    <g id="text_19">
     <!-- Blocked -->
     <defs>
      <path d="M 19.671875 34.8125 
L 19.671875 8.109375 
L 35.5 8.109375 
Q 43.453125 8.109375 47.28125 11.40625 
Q 51.125 14.703125 51.125 21.484375 
Q 51.125 28.328125 47.28125 31.5625 
Q 43.453125 34.8125 35.5 34.8125 
z
M 19.671875 64.796875 
L 19.671875 42.828125 
L 34.28125 42.828125 
Q 41.5 42.828125 45.03125 45.53125 
Q 48.578125 48.25 48.578125 53.8125 
Q 48.578125 59.328125 45.03125 62.0625 
Q 41.5 64.796875 34.28125 64.796875 
z
M 9.8125 72.90625 
L 35.015625 72.90625 
Q 46.296875 72.90625 52.390625 68.21875 
Q 58.5 63.53125 58.5 54.890625 
Q 58.5 48.1875 55.375 44.234375 
Q 52.25 40.28125 46.1875 39.3125 
Q 53.46875 37.75 57.5 32.78125 
Q 61.53125 27.828125 61.53125 20.40625 
Q 61.53125 10.640625 54.890625 5.3125 
Q 48.25 0 35.984375 0 
L 9.8125 0 
z
" id="DejaVuSans-66"/>
      <path d="M 9.078125 75.984375 
L 18.109375 75.984375 
L 18.109375 31.109375 
L 44.921875 54.6875 
L 56.390625 54.6875 
L 27.390625 29.109375 
L 57.625 0 
L 45.90625 0 
L 18.109375 26.703125 
L 18.109375 0 
L 9.078125 0 
z
" id="DejaVuSans-107"/>
     </defs>
     <g transform="translate(71.95 22.214625)scale(0.088 -0.088)">
      <use xlink:href="#DejaVuSans-66"/>
      <use x="68.603516" xlink:href="#DejaVuSans-108"/>
      <use x="96.386719" xlink:href="#DejaVuSans-111"/>
      <use x="157.568359" xlink:href="#DejaVuSans-99"/>
      <use x="212.548828" xlink:href="#DejaVuSans-107"/>
      <use x="270.412109" xlink:href="#DejaVuSans-101"/>
      <use x="331.935547" xlink:href="#DejaVuSans-100"/>
     </g>
    </g>
    <g id="line2d_24">
     <path d="M 47.31 32.051375 
L 64.91 32.051375 
" style="fill:none;stroke:#66c2a5;stroke-linecap:square;stroke-width:1.2;"/>
    </g>
    <g id="line2d_25"/>
    <g id="text_20">
     <!-- Early -->
     <defs>
      <path d="M 9.8125 72.90625 
L 55.90625 72.90625 
L 55.90625 64.59375 
L 19.671875 64.59375 
L 19.671875 43.015625 
L 54.390625 43.015625 
L 54.390625 34.71875 
L 19.671875 34.71875 
L 19.671875 8.296875 
L 56.78125 8.296875 
L 56.78125 0 
L 9.8125 0 
z
" id="DejaVuSans-69"/>
      <path d="M 32.171875 -5.078125 
Q 28.375 -14.84375 24.75 -17.8125 
Q 21.140625 -20.796875 15.09375 -20.796875 
L 7.90625 -20.796875 
L 7.90625 -13.28125 
L 13.1875 -13.28125 
Q 16.890625 -13.28125 18.9375 -11.515625 
Q 21 -9.765625 23.484375 -3.21875 
L 25.09375 0.875 
L 2.984375 54.6875 
L 12.5 54.6875 
L 29.59375 11.921875 
L 46.6875 54.6875 
L 56.203125 54.6875 
z
" id="DejaVuSans-121"/>
     </defs>
     <g transform="translate(71.95 35.131375)scale(0.088 -0.088)">
      <use xlink:href="#DejaVuSans-69"/>
      <use x="63.183594" xlink:href="#DejaVuSans-97"/>
      <use x="124.462891" xlink:href="#DejaVuSans-114"/>
      <use x="165.576172" xlink:href="#DejaVuSans-108"/>
      <use x="193.359375" xlink:href="#DejaVuSans-121"/>
     </g>
    </g>
    <g id="line2d_26">
     <path d="M 47.31 44.968125 
L 64.91 44.968125 
" style="fill:none;stroke:#fc8d62;stroke-linecap:square;stroke-width:1.2;"/>
    </g>
    <g id="line2d_27"/>
    <g id="text_21">
     <!-- Middle -->
     <defs>
      <path d="M 9.8125 72.90625 
L 24.515625 72.90625 
L 43.109375 23.296875 
L 61.8125 72.90625 
L 76.515625 72.90625 
L 76.515625 0 
L 66.890625 0 
L 66.890625 64.015625 
L 48.09375 14.015625 
L 38.1875 14.015625 
L 19.390625 64.015625 
L 19.390625 0 
L 9.8125 0 
z
" id="DejaVuSans-77"/>
     </defs>
     <g transform="translate(71.95 48.048125)scale(0.088 -0.088)">
      <use xlink:href="#DejaVuSans-77"/>
      <use x="86.279297" xlink:href="#DejaVuSans-105"/>
      <use x="114.0625" xlink:href="#DejaVuSans-100"/>
      <use x="177.539062" xlink:href="#DejaVuSans-100"/>
      <use x="241.015625" xlink:href="#DejaVuSans-108"/>
      <use x="268.798828" xlink:href="#DejaVuSans-101"/>
     </g>
    </g>
    <g id="line2d_28">
     <path d="M 47.31 57.884875 
L 64.91 57.884875 
" style="fill:none;stroke:#8da0cb;stroke-linecap:square;stroke-width:1.2;"/>
    </g>
    <g id="line2d_29"/>
    <g id="text_22">
     <!-- Late -->
     <defs>
      <path d="M 9.8125 72.90625 
L 19.671875 72.90625 
L 19.671875 8.296875 
L 55.171875 8.296875 
L 55.171875 0 
L 9.8125 0 
z
" id="DejaVuSans-76"/>
     </defs>
     <g transform="translate(71.95 60.964875)scale(0.088 -0.088)">
      <use xlink:href="#DejaVuSans-76"/>
      <use x="55.712891" xlink:href="#DejaVuSans-97"/>
      <use x="116.992188" xlink:href="#DejaVuSans-116"/>
      <use x="156.201172" xlink:href="#DejaVuSans-101"/>
     </g>
    </g>
   </g>
  </g>
 </g>
 <defs>
  <clipPath id="pe5dfa9d889">
   <rect height="173.952" width="267.84" x="39.39" y="7.608"/>
  </clipPath>
 </defs>
</svg>
