<?xml version="1.0" encoding="utf-8" standalone="no"?>
<!DOCTYPE svg PUBLIC "-//W3C//DTD SVG 1.1//EN"
  "http://www.w3.org/Graphics/SVG/1.1/DTD/svg11.dtd">
<!-- Created with matplotlib (https://matplotlib.org/) -->
<svg height="288pt" version="1.1" viewBox="0 0 1080 288" width="1080pt" xmlns="http://www.w3.org/2000/svg" xmlns:xlink="http://www.w3.org/1999/xlink">
 <defs>
  <style type="text/css">
*{stroke-linecap:butt;stroke-linejoin:round;white-space:pre;}
  </style>
 </defs>
 <g id="figure_1">
  <g id="patch_1">
   <path d="M 0 288 
L 1080 288 
L 1080 0 
L 0 0 
z
" style="fill:#ffffff;"/>
  </g>
  <g id="axes_1">
   <g id="patch_2">
    <path d="M 135 252 
L 972 252 
L 972 34.56 
L 135 34.56 
z
" style="fill:#ffffff;"/>
   </g>
   <g id="PolyCollection_1">
    <path clip-path="url(#p9175693291)" d="M 139.185 143.28 
L 139.185 169.927059 
L 143.37 139.048085 
L 147.555 144.008232 
L 151.74 171.233566 
L 155.925 118.380724 
L 160.11 163.112608 
L 164.295 103.654617 
L 168.48 111.472604 
L 172.665 107.94183 
L 176.85 132.41401 
L 181.035 105.019022 
L 185.22 135.364573 
L 189.405 106.606741 
L 193.59 129.546406 
L 197.775 121.717519 
L 201.96 136.485395 
L 206.145 123.923629 
L 210.33 129.992989 
L 214.515 86.96429 
L 218.7 139.352235 
L 222.885 116.708548 
L 227.07 150.016448 
L 231.255 117.672779 
L 235.44 124.648189 
L 239.625 131.408998 
L 243.81 143.846129 
L 247.995 112.334138 
L 252.18 139.889504 
L 256.365 120.511716 
L 260.55 141.236961 
L 264.735 92.720485 
L 268.92 121.452826 
L 273.105 131.408998 
L 277.29 138.603639 
L 281.475 107.94183 
L 285.66 155.929696 
L 289.845 114.52905 
L 294.03 157.749122 
L 298.215 137.649493 
L 302.4 132.41401 
L 306.585 118.025708 
L 310.77 145.325735 
L 314.955 116.708548 
L 319.14 138.722511 
L 323.325 122.330735 
L 327.51 141.963373 
L 331.695 120.511716 
L 335.88 147.134473 
L 340.065 102.325706 
L 344.25 125.824029 
L 348.435 110.210716 
L 352.62 133.067445 
L 356.805 128.271825 
L 360.99 117.844435 
L 365.175 123.152641 
L 369.36 145.448963 
L 373.545 128.958321 
L 377.73 125.634983 
L 381.915 102.325706 
L 386.1 131.408998 
L 390.285 93.697447 
L 394.47 122.386554 
L 398.655 101.263114 
L 402.84 118.217535 
L 407.025 106.946547 
L 411.21 137.594071 
L 415.395 117.355114 
L 419.58 143.28 
L 423.765 123.110284 
L 427.95 130.674262 
L 432.135 105.966391 
L 436.32 103.199662 
L 440.505 113.466602 
L 444.69 127.666464 
L 448.875 105.019022 
L 453.06 124.648189 
L 457.245 112.148047 
L 461.43 116.969201 
L 465.615 99.467915 
L 469.8 119.676836 
L 473.985 107.23913 
L 478.17 128.880957 
L 482.355 121.117058 
L 486.54 114.558054 
L 490.725 114.558054 
L 494.91 148.537183 
L 499.095 93.697447 
L 503.28 129.453652 
L 507.465 98.607115 
L 511.65 125.3303 
L 515.835 132.561142 
L 520.02 118.579131 
L 524.205 90.90943 
L 528.39 110.629065 
L 532.575 105.966391 
L 536.76 109.389148 
L 540.945 112.405168 
L 545.13 124.206316 
L 549.315 126.355637 
L 553.5 91.111656 
L 557.685 106.940286 
L 561.87 103.199662 
L 566.055 95.355888 
L 570.24 81.82743 
L 574.425 111.257389 
L 578.61 108.972211 
L 582.795 116.708548 
L 586.98 119.012828 
L 591.165 115.603838 
L 595.35 115.680806 
L 599.535 110.36756 
L 603.72 119.012828 
L 607.905 120.804175 
L 612.09 128.264084 
L 616.275 117.672779 
L 620.46 119.676836 
L 624.645 112.334138 
L 628.83 135.892397 
L 633.015 93.561007 
L 637.2 126.188852 
L 641.385 113.466602 
L 645.57 115.912895 
L 649.755 123.110284 
L 653.94 90.341316 
L 658.125 117.509915 
L 662.31 111.472604 
L 666.495 117.672779 
L 670.68 118.789416 
L 674.865 104.610676 
L 679.05 111.372537 
L 683.235 85.57819 
L 687.42 124.376379 
L 691.605 116.708548 
L 695.79 116.354794 
L 699.975 112.334138 
L 704.16 117.509915 
L 708.345 122.330735 
L 712.53 111.472604 
L 716.715 115.603838 
L 720.9 119.012828 
L 725.085 106.940286 
L 729.27 93.055149 
L 733.455 95.355888 
L 737.64 104.610676 
L 741.825 116.836213 
L 746.01 97.113408 
L 750.195 116.468103 
L 754.38 90.646171 
L 758.565 104.49751 
L 762.75 119.676836 
L 766.935 106.606741 
L 771.12 96.954234 
L 775.305 111.472604 
L 779.49 107.319623 
L 783.675 110.738255 
L 787.86 127.622794 
L 792.045 127.666464 
L 796.23 111.372537 
L 800.415 102.725 
L 804.6 111.12458 
L 808.785 136.324612 
L 812.97 98.613825 
L 817.155 114.565332 
L 821.34 125.975568 
L 825.525 104.825055 
L 829.71 123.444857 
L 833.895 121.962353 
L 838.08 132.806405 
L 842.265 114.507898 
L 846.45 138.294243 
L 850.635 136.881598 
L 854.82 101.627963 
L 859.005 104.825055 
L 863.19 103.160616 
L 867.375 158.157453 
L 871.56 130.81343 
L 875.745 99.639063 
L 879.93 118.066025 
L 884.115 127.063252 
L 888.3 142.572786 
L 892.485 129.834853 
L 896.67 108.66472 
L 900.855 127.063252 
L 905.04 136.324612 
L 909.225 127.063252 
L 913.41 138.685291 
L 917.595 108.66472 
L 921.78 124.156203 
L 925.965 141.968609 
L 930.15 106.452569 
L 934.335 104.825055 
L 938.52 111.499514 
L 942.705 104.767011 
L 946.89 102.911604 
L 951.075 97.425174 
L 955.26 117.891358 
L 959.445 108.245365 
L 963.63 102.432707 
L 967.815 157.832178 
L 972 124.736896 
L 972 90.76428 
L 972 90.76428 
L 967.815 123.261758 
L 963.63 77.539058 
L 959.445 80.608753 
L 955.26 88.135308 
L 951.075 70.703453 
L 946.89 77.06016 
L 942.705 75.204754 
L 938.52 83.699142 
L 934.335 77.414544 
L 930.15 76.252227 
L 925.965 113.009691 
L 921.78 94.368753 
L 917.595 81.756872 
L 913.41 105.239415 
L 909.225 97.320277 
L 905.04 103.440553 
L 900.855 97.320277 
L 896.67 81.756872 
L 892.485 100.168124 
L 888.3 110.82643 
L 884.115 97.320277 
L 879.93 87.283891 
L 875.745 74.062805 
L 871.56 100.135317 
L 867.375 122.64102 
L 863.19 74.211436 
L 859.005 77.414544 
L 854.82 73.268171 
L 850.635 107.043108 
L 846.45 107.444731 
L 842.265 84.843545 
L 838.08 101.643791 
L 833.895 89.985882 
L 829.71 92.05632 
L 825.525 77.414544 
L 821.34 95.704636 
L 817.155 85.816946 
L 812.97 72.475587 
L 808.785 103.440553 
L 804.6 86.885193 
L 800.415 80.292143 
L 796.23 88.115384 
L 792.045 103.409249 
L 787.86 102.508141 
L 783.675 88.972071 
L 779.49 82.967133 
L 775.305 88.664503 
L 771.12 75.716967 
L 766.935 83.054864 
L 762.75 95.82434 
L 758.565 82.580137 
L 754.38 70.344127 
L 750.195 93.348368 
L 746.01 74.659262 
L 741.825 92.205071 
L 737.64 81.630984 
L 733.455 73.479793 
L 729.27 72.5128 
L 725.085 83.844778 
L 720.9 94.367189 
L 716.715 91.77633 
L 712.53 88.664503 
L 708.345 97.41276 
L 704.16 94.150244 
L 699.975 88.318926 
L 695.79 93.680319 
L 691.605 92.6136 
L 687.42 99.484659 
L 683.235 65.869962 
L 679.05 88.115384 
L 674.865 81.630984 
L 670.68 94.681508 
L 666.495 93.825083 
L 662.31 88.664503 
L 658.125 94.150244 
L 653.94 69.548607 
L 649.755 99.773628 
L 645.57 89.787065 
L 641.385 89.676518 
L 637.2 100.415265 
L 633.015 71.652387 
L 628.83 110.50392 
L 624.645 88.318926 
L 620.46 95.82434 
L 616.275 93.825083 
L 612.09 104.291211 
L 607.905 96.698658 
L 603.72 94.367189 
L 599.535 87.368911 
L 595.35 91.335735 
L 591.165 91.77633 
L 586.98 94.367189 
L 582.795 92.6136 
L 578.61 85.317376 
L 574.425 87.524065 
L 570.24 61.450024 
L 566.055 73.479793 
L 561.87 81.152442 
L 557.685 83.844778 
L 553.5 70.05042 
L 549.315 101.503596 
L 545.13 100.644706 
L 540.945 88.884244 
L 536.76 86.643858 
L 532.575 83.141508 
L 528.39 88.473922 
L 524.205 71.066918 
L 520.02 94.975228 
L 515.835 109.258118 
L 511.65 101.540289 
L 507.465 76.860922 
L 503.28 105.252612 
L 499.095 72.371505 
L 494.91 123.811052 
L 490.725 90.493295 
L 486.54 90.493295 
L 482.355 96.474084 
L 478.17 104.384925 
L 473.985 84.575772 
L 469.8 95.82434 
L 465.615 77.458471 
L 461.43 91.764468 
L 457.245 87.044547 
L 453.06 100.587073 
L 448.875 82.458956 
L 444.69 103.409249 
L 440.505 89.676518 
L 436.32 81.152442 
L 432.135 83.141508 
L 427.95 106.241902 
L 423.765 99.773628 
L 419.58 116.632941 
L 415.395 94.454695 
L 411.21 110.52427 
L 407.025 82.058119 
L 402.84 92.699202 
L 398.655 78.708651 
L 394.47 98.799329 
L 390.285 72.371505 
L 386.1 106.424951 
L 381.915 80.526822 
L 377.73 100.471988 
L 373.545 102.588397 
L 369.36 120.093638 
L 365.175 98.527564 
L 360.99 93.47681 
L 356.805 103.471368 
L 352.62 106.860202 
L 348.435 86.753376 
L 344.25 101.520285 
L 340.065 80.526822 
L 335.88 122.595805 
L 331.695 96.909969 
L 327.51 115.960982 
L 323.325 97.41276 
L 319.14 112.838367 
L 314.955 92.6136 
L 310.77 119.607666 
L 306.585 93.102617 
L 302.4 108.05378 
L 298.215 112.365969 
L 294.03 131.900392 
L 289.845 90.963842 
L 285.66 130.630304 
L 281.475 84.569727 
L 277.29 114.296918 
L 273.105 106.424951 
L 268.92 96.234776 
L 264.735 71.101547 
L 260.55 116.515408 
L 256.365 96.909969 
L 252.18 113.361672 
L 247.995 88.318926 
L 243.81 118.350846 
L 239.625 106.424951 
L 235.44 100.587073 
L 231.255 93.825083 
L 227.07 123.623766 
L 222.885 92.6136 
L 218.7 114.180425 
L 214.515 66.746606 
L 210.33 106.077847 
L 206.145 99.584176 
L 201.96 110.104017 
L 197.775 99.047274 
L 193.59 104.491855 
L 189.405 83.054864 
L 185.22 110.864743 
L 181.035 82.458956 
L 176.85 108.05378 
L 172.665 84.569727 
L 168.48 88.664503 
L 164.295 80.951418 
L 160.11 138.04852 
L 155.925 95.250484 
L 151.74 144.843176 
L 147.555 118.865494 
L 143.37 113.52726 
L 139.185 143.28 
z
" style="fill:#800080;fill-opacity:0.5;"/>
   </g>
   <g id="PolyCollection_2">
    <path clip-path="url(#p9175693291)" d="M 139.185 34.56 
L 139.185 252 
L 143.37 252 
L 147.555 252 
L 151.74 252 
L 155.925 252 
L 160.11 252 
L 164.295 252 
L 168.48 252 
L 172.665 252 
L 176.85 252 
L 181.035 252 
L 185.22 252 
L 189.405 252 
L 193.59 252 
L 197.775 252 
L 201.96 252 
L 206.145 252 
L 210.33 252 
L 214.515 252 
L 218.7 252 
L 222.885 252 
L 227.07 252 
L 231.255 252 
L 235.44 252 
L 239.625 252 
L 243.81 252 
L 247.995 252 
L 252.18 252 
L 256.365 252 
L 260.55 252 
L 264.735 252 
L 268.92 252 
L 273.105 252 
L 277.29 252 
L 281.475 252 
L 285.66 252 
L 289.845 252 
L 294.03 252 
L 298.215 252 
L 302.4 252 
L 306.585 252 
L 310.77 252 
L 314.955 252 
L 319.14 252 
L 323.325 252 
L 327.51 252 
L 331.695 252 
L 335.88 252 
L 340.065 252 
L 344.25 252 
L 348.435 252 
L 352.62 252 
L 356.805 252 
L 360.99 252 
L 365.175 252 
L 369.36 252 
L 373.545 252 
L 377.73 252 
L 381.915 252 
L 386.1 252 
L 390.285 252 
L 394.47 252 
L 398.655 252 
L 402.84 252 
L 407.025 252 
L 411.21 252 
L 415.395 252 
L 419.58 252 
L 423.765 252 
L 427.95 252 
L 432.135 252 
L 436.32 252 
L 440.505 252 
L 444.69 252 
L 448.875 252 
L 453.06 252 
L 457.245 252 
L 461.43 252 
L 465.615 252 
L 469.8 252 
L 473.985 252 
L 478.17 252 
L 482.355 252 
L 486.54 252 
L 490.725 252 
L 494.91 252 
L 499.095 252 
L 503.28 252 
L 507.465 252 
L 511.65 252 
L 515.835 252 
L 520.02 252 
L 524.205 252 
L 528.39 252 
L 532.575 252 
L 536.76 252 
L 540.945 252 
L 545.13 252 
L 549.315 252 
L 553.5 252 
L 557.685 252 
L 561.87 252 
L 566.055 252 
L 570.24 252 
L 574.425 252 
L 578.61 252 
L 582.795 252 
L 586.98 252 
L 591.165 252 
L 595.35 252 
L 599.535 252 
L 603.72 252 
L 607.905 252 
L 612.09 252 
L 616.275 252 
L 620.46 252 
L 624.645 252 
L 628.83 252 
L 633.015 252 
L 637.2 252 
L 641.385 252 
L 645.57 252 
L 649.755 252 
L 653.94 252 
L 658.125 252 
L 662.31 252 
L 666.495 252 
L 670.68 252 
L 674.865 252 
L 679.05 252 
L 683.235 252 
L 687.42 252 
L 691.605 252 
L 695.79 252 
L 699.975 252 
L 704.16 252 
L 708.345 252 
L 712.53 252 
L 716.715 252 
L 720.9 252 
L 725.085 252 
L 729.27 252 
L 733.455 252 
L 737.64 252 
L 741.825 252 
L 746.01 252 
L 750.195 252 
L 754.38 252 
L 758.565 252 
L 762.75 252 
L 766.935 252 
L 771.12 252 
L 775.305 252 
L 779.49 252 
L 783.675 252 
L 787.86 252 
L 792.045 252 
L 796.23 252 
L 800.415 252 
L 804.6 252 
L 808.785 252 
L 812.97 252 
L 817.155 252 
L 821.34 252 
L 825.525 252 
L 829.71 252 
L 833.895 252 
L 838.08 252 
L 842.265 252 
L 846.45 252 
L 850.635 252 
L 854.82 252 
L 859.005 252 
L 863.19 252 
L 867.375 252 
L 871.56 252 
L 875.745 252 
L 879.93 252 
L 884.115 252 
L 888.3 252 
L 892.485 252 
L 896.67 252 
L 900.855 252 
L 905.04 252 
L 909.225 252 
L 913.41 252 
L 917.595 252 
L 921.78 252 
L 925.965 252 
L 930.15 252 
L 934.335 252 
L 938.52 252 
L 942.705 252 
L 946.89 252 
L 951.075 252 
L 955.26 252 
L 959.445 252 
L 963.63 252 
L 967.815 252 
L 972 252 
L 972 34.56 
L 972 34.56 
L 967.815 34.56 
L 963.63 34.56 
L 959.445 34.56 
L 955.26 34.56 
L 951.075 34.56 
L 946.89 34.56 
L 942.705 34.56 
L 938.52 34.56 
L 934.335 34.56 
L 930.15 34.56 
L 925.965 34.56 
L 921.78 34.56 
L 917.595 34.56 
L 913.41 34.56 
L 909.225 34.56 
L 905.04 34.56 
L 900.855 34.56 
L 896.67 34.56 
L 892.485 34.56 
L 888.3 34.56 
L 884.115 34.56 
L 879.93 34.56 
L 875.745 34.56 
L 871.56 34.56 
L 867.375 34.56 
L 863.19 34.56 
L 859.005 34.56 
L 854.82 34.56 
L 850.635 34.56 
L 846.45 34.56 
L 842.265 34.56 
L 838.08 34.56 
L 833.895 34.56 
L 829.71 34.56 
L 825.525 34.56 
L 821.34 34.56 
L 817.155 34.56 
L 812.97 34.56 
L 808.785 34.56 
L 804.6 34.56 
L 800.415 34.56 
L 796.23 34.56 
L 792.045 34.56 
L 787.86 34.56 
L 783.675 34.56 
L 779.49 34.56 
L 775.305 34.56 
L 771.12 34.56 
L 766.935 34.56 
L 762.75 34.56 
L 758.565 34.56 
L 754.38 34.56 
L 750.195 34.56 
L 746.01 34.56 
L 741.825 34.56 
L 737.64 34.56 
L 733.455 34.56 
L 729.27 34.56 
L 725.085 34.56 
L 720.9 34.56 
L 716.715 34.56 
L 712.53 34.56 
L 708.345 34.56 
L 704.16 34.56 
L 699.975 34.56 
L 695.79 34.56 
L 691.605 34.56 
L 687.42 34.56 
L 683.235 34.56 
L 679.05 34.56 
L 674.865 34.56 
L 670.68 34.56 
L 666.495 34.56 
L 662.31 34.56 
L 658.125 34.56 
L 653.94 34.56 
L 649.755 34.56 
L 645.57 34.56 
L 641.385 34.56 
L 637.2 34.56 
L 633.015 34.56 
L 628.83 34.56 
L 624.645 34.56 
L 620.46 34.56 
L 616.275 34.56 
L 612.09 34.56 
L 607.905 34.56 
L 603.72 34.56 
L 599.535 34.56 
L 595.35 34.56 
L 591.165 34.56 
L 586.98 34.56 
L 582.795 34.56 
L 578.61 34.56 
L 574.425 34.56 
L 570.24 34.56 
L 566.055 34.56 
L 561.87 34.56 
L 557.685 34.56 
L 553.5 34.56 
L 549.315 34.56 
L 545.13 34.56 
L 540.945 34.56 
L 536.76 34.56 
L 532.575 34.56 
L 528.39 34.56 
L 524.205 34.56 
L 520.02 34.56 
L 515.835 34.56 
L 511.65 34.56 
L 507.465 34.56 
L 503.28 34.56 
L 499.095 34.56 
L 494.91 34.56 
L 490.725 34.56 
L 486.54 34.56 
L 482.355 34.56 
L 478.17 34.56 
L 473.985 34.56 
L 469.8 34.56 
L 465.615 34.56 
L 461.43 34.56 
L 457.245 34.56 
L 453.06 34.56 
L 448.875 34.56 
L 444.69 34.56 
L 440.505 34.56 
L 436.32 34.56 
L 432.135 34.56 
L 427.95 34.56 
L 423.765 34.56 
L 419.58 34.56 
L 415.395 34.56 
L 411.21 34.56 
L 407.025 34.56 
L 402.84 34.56 
L 398.655 34.56 
L 394.47 34.56 
L 390.285 34.56 
L 386.1 34.56 
L 381.915 34.56 
L 377.73 34.56 
L 373.545 34.56 
L 369.36 34.56 
L 365.175 34.56 
L 360.99 34.56 
L 356.805 34.56 
L 352.62 34.56 
L 348.435 34.56 
L 344.25 34.56 
L 340.065 34.56 
L 335.88 34.56 
L 331.695 34.56 
L 327.51 34.56 
L 323.325 34.56 
L 319.14 34.56 
L 314.955 34.56 
L 310.77 34.56 
L 306.585 34.56 
L 302.4 34.56 
L 298.215 34.56 
L 294.03 34.56 
L 289.845 34.56 
L 285.66 34.56 
L 281.475 34.56 
L 277.29 34.56 
L 273.105 34.56 
L 268.92 34.56 
L 264.735 34.56 
L 260.55 34.56 
L 256.365 34.56 
L 252.18 34.56 
L 247.995 34.56 
L 243.81 34.56 
L 239.625 34.56 
L 235.44 34.56 
L 231.255 34.56 
L 227.07 34.56 
L 222.885 34.56 
L 218.7 34.56 
L 214.515 34.56 
L 210.33 34.56 
L 206.145 34.56 
L 201.96 34.56 
L 197.775 34.56 
L 193.59 34.56 
L 189.405 34.56 
L 185.22 34.56 
L 181.035 34.56 
L 176.85 34.56 
L 172.665 34.56 
L 168.48 34.56 
L 164.295 34.56 
L 160.11 34.56 
L 155.925 34.56 
L 151.74 34.56 
L 147.555 34.56 
L 143.37 34.56 
L 139.185 34.56 
z
" style="fill:#ffd700;fill-opacity:0.1;"/>
   </g>
   <g id="PolyCollection_3">
    <path clip-path="url(#p9175693291)" d="M 804.6 34.56 
L 804.6 252 
L 808.785 252 
L 812.97 252 
L 817.155 252 
L 821.34 252 
L 825.525 252 
L 829.71 252 
L 833.895 252 
L 838.08 252 
L 842.265 252 
L 846.45 252 
L 850.635 252 
L 854.82 252 
L 859.005 252 
L 863.19 252 
L 867.375 252 
L 871.56 252 
L 875.745 252 
L 879.93 252 
L 884.115 252 
L 888.3 252 
L 892.485 252 
L 896.67 252 
L 900.855 252 
L 905.04 252 
L 909.225 252 
L 913.41 252 
L 917.595 252 
L 921.78 252 
L 925.965 252 
L 930.15 252 
L 934.335 252 
L 938.52 252 
L 942.705 252 
L 946.89 252 
L 951.075 252 
L 955.26 252 
L 959.445 252 
L 963.63 252 
L 967.815 252 
L 972 252 
L 972 34.56 
L 972 34.56 
L 967.815 34.56 
L 963.63 34.56 
L 959.445 34.56 
L 955.26 34.56 
L 951.075 34.56 
L 946.89 34.56 
L 942.705 34.56 
L 938.52 34.56 
L 934.335 34.56 
L 930.15 34.56 
L 925.965 34.56 
L 921.78 34.56 
L 917.595 34.56 
L 913.41 34.56 
L 909.225 34.56 
L 905.04 34.56 
L 900.855 34.56 
L 896.67 34.56 
L 892.485 34.56 
L 888.3 34.56 
L 884.115 34.56 
L 879.93 34.56 
L 875.745 34.56 
L 871.56 34.56 
L 867.375 34.56 
L 863.19 34.56 
L 859.005 34.56 
L 854.82 34.56 
L 850.635 34.56 
L 846.45 34.56 
L 842.265 34.56 
L 838.08 34.56 
L 833.895 34.56 
L 829.71 34.56 
L 825.525 34.56 
L 821.34 34.56 
L 817.155 34.56 
L 812.97 34.56 
L 808.785 34.56 
L 804.6 34.56 
z
" style="fill:#ff0000;fill-opacity:0.2;"/>
   </g>
   <g id="matplotlib.axis_1">
    <g id="xtick_1">
     <g id="line2d_1">
      <defs>
       <path d="M 0 0 
L 0 3.5 
" id="m7d5f7ffd0b" style="stroke:#000000;stroke-width:0.8;"/>
      </defs>
      <g>
       <use style="stroke:#000000;stroke-width:0.8;" x="135" xlink:href="#m7d5f7ffd0b" y="252"/>
      </g>
     </g>
     <g id="text_1">
      <!-- 0 -->
      <defs>
       <path d="M 31.78125 66.40625 
Q 24.171875 66.40625 20.328125 58.90625 
Q 16.5 51.421875 16.5 36.375 
Q 16.5 21.390625 20.328125 13.890625 
Q 24.171875 6.390625 31.78125 6.390625 
Q 39.453125 6.390625 43.28125 13.890625 
Q 47.125 21.390625 47.125 36.375 
Q 47.125 51.421875 43.28125 58.90625 
Q 39.453125 66.40625 31.78125 66.40625 
z
M 31.78125 74.21875 
Q 44.046875 74.21875 50.515625 64.515625 
Q 56.984375 54.828125 56.984375 36.375 
Q 56.984375 17.96875 50.515625 8.265625 
Q 44.046875 -1.421875 31.78125 -1.421875 
Q 19.53125 -1.421875 13.0625 8.265625 
Q 6.59375 17.96875 6.59375 36.375 
Q 6.59375 54.828125 13.0625 64.515625 
Q 19.53125 74.21875 31.78125 74.21875 
z
" id="DejaVuSans-48"/>
      </defs>
      <g transform="translate(128.00125 275.716563)scale(0.22 -0.22)">
       <use xlink:href="#DejaVuSans-48"/>
      </g>
     </g>
    </g>
    <g id="xtick_2">
     <g id="line2d_2">
      <g>
       <use style="stroke:#000000;stroke-width:0.8;" x="302.4" xlink:href="#m7d5f7ffd0b" y="252"/>
      </g>
     </g>
     <g id="text_2">
      <!-- 40 -->
      <defs>
       <path d="M 37.796875 64.3125 
L 12.890625 25.390625 
L 37.796875 25.390625 
z
M 35.203125 72.90625 
L 47.609375 72.90625 
L 47.609375 25.390625 
L 58.015625 25.390625 
L 58.015625 17.1875 
L 47.609375 17.1875 
L 47.609375 0 
L 37.796875 0 
L 37.796875 17.1875 
L 4.890625 17.1875 
L 4.890625 26.703125 
z
" id="DejaVuSans-52"/>
      </defs>
      <g transform="translate(288.4025 275.716563)scale(0.22 -0.22)">
       <use xlink:href="#DejaVuSans-52"/>
       <use x="63.623047" xlink:href="#DejaVuSans-48"/>
      </g>
     </g>
    </g>
    <g id="xtick_3">
     <g id="line2d_3">
      <g>
       <use style="stroke:#000000;stroke-width:0.8;" x="469.8" xlink:href="#m7d5f7ffd0b" y="252"/>
      </g>
     </g>
     <g id="text_3">
      <!-- 80 -->
      <defs>
       <path d="M 31.78125 34.625 
Q 24.75 34.625 20.71875 30.859375 
Q 16.703125 27.09375 16.703125 20.515625 
Q 16.703125 13.921875 20.71875 10.15625 
Q 24.75 6.390625 31.78125 6.390625 
Q 38.8125 6.390625 42.859375 10.171875 
Q 46.921875 13.96875 46.921875 20.515625 
Q 46.921875 27.09375 42.890625 30.859375 
Q 38.875 34.625 31.78125 34.625 
z
M 21.921875 38.8125 
Q 15.578125 40.375 12.03125 44.71875 
Q 8.5 49.078125 8.5 55.328125 
Q 8.5 64.0625 14.71875 69.140625 
Q 20.953125 74.21875 31.78125 74.21875 
Q 42.671875 74.21875 48.875 69.140625 
Q 55.078125 64.0625 55.078125 55.328125 
Q 55.078125 49.078125 51.53125 44.71875 
Q 48 40.375 41.703125 38.8125 
Q 48.828125 37.15625 52.796875 32.3125 
Q 56.78125 27.484375 56.78125 20.515625 
Q 56.78125 9.90625 50.3125 4.234375 
Q 43.84375 -1.421875 31.78125 -1.421875 
Q 19.734375 -1.421875 13.25 4.234375 
Q 6.78125 9.90625 6.78125 20.515625 
Q 6.78125 27.484375 10.78125 32.3125 
Q 14.796875 37.15625 21.921875 38.8125 
z
M 18.3125 54.390625 
Q 18.3125 48.734375 21.84375 45.5625 
Q 25.390625 42.390625 31.78125 42.390625 
Q 38.140625 42.390625 41.71875 45.5625 
Q 45.3125 48.734375 45.3125 54.390625 
Q 45.3125 60.0625 41.71875 63.234375 
Q 38.140625 66.40625 31.78125 66.40625 
Q 25.390625 66.40625 21.84375 63.234375 
Q 18.3125 60.0625 18.3125 54.390625 
z
" id="DejaVuSans-56"/>
      </defs>
      <g transform="translate(455.8025 275.716563)scale(0.22 -0.22)">
       <use xlink:href="#DejaVuSans-56"/>
       <use x="63.623047" xlink:href="#DejaVuSans-48"/>
      </g>
     </g>
    </g>
    <g id="xtick_4">
     <g id="line2d_4">
      <g>
       <use style="stroke:#000000;stroke-width:0.8;" x="637.2" xlink:href="#m7d5f7ffd0b" y="252"/>
      </g>
     </g>
     <g id="text_4">
      <!-- 120 -->
      <defs>
       <path d="M 12.40625 8.296875 
L 28.515625 8.296875 
L 28.515625 63.921875 
L 10.984375 60.40625 
L 10.984375 69.390625 
L 28.421875 72.90625 
L 38.28125 72.90625 
L 38.28125 8.296875 
L 54.390625 8.296875 
L 54.390625 0 
L 12.40625 0 
z
" id="DejaVuSans-49"/>
       <path d="M 19.1875 8.296875 
L 53.609375 8.296875 
L 53.609375 0 
L 7.328125 0 
L 7.328125 8.296875 
Q 12.9375 14.109375 22.625 23.890625 
Q 32.328125 33.6875 34.8125 36.53125 
Q 39.546875 41.84375 41.421875 45.53125 
Q 43.3125 49.21875 43.3125 52.78125 
Q 43.3125 58.59375 39.234375 62.25 
Q 35.15625 65.921875 28.609375 65.921875 
Q 23.96875 65.921875 18.8125 64.3125 
Q 13.671875 62.703125 7.8125 59.421875 
L 7.8125 69.390625 
Q 13.765625 71.78125 18.9375 73 
Q 24.125 74.21875 28.421875 74.21875 
Q 39.75 74.21875 46.484375 68.546875 
Q 53.21875 62.890625 53.21875 53.421875 
Q 53.21875 48.921875 51.53125 44.890625 
Q 49.859375 40.875 45.40625 35.40625 
Q 44.1875 33.984375 37.640625 27.21875 
Q 31.109375 20.453125 19.1875 8.296875 
z
" id="DejaVuSans-50"/>
      </defs>
      <g transform="translate(616.20375 275.716563)scale(0.22 -0.22)">
       <use xlink:href="#DejaVuSans-49"/>
       <use x="63.623047" xlink:href="#DejaVuSans-50"/>
       <use x="127.246094" xlink:href="#DejaVuSans-48"/>
      </g>
     </g>
    </g>
    <g id="xtick_5">
     <g id="line2d_5">
      <g>
       <use style="stroke:#000000;stroke-width:0.8;" x="804.6" xlink:href="#m7d5f7ffd0b" y="252"/>
      </g>
     </g>
     <g id="text_5">
      <!-- 160 -->
      <defs>
       <path d="M 33.015625 40.375 
Q 26.375 40.375 22.484375 35.828125 
Q 18.609375 31.296875 18.609375 23.390625 
Q 18.609375 15.53125 22.484375 10.953125 
Q 26.375 6.390625 33.015625 6.390625 
Q 39.65625 6.390625 43.53125 10.953125 
Q 47.40625 15.53125 47.40625 23.390625 
Q 47.40625 31.296875 43.53125 35.828125 
Q 39.65625 40.375 33.015625 40.375 
z
M 52.59375 71.296875 
L 52.59375 62.3125 
Q 48.875 64.0625 45.09375 64.984375 
Q 41.3125 65.921875 37.59375 65.921875 
Q 27.828125 65.921875 22.671875 59.328125 
Q 17.53125 52.734375 16.796875 39.40625 
Q 19.671875 43.65625 24.015625 45.921875 
Q 28.375 48.1875 33.59375 48.1875 
Q 44.578125 48.1875 50.953125 41.515625 
Q 57.328125 34.859375 57.328125 23.390625 
Q 57.328125 12.15625 50.6875 5.359375 
Q 44.046875 -1.421875 33.015625 -1.421875 
Q 20.359375 -1.421875 13.671875 8.265625 
Q 6.984375 17.96875 6.984375 36.375 
Q 6.984375 53.65625 15.1875 63.9375 
Q 23.390625 74.21875 37.203125 74.21875 
Q 40.921875 74.21875 44.703125 73.484375 
Q 48.484375 72.75 52.59375 71.296875 
z
" id="DejaVuSans-54"/>
      </defs>
      <g transform="translate(783.60375 275.716563)scale(0.22 -0.22)">
       <use xlink:href="#DejaVuSans-49"/>
       <use x="63.623047" xlink:href="#DejaVuSans-54"/>
       <use x="127.246094" xlink:href="#DejaVuSans-48"/>
      </g>
     </g>
    </g>
    <g id="xtick_6">
     <g id="line2d_6">
      <g>
       <use style="stroke:#000000;stroke-width:0.8;" x="972" xlink:href="#m7d5f7ffd0b" y="252"/>
      </g>
     </g>
     <g id="text_6">
      <!-- 200 -->
      <g transform="translate(951.00375 275.716563)scale(0.22 -0.22)">
       <use xlink:href="#DejaVuSans-50"/>
       <use x="63.623047" xlink:href="#DejaVuSans-48"/>
       <use x="127.246094" xlink:href="#DejaVuSans-48"/>
      </g>
     </g>
    </g>
   </g>
   <g id="matplotlib.axis_2">
    <g id="ytick_1">
     <g id="line2d_7">
      <path clip-path="url(#p9175693291)" d="M 135 249.868235 
L 972 249.868235 
" style="fill:none;stroke:#b0b0b0;stroke-linecap:square;stroke-width:0.8;"/>
     </g>
     <g id="line2d_8">
      <defs>
       <path d="M 0 0 
L -3.5 0 
" id="mee07a77eed" style="stroke:#000000;stroke-width:0.8;"/>
      </defs>
      <g>
       <use style="stroke:#000000;stroke-width:0.8;" x="135" xlink:href="#mee07a77eed" y="249.868235"/>
      </g>
     </g>
     <g id="text_7">
      <!-- 0.0 -->
      <defs>
       <path d="M 10.6875 12.40625 
L 21 12.40625 
L 21 0 
L 10.6875 0 
z
" id="DejaVuSans-46"/>
      </defs>
      <g transform="translate(93.013125 258.226517)scale(0.22 -0.22)">
       <use xlink:href="#DejaVuSans-48"/>
       <use x="63.623047" xlink:href="#DejaVuSans-46"/>
       <use x="95.410156" xlink:href="#DejaVuSans-48"/>
      </g>
     </g>
    </g>
    <g id="ytick_2">
     <g id="line2d_9">
      <path clip-path="url(#p9175693291)" d="M 135 228.550588 
L 972 228.550588 
" style="fill:none;stroke:#b0b0b0;stroke-linecap:square;stroke-width:0.8;"/>
     </g>
     <g id="line2d_10">
      <g>
       <use style="stroke:#000000;stroke-width:0.8;" x="135" xlink:href="#mee07a77eed" y="228.550588"/>
      </g>
     </g>
     <g id="text_8">
      <!-- 0.1 -->
      <g transform="translate(93.013125 236.908869)scale(0.22 -0.22)">
       <use xlink:href="#DejaVuSans-48"/>
       <use x="63.623047" xlink:href="#DejaVuSans-46"/>
       <use x="95.410156" xlink:href="#DejaVuSans-49"/>
      </g>
     </g>
    </g>
    <g id="ytick_3">
     <g id="line2d_11">
      <path clip-path="url(#p9175693291)" d="M 135 207.232941 
L 972 207.232941 
" style="fill:none;stroke:#b0b0b0;stroke-linecap:square;stroke-width:0.8;"/>
     </g>
     <g id="line2d_12">
      <g>
       <use style="stroke:#000000;stroke-width:0.8;" x="135" xlink:href="#mee07a77eed" y="207.232941"/>
      </g>
     </g>
     <g id="text_9">
      <!-- 0.2 -->
      <g transform="translate(93.013125 215.591222)scale(0.22 -0.22)">
       <use xlink:href="#DejaVuSans-48"/>
       <use x="63.623047" xlink:href="#DejaVuSans-46"/>
       <use x="95.410156" xlink:href="#DejaVuSans-50"/>
      </g>
     </g>
    </g>
    <g id="ytick_4">
     <g id="line2d_13">
      <path clip-path="url(#p9175693291)" d="M 135 185.915294 
L 972 185.915294 
" style="fill:none;stroke:#b0b0b0;stroke-linecap:square;stroke-width:0.8;"/>
     </g>
     <g id="line2d_14">
      <g>
       <use style="stroke:#000000;stroke-width:0.8;" x="135" xlink:href="#mee07a77eed" y="185.915294"/>
      </g>
     </g>
     <g id="text_10">
      <!-- 0.3 -->
      <defs>
       <path d="M 40.578125 39.3125 
Q 47.65625 37.796875 51.625 33 
Q 55.609375 28.21875 55.609375 21.1875 
Q 55.609375 10.40625 48.1875 4.484375 
Q 40.765625 -1.421875 27.09375 -1.421875 
Q 22.515625 -1.421875 17.65625 -0.515625 
Q 12.796875 0.390625 7.625 2.203125 
L 7.625 11.71875 
Q 11.71875 9.328125 16.59375 8.109375 
Q 21.484375 6.890625 26.8125 6.890625 
Q 36.078125 6.890625 40.9375 10.546875 
Q 45.796875 14.203125 45.796875 21.1875 
Q 45.796875 27.640625 41.28125 31.265625 
Q 36.765625 34.90625 28.71875 34.90625 
L 20.21875 34.90625 
L 20.21875 43.015625 
L 29.109375 43.015625 
Q 36.375 43.015625 40.234375 45.921875 
Q 44.09375 48.828125 44.09375 54.296875 
Q 44.09375 59.90625 40.109375 62.90625 
Q 36.140625 65.921875 28.71875 65.921875 
Q 24.65625 65.921875 20.015625 65.03125 
Q 15.375 64.15625 9.8125 62.3125 
L 9.8125 71.09375 
Q 15.4375 72.65625 20.34375 73.4375 
Q 25.25 74.21875 29.59375 74.21875 
Q 40.828125 74.21875 47.359375 69.109375 
Q 53.90625 64.015625 53.90625 55.328125 
Q 53.90625 49.265625 50.4375 45.09375 
Q 46.96875 40.921875 40.578125 39.3125 
z
" id="DejaVuSans-51"/>
      </defs>
      <g transform="translate(93.013125 194.273575)scale(0.22 -0.22)">
       <use xlink:href="#DejaVuSans-48"/>
       <use x="63.623047" xlink:href="#DejaVuSans-46"/>
       <use x="95.410156" xlink:href="#DejaVuSans-51"/>
      </g>
     </g>
    </g>
    <g id="ytick_5">
     <g id="line2d_15">
      <path clip-path="url(#p9175693291)" d="M 135 164.597647 
L 972 164.597647 
" style="fill:none;stroke:#b0b0b0;stroke-linecap:square;stroke-width:0.8;"/>
     </g>
     <g id="line2d_16">
      <g>
       <use style="stroke:#000000;stroke-width:0.8;" x="135" xlink:href="#mee07a77eed" y="164.597647"/>
      </g>
     </g>
     <g id="text_11">
      <!-- 0.4 -->
      <g transform="translate(93.013125 172.955928)scale(0.22 -0.22)">
       <use xlink:href="#DejaVuSans-48"/>
       <use x="63.623047" xlink:href="#DejaVuSans-46"/>
       <use x="95.410156" xlink:href="#DejaVuSans-52"/>
      </g>
     </g>
    </g>
    <g id="ytick_6">
     <g id="line2d_17">
      <path clip-path="url(#p9175693291)" d="M 135 143.28 
L 972 143.28 
" style="fill:none;stroke:#b0b0b0;stroke-linecap:square;stroke-width:0.8;"/>
     </g>
     <g id="line2d_18">
      <g>
       <use style="stroke:#000000;stroke-width:0.8;" x="135" xlink:href="#mee07a77eed" y="143.28"/>
      </g>
     </g>
     <g id="text_12">
      <!-- 0.5 -->
      <defs>
       <path d="M 10.796875 72.90625 
L 49.515625 72.90625 
L 49.515625 64.59375 
L 19.828125 64.59375 
L 19.828125 46.734375 
Q 21.96875 47.46875 24.109375 47.828125 
Q 26.265625 48.1875 28.421875 48.1875 
Q 40.625 48.1875 47.75 41.5 
Q 54.890625 34.8125 54.890625 23.390625 
Q 54.890625 11.625 47.5625 5.09375 
Q 40.234375 -1.421875 26.90625 -1.421875 
Q 22.3125 -1.421875 17.546875 -0.640625 
Q 12.796875 0.140625 7.71875 1.703125 
L 7.71875 11.625 
Q 12.109375 9.234375 16.796875 8.0625 
Q 21.484375 6.890625 26.703125 6.890625 
Q 35.15625 6.890625 40.078125 11.328125 
Q 45.015625 15.765625 45.015625 23.390625 
Q 45.015625 31 40.078125 35.4375 
Q 35.15625 39.890625 26.703125 39.890625 
Q 22.75 39.890625 18.8125 39.015625 
Q 14.890625 38.140625 10.796875 36.28125 
z
" id="DejaVuSans-53"/>
      </defs>
      <g transform="translate(93.013125 151.638281)scale(0.22 -0.22)">
       <use xlink:href="#DejaVuSans-48"/>
       <use x="63.623047" xlink:href="#DejaVuSans-46"/>
       <use x="95.410156" xlink:href="#DejaVuSans-53"/>
      </g>
     </g>
    </g>
    <g id="ytick_7">
     <g id="line2d_19">
      <path clip-path="url(#p9175693291)" d="M 135 121.962353 
L 972 121.962353 
" style="fill:none;stroke:#b0b0b0;stroke-linecap:square;stroke-width:0.8;"/>
     </g>
     <g id="line2d_20">
      <g>
       <use style="stroke:#000000;stroke-width:0.8;" x="135" xlink:href="#mee07a77eed" y="121.962353"/>
      </g>
     </g>
     <g id="text_13">
      <!-- 0.6 -->
      <g transform="translate(93.013125 130.320634)scale(0.22 -0.22)">
       <use xlink:href="#DejaVuSans-48"/>
       <use x="63.623047" xlink:href="#DejaVuSans-46"/>
       <use x="95.410156" xlink:href="#DejaVuSans-54"/>
      </g>
     </g>
    </g>
    <g id="ytick_8">
     <g id="line2d_21">
      <path clip-path="url(#p9175693291)" d="M 135 100.644706 
L 972 100.644706 
" style="fill:none;stroke:#b0b0b0;stroke-linecap:square;stroke-width:0.8;"/>
     </g>
     <g id="line2d_22">
      <g>
       <use style="stroke:#000000;stroke-width:0.8;" x="135" xlink:href="#mee07a77eed" y="100.644706"/>
      </g>
     </g>
     <g id="text_14">
      <!-- 0.7 -->
      <defs>
       <path d="M 8.203125 72.90625 
L 55.078125 72.90625 
L 55.078125 68.703125 
L 28.609375 0 
L 18.3125 0 
L 43.21875 64.59375 
L 8.203125 64.59375 
z
" id="DejaVuSans-55"/>
      </defs>
      <g transform="translate(93.013125 109.002987)scale(0.22 -0.22)">
       <use xlink:href="#DejaVuSans-48"/>
       <use x="63.623047" xlink:href="#DejaVuSans-46"/>
       <use x="95.410156" xlink:href="#DejaVuSans-55"/>
      </g>
     </g>
    </g>
    <g id="ytick_9">
     <g id="line2d_23">
      <path clip-path="url(#p9175693291)" d="M 135 79.327059 
L 972 79.327059 
" style="fill:none;stroke:#b0b0b0;stroke-linecap:square;stroke-width:0.8;"/>
     </g>
     <g id="line2d_24">
      <g>
       <use style="stroke:#000000;stroke-width:0.8;" x="135" xlink:href="#mee07a77eed" y="79.327059"/>
      </g>
     </g>
     <g id="text_15">
      <!-- 0.8 -->
      <g transform="translate(93.013125 87.68534)scale(0.22 -0.22)">
       <use xlink:href="#DejaVuSans-48"/>
       <use x="63.623047" xlink:href="#DejaVuSans-46"/>
       <use x="95.410156" xlink:href="#DejaVuSans-56"/>
      </g>
     </g>
    </g>
    <g id="ytick_10">
     <g id="line2d_25">
      <path clip-path="url(#p9175693291)" d="M 135 58.009412 
L 972 58.009412 
" style="fill:none;stroke:#b0b0b0;stroke-linecap:square;stroke-width:0.8;"/>
     </g>
     <g id="line2d_26">
      <g>
       <use style="stroke:#000000;stroke-width:0.8;" x="135" xlink:href="#mee07a77eed" y="58.009412"/>
      </g>
     </g>
     <g id="text_16">
      <!-- 0.9 -->
      <defs>
       <path d="M 10.984375 1.515625 
L 10.984375 10.5 
Q 14.703125 8.734375 18.5 7.8125 
Q 22.3125 6.890625 25.984375 6.890625 
Q 35.75 6.890625 40.890625 13.453125 
Q 46.046875 20.015625 46.78125 33.40625 
Q 43.953125 29.203125 39.59375 26.953125 
Q 35.25 24.703125 29.984375 24.703125 
Q 19.046875 24.703125 12.671875 31.3125 
Q 6.296875 37.9375 6.296875 49.421875 
Q 6.296875 60.640625 12.9375 67.421875 
Q 19.578125 74.21875 30.609375 74.21875 
Q 43.265625 74.21875 49.921875 64.515625 
Q 56.59375 54.828125 56.59375 36.375 
Q 56.59375 19.140625 48.40625 8.859375 
Q 40.234375 -1.421875 26.421875 -1.421875 
Q 22.703125 -1.421875 18.890625 -0.6875 
Q 15.09375 0.046875 10.984375 1.515625 
z
M 30.609375 32.421875 
Q 37.25 32.421875 41.125 36.953125 
Q 45.015625 41.5 45.015625 49.421875 
Q 45.015625 57.28125 41.125 61.84375 
Q 37.25 66.40625 30.609375 66.40625 
Q 23.96875 66.40625 20.09375 61.84375 
Q 16.21875 57.28125 16.21875 49.421875 
Q 16.21875 41.5 20.09375 36.953125 
Q 23.96875 32.421875 30.609375 32.421875 
z
" id="DejaVuSans-57"/>
      </defs>
      <g transform="translate(93.013125 66.367693)scale(0.22 -0.22)">
       <use xlink:href="#DejaVuSans-48"/>
       <use x="63.623047" xlink:href="#DejaVuSans-46"/>
       <use x="95.410156" xlink:href="#DejaVuSans-57"/>
      </g>
     </g>
    </g>
    <g id="ytick_11">
     <g id="line2d_27">
      <path clip-path="url(#p9175693291)" d="M 135 36.691765 
L 972 36.691765 
" style="fill:none;stroke:#b0b0b0;stroke-linecap:square;stroke-width:0.8;"/>
     </g>
     <g id="line2d_28">
      <g>
       <use style="stroke:#000000;stroke-width:0.8;" x="135" xlink:href="#mee07a77eed" y="36.691765"/>
      </g>
     </g>
     <g id="text_17">
      <!-- 1.0 -->
      <g transform="translate(93.013125 45.050046)scale(0.22 -0.22)">
       <use xlink:href="#DejaVuSans-49"/>
       <use x="63.623047" xlink:href="#DejaVuSans-46"/>
       <use x="95.410156" xlink:href="#DejaVuSans-48"/>
      </g>
     </g>
    </g>
   </g>
   <g id="line2d_29">
    <path clip-path="url(#p9175693291)" d="M 139.185 156.603529 
L 143.37 126.287673 
L 147.555 131.436863 
L 151.74 158.038371 
L 155.925 106.815604 
L 160.11 150.580564 
L 164.295 92.303018 
L 168.48 100.068553 
L 172.665 96.255779 
L 176.85 120.233895 
L 181.035 93.738989 
L 185.22 123.114658 
L 189.405 94.830802 
L 193.59 117.01913 
L 197.775 110.382397 
L 201.96 123.294706 
L 206.145 111.753902 
L 210.33 118.035418 
L 214.515 76.855448 
L 218.7 126.76633 
L 222.885 104.661074 
L 227.07 136.820107 
L 231.255 105.748931 
L 235.44 112.617631 
L 239.625 118.916975 
L 243.81 131.098487 
L 247.995 100.326532 
L 252.18 126.625588 
L 256.365 108.710843 
L 260.55 128.876184 
L 264.735 81.911016 
L 268.92 108.843801 
L 273.105 118.916975 
L 277.29 126.450279 
L 281.475 96.255779 
L 285.66 143.28 
L 289.845 102.746446 
L 294.03 144.824757 
L 298.215 125.007731 
L 302.4 120.233895 
L 306.585 105.564163 
L 310.77 132.466701 
L 314.955 104.661074 
L 319.14 125.780439 
L 323.325 109.871747 
L 327.51 128.962177 
L 331.695 108.710843 
L 335.88 134.865139 
L 340.065 91.426264 
L 344.25 113.672157 
L 348.435 98.482046 
L 352.62 119.963824 
L 356.805 115.871597 
L 360.99 105.660623 
L 365.175 110.840102 
L 369.36 132.771301 
L 373.545 115.773359 
L 377.73 113.053486 
L 381.915 91.426264 
L 386.1 118.916975 
L 390.285 83.034476 
L 394.47 110.592941 
L 398.655 89.985882 
L 402.84 105.458368 
L 407.025 94.502333 
L 411.21 124.059171 
L 415.395 105.904905 
L 419.58 129.956471 
L 423.765 111.441956 
L 427.95 118.458082 
L 432.135 94.55395 
L 436.32 92.176052 
L 440.505 101.57156 
L 444.69 115.537857 
L 448.875 93.738989 
L 453.06 112.617631 
L 457.245 99.596297 
L 461.43 104.366835 
L 465.615 88.463193 
L 469.8 107.750588 
L 473.985 95.907451 
L 478.17 116.632941 
L 482.355 108.795571 
L 486.54 102.525675 
L 490.725 102.525675 
L 494.91 136.174118 
L 499.095 83.034476 
L 503.28 117.353132 
L 507.465 87.734018 
L 511.65 113.435294 
L 515.835 120.90963 
L 520.02 106.77718 
L 524.205 80.988174 
L 528.39 99.551493 
L 532.575 94.55395 
L 536.76 98.016503 
L 540.945 100.644706 
L 545.13 112.425511 
L 549.315 113.929616 
L 553.5 80.581038 
L 557.685 95.392532 
L 561.87 92.176052 
L 566.055 84.41784 
L 570.24 71.638727 
L 574.425 99.390727 
L 578.61 97.144794 
L 582.795 104.661074 
L 586.98 106.690009 
L 591.165 103.690084 
L 595.35 103.50827 
L 599.535 98.868235 
L 603.72 106.690009 
L 607.905 108.751417 
L 612.09 116.277647 
L 616.275 105.748931 
L 620.46 107.750588 
L 624.645 100.326532 
L 628.83 123.198159 
L 633.015 82.606697 
L 637.2 113.302059 
L 641.385 101.57156 
L 645.57 102.84998 
L 649.755 111.441956 
L 653.94 79.944962 
L 658.125 105.830079 
L 662.31 100.068553 
L 666.495 105.748931 
L 670.68 106.735462 
L 674.865 93.12083 
L 679.05 99.74396 
L 683.235 75.724076 
L 687.42 111.930519 
L 691.605 104.661074 
L 695.79 105.017557 
L 699.975 100.326532 
L 704.16 105.830079 
L 708.345 109.871747 
L 712.53 100.068553 
L 716.715 103.690084 
L 720.9 106.690009 
L 725.085 95.392532 
L 729.27 82.783975 
L 733.455 84.41784 
L 737.64 93.12083 
L 741.825 104.520642 
L 746.01 85.886335 
L 750.195 104.908235 
L 754.38 80.495149 
L 758.565 93.538824 
L 762.75 107.750588 
L 766.935 94.830802 
L 771.12 86.3356 
L 775.305 100.068553 
L 779.49 95.143378 
L 783.675 99.855163 
L 787.86 115.065467 
L 792.045 115.537857 
L 796.23 99.74396 
L 800.415 91.508571 
L 804.6 99.004887 
L 808.785 119.882582 
L 812.97 85.544706 
L 817.155 100.191139 
L 821.34 110.840102 
L 825.525 91.1198 
L 829.71 107.750588 
L 833.895 105.974118 
L 838.08 117.225098 
L 842.265 99.675722 
L 846.45 122.869487 
L 850.635 121.962353 
L 854.82 87.448067 
L 859.005 91.1198 
L 863.19 88.686026 
L 867.375 140.399237 
L 871.56 115.474373 
L 875.745 86.850934 
L 879.93 102.674958 
L 884.115 112.191765 
L 888.3 126.699608 
L 892.485 115.001489 
L 896.67 95.210796 
L 900.855 112.191765 
L 905.04 119.882582 
L 909.225 112.191765 
L 913.41 121.962353 
L 917.595 95.210796 
L 921.78 109.262478 
L 925.965 127.48915 
L 930.15 91.352398 
L 934.335 91.1198 
L 938.52 97.599328 
L 942.705 89.985882 
L 946.89 89.985882 
L 951.075 84.064314 
L 955.26 103.013333 
L 959.445 94.427059 
L 963.63 89.985882 
L 967.815 140.546968 
L 972 107.750588 
L 972 107.750588 
" style="fill:none;stroke:#800080;stroke-linecap:square;stroke-width:3;"/>
   </g>
   <g id="line2d_30">
    <path clip-path="url(#p9175693291)" d="M 135 143.28 
L 972 143.28 
" style="fill:none;stroke:#000000;stroke-dasharray:5.55,2.4;stroke-dashoffset:0;stroke-width:1.5;"/>
   </g>
   <g id="patch_3">
    <path d="M 135 252 
L 135 34.56 
" style="fill:none;stroke:#000000;stroke-linecap:square;stroke-linejoin:miter;stroke-width:0.8;"/>
   </g>
   <g id="patch_4">
    <path d="M 972 252 
L 972 34.56 
" style="fill:none;stroke:#000000;stroke-linecap:square;stroke-linejoin:miter;stroke-width:0.8;"/>
   </g>
   <g id="patch_5">
    <path d="M 135 252 
L 972 252 
" style="fill:none;stroke:#000000;stroke-linecap:square;stroke-linejoin:miter;stroke-width:0.8;"/>
   </g>
   <g id="patch_6">
    <path d="M 135 34.56 
L 972 34.56 
" style="fill:none;stroke:#000000;stroke-linecap:square;stroke-linejoin:miter;stroke-width:0.8;"/>
   </g>
   <g id="text_18">
    <!-- group_csw1000boldmdp.05.09.19-avgwi_story-N_31(52) -->
    <defs>
     <path d="M 45.40625 27.984375 
Q 45.40625 37.75 41.375 43.109375 
Q 37.359375 48.484375 30.078125 48.484375 
Q 22.859375 48.484375 18.828125 43.109375 
Q 14.796875 37.75 14.796875 27.984375 
Q 14.796875 18.265625 18.828125 12.890625 
Q 22.859375 7.515625 30.078125 7.515625 
Q 37.359375 7.515625 41.375 12.890625 
Q 45.40625 18.265625 45.40625 27.984375 
z
M 54.390625 6.78125 
Q 54.390625 -7.171875 48.1875 -13.984375 
Q 42 -20.796875 29.203125 -20.796875 
Q 24.46875 -20.796875 20.265625 -20.09375 
Q 16.0625 -19.390625 12.109375 -17.921875 
L 12.109375 -9.1875 
Q 16.0625 -11.328125 19.921875 -12.34375 
Q 23.78125 -13.375 27.78125 -13.375 
Q 36.625 -13.375 41.015625 -8.765625 
Q 45.40625 -4.15625 45.40625 5.171875 
L 45.40625 9.625 
Q 42.625 4.78125 38.28125 2.390625 
Q 33.9375 0 27.875 0 
Q 17.828125 0 11.671875 7.65625 
Q 5.515625 15.328125 5.515625 27.984375 
Q 5.515625 40.671875 11.671875 48.328125 
Q 17.828125 56 27.875 56 
Q 33.9375 56 38.28125 53.609375 
Q 42.625 51.21875 45.40625 46.390625 
L 45.40625 54.6875 
L 54.390625 54.6875 
z
" id="DejaVuSans-103"/>
     <path d="M 41.109375 46.296875 
Q 39.59375 47.171875 37.8125 47.578125 
Q 36.03125 48 33.890625 48 
Q 26.265625 48 22.1875 43.046875 
Q 18.109375 38.09375 18.109375 28.8125 
L 18.109375 0 
L 9.078125 0 
L 9.078125 54.6875 
L 18.109375 54.6875 
L 18.109375 46.1875 
Q 20.953125 51.171875 25.484375 53.578125 
Q 30.03125 56 36.53125 56 
Q 37.453125 56 38.578125 55.875 
Q 39.703125 55.765625 41.0625 55.515625 
z
" id="DejaVuSans-114"/>
     <path d="M 30.609375 48.390625 
Q 23.390625 48.390625 19.1875 42.75 
Q 14.984375 37.109375 14.984375 27.296875 
Q 14.984375 17.484375 19.15625 11.84375 
Q 23.34375 6.203125 30.609375 6.203125 
Q 37.796875 6.203125 41.984375 11.859375 
Q 46.1875 17.53125 46.1875 27.296875 
Q 46.1875 37.015625 41.984375 42.703125 
Q 37.796875 48.390625 30.609375 48.390625 
z
M 30.609375 56 
Q 42.328125 56 49.015625 48.375 
Q 55.71875 40.765625 55.71875 27.296875 
Q 55.71875 13.875 49.015625 6.21875 
Q 42.328125 -1.421875 30.609375 -1.421875 
Q 18.84375 -1.421875 12.171875 6.21875 
Q 5.515625 13.875 5.515625 27.296875 
Q 5.515625 40.765625 12.171875 48.375 
Q 18.84375 56 30.609375 56 
z
" id="DejaVuSans-111"/>
     <path d="M 8.5 21.578125 
L 8.5 54.6875 
L 17.484375 54.6875 
L 17.484375 21.921875 
Q 17.484375 14.15625 20.5 10.265625 
Q 23.53125 6.390625 29.59375 6.390625 
Q 36.859375 6.390625 41.078125 11.03125 
Q 45.3125 15.671875 45.3125 23.6875 
L 45.3125 54.6875 
L 54.296875 54.6875 
L 54.296875 0 
L 45.3125 0 
L 45.3125 8.40625 
Q 42.046875 3.421875 37.71875 1 
Q 33.40625 -1.421875 27.6875 -1.421875 
Q 18.265625 -1.421875 13.375 4.4375 
Q 8.5 10.296875 8.5 21.578125 
z
M 31.109375 56 
z
" id="DejaVuSans-117"/>
     <path d="M 18.109375 8.203125 
L 18.109375 -20.796875 
L 9.078125 -20.796875 
L 9.078125 54.6875 
L 18.109375 54.6875 
L 18.109375 46.390625 
Q 20.953125 51.265625 25.265625 53.625 
Q 29.59375 56 35.59375 56 
Q 45.5625 56 51.78125 48.09375 
Q 58.015625 40.1875 58.015625 27.296875 
Q 58.015625 14.40625 51.78125 6.484375 
Q 45.5625 -1.421875 35.59375 -1.421875 
Q 29.59375 -1.421875 25.265625 0.953125 
Q 20.953125 3.328125 18.109375 8.203125 
z
M 48.6875 27.296875 
Q 48.6875 37.203125 44.609375 42.84375 
Q 40.53125 48.484375 33.40625 48.484375 
Q 26.265625 48.484375 22.1875 42.84375 
Q 18.109375 37.203125 18.109375 27.296875 
Q 18.109375 17.390625 22.1875 11.75 
Q 26.265625 6.109375 33.40625 6.109375 
Q 40.53125 6.109375 44.609375 11.75 
Q 48.6875 17.390625 48.6875 27.296875 
z
" id="DejaVuSans-112"/>
     <path d="M 50.984375 -16.609375 
L 50.984375 -23.578125 
L -0.984375 -23.578125 
L -0.984375 -16.609375 
z
" id="DejaVuSans-95"/>
     <path d="M 48.78125 52.59375 
L 48.78125 44.1875 
Q 44.96875 46.296875 41.140625 47.34375 
Q 37.3125 48.390625 33.40625 48.390625 
Q 24.65625 48.390625 19.8125 42.84375 
Q 14.984375 37.3125 14.984375 27.296875 
Q 14.984375 17.28125 19.8125 11.734375 
Q 24.65625 6.203125 33.40625 6.203125 
Q 37.3125 6.203125 41.140625 7.25 
Q 44.96875 8.296875 48.78125 10.40625 
L 48.78125 2.09375 
Q 45.015625 0.34375 40.984375 -0.53125 
Q 36.96875 -1.421875 32.421875 -1.421875 
Q 20.0625 -1.421875 12.78125 6.34375 
Q 5.515625 14.109375 5.515625 27.296875 
Q 5.515625 40.671875 12.859375 48.328125 
Q 20.21875 56 33.015625 56 
Q 37.15625 56 41.109375 55.140625 
Q 45.0625 54.296875 48.78125 52.59375 
z
" id="DejaVuSans-99"/>
     <path d="M 44.28125 53.078125 
L 44.28125 44.578125 
Q 40.484375 46.53125 36.375 47.5 
Q 32.28125 48.484375 27.875 48.484375 
Q 21.1875 48.484375 17.84375 46.4375 
Q 14.5 44.390625 14.5 40.28125 
Q 14.5 37.15625 16.890625 35.375 
Q 19.28125 33.59375 26.515625 31.984375 
L 29.59375 31.296875 
Q 39.15625 29.25 43.1875 25.515625 
Q 47.21875 21.78125 47.21875 15.09375 
Q 47.21875 7.46875 41.1875 3.015625 
Q 35.15625 -1.421875 24.609375 -1.421875 
Q 20.21875 -1.421875 15.453125 -0.5625 
Q 10.6875 0.296875 5.421875 2 
L 5.421875 11.28125 
Q 10.40625 8.6875 15.234375 7.390625 
Q 20.0625 6.109375 24.8125 6.109375 
Q 31.15625 6.109375 34.5625 8.28125 
Q 37.984375 10.453125 37.984375 14.40625 
Q 37.984375 18.0625 35.515625 20.015625 
Q 33.0625 21.96875 24.703125 23.78125 
L 21.578125 24.515625 
Q 13.234375 26.265625 9.515625 29.90625 
Q 5.8125 33.546875 5.8125 39.890625 
Q 5.8125 47.609375 11.28125 51.796875 
Q 16.75 56 26.8125 56 
Q 31.78125 56 36.171875 55.265625 
Q 40.578125 54.546875 44.28125 53.078125 
z
" id="DejaVuSans-115"/>
     <path d="M 4.203125 54.6875 
L 13.1875 54.6875 
L 24.421875 12.015625 
L 35.59375 54.6875 
L 46.1875 54.6875 
L 57.421875 12.015625 
L 68.609375 54.6875 
L 77.59375 54.6875 
L 63.28125 0 
L 52.6875 0 
L 40.921875 44.828125 
L 29.109375 0 
L 18.5 0 
z
" id="DejaVuSans-119"/>
     <path d="M 48.6875 27.296875 
Q 48.6875 37.203125 44.609375 42.84375 
Q 40.53125 48.484375 33.40625 48.484375 
Q 26.265625 48.484375 22.1875 42.84375 
Q 18.109375 37.203125 18.109375 27.296875 
Q 18.109375 17.390625 22.1875 11.75 
Q 26.265625 6.109375 33.40625 6.109375 
Q 40.53125 6.109375 44.609375 11.75 
Q 48.6875 17.390625 48.6875 27.296875 
z
M 18.109375 46.390625 
Q 20.953125 51.265625 25.265625 53.625 
Q 29.59375 56 35.59375 56 
Q 45.5625 56 51.78125 48.09375 
Q 58.015625 40.1875 58.015625 27.296875 
Q 58.015625 14.40625 51.78125 6.484375 
Q 45.5625 -1.421875 35.59375 -1.421875 
Q 29.59375 -1.421875 25.265625 0.953125 
Q 20.953125 3.328125 18.109375 8.203125 
L 18.109375 0 
L 9.078125 0 
L 9.078125 75.984375 
L 18.109375 75.984375 
z
" id="DejaVuSans-98"/>
     <path d="M 9.421875 75.984375 
L 18.40625 75.984375 
L 18.40625 0 
L 9.421875 0 
z
" id="DejaVuSans-108"/>
     <path d="M 45.40625 46.390625 
L 45.40625 75.984375 
L 54.390625 75.984375 
L 54.390625 0 
L 45.40625 0 
L 45.40625 8.203125 
Q 42.578125 3.328125 38.25 0.953125 
Q 33.9375 -1.421875 27.875 -1.421875 
Q 17.96875 -1.421875 11.734375 6.484375 
Q 5.515625 14.40625 5.515625 27.296875 
Q 5.515625 40.1875 11.734375 48.09375 
Q 17.96875 56 27.875 56 
Q 33.9375 56 38.25 53.625 
Q 42.578125 51.265625 45.40625 46.390625 
z
M 14.796875 27.296875 
Q 14.796875 17.390625 18.875 11.75 
Q 22.953125 6.109375 30.078125 6.109375 
Q 37.203125 6.109375 41.296875 11.75 
Q 45.40625 17.390625 45.40625 27.296875 
Q 45.40625 37.203125 41.296875 42.84375 
Q 37.203125 48.484375 30.078125 48.484375 
Q 22.953125 48.484375 18.875 42.84375 
Q 14.796875 37.203125 14.796875 27.296875 
z
" id="DejaVuSans-100"/>
     <path d="M 52 44.1875 
Q 55.375 50.25 60.0625 53.125 
Q 64.75 56 71.09375 56 
Q 79.640625 56 84.28125 50.015625 
Q 88.921875 44.046875 88.921875 33.015625 
L 88.921875 0 
L 79.890625 0 
L 79.890625 32.71875 
Q 79.890625 40.578125 77.09375 44.375 
Q 74.3125 48.1875 68.609375 48.1875 
Q 61.625 48.1875 57.5625 43.546875 
Q 53.515625 38.921875 53.515625 30.90625 
L 53.515625 0 
L 44.484375 0 
L 44.484375 32.71875 
Q 44.484375 40.625 41.703125 44.40625 
Q 38.921875 48.1875 33.109375 48.1875 
Q 26.21875 48.1875 22.15625 43.53125 
Q 18.109375 38.875 18.109375 30.90625 
L 18.109375 0 
L 9.078125 0 
L 9.078125 54.6875 
L 18.109375 54.6875 
L 18.109375 46.1875 
Q 21.1875 51.21875 25.484375 53.609375 
Q 29.78125 56 35.6875 56 
Q 41.65625 56 45.828125 52.96875 
Q 50 49.953125 52 44.1875 
z
" id="DejaVuSans-109"/>
     <path d="M 4.890625 31.390625 
L 31.203125 31.390625 
L 31.203125 23.390625 
L 4.890625 23.390625 
z
" id="DejaVuSans-45"/>
     <path d="M 34.28125 27.484375 
Q 23.390625 27.484375 19.1875 25 
Q 14.984375 22.515625 14.984375 16.5 
Q 14.984375 11.71875 18.140625 8.90625 
Q 21.296875 6.109375 26.703125 6.109375 
Q 34.1875 6.109375 38.703125 11.40625 
Q 43.21875 16.703125 43.21875 25.484375 
L 43.21875 27.484375 
z
M 52.203125 31.203125 
L 52.203125 0 
L 43.21875 0 
L 43.21875 8.296875 
Q 40.140625 3.328125 35.546875 0.953125 
Q 30.953125 -1.421875 24.3125 -1.421875 
Q 15.921875 -1.421875 10.953125 3.296875 
Q 6 8.015625 6 15.921875 
Q 6 25.140625 12.171875 29.828125 
Q 18.359375 34.515625 30.609375 34.515625 
L 43.21875 34.515625 
L 43.21875 35.40625 
Q 43.21875 41.609375 39.140625 45 
Q 35.0625 48.390625 27.6875 48.390625 
Q 23 48.390625 18.546875 47.265625 
Q 14.109375 46.140625 10.015625 43.890625 
L 10.015625 52.203125 
Q 14.9375 54.109375 19.578125 55.046875 
Q 24.21875 56 28.609375 56 
Q 40.484375 56 46.34375 49.84375 
Q 52.203125 43.703125 52.203125 31.203125 
z
" id="DejaVuSans-97"/>
     <path d="M 2.984375 54.6875 
L 12.5 54.6875 
L 29.59375 8.796875 
L 46.6875 54.6875 
L 56.203125 54.6875 
L 35.6875 0 
L 23.484375 0 
z
" id="DejaVuSans-118"/>
     <path d="M 9.421875 54.6875 
L 18.40625 54.6875 
L 18.40625 0 
L 9.421875 0 
z
M 9.421875 75.984375 
L 18.40625 75.984375 
L 18.40625 64.59375 
L 9.421875 64.59375 
z
" id="DejaVuSans-105"/>
     <path d="M 18.3125 70.21875 
L 18.3125 54.6875 
L 36.8125 54.6875 
L 36.8125 47.703125 
L 18.3125 47.703125 
L 18.3125 18.015625 
Q 18.3125 11.328125 20.140625 9.421875 
Q 21.96875 7.515625 27.59375 7.515625 
L 36.8125 7.515625 
L 36.8125 0 
L 27.59375 0 
Q 17.1875 0 13.234375 3.875 
Q 9.28125 7.765625 9.28125 18.015625 
L 9.28125 47.703125 
L 2.6875 47.703125 
L 2.6875 54.6875 
L 9.28125 54.6875 
L 9.28125 70.21875 
z
" id="DejaVuSans-116"/>
     <path d="M 32.171875 -5.078125 
Q 28.375 -14.84375 24.75 -17.8125 
Q 21.140625 -20.796875 15.09375 -20.796875 
L 7.90625 -20.796875 
L 7.90625 -13.28125 
L 13.1875 -13.28125 
Q 16.890625 -13.28125 18.9375 -11.515625 
Q 21 -9.765625 23.484375 -3.21875 
L 25.09375 0.875 
L 2.984375 54.6875 
L 12.5 54.6875 
L 29.59375 11.921875 
L 46.6875 54.6875 
L 56.203125 54.6875 
z
" id="DejaVuSans-121"/>
     <path d="M 9.8125 72.90625 
L 23.09375 72.90625 
L 55.421875 11.921875 
L 55.421875 72.90625 
L 64.984375 72.90625 
L 64.984375 0 
L 51.703125 0 
L 19.390625 60.984375 
L 19.390625 0 
L 9.8125 0 
z
" id="DejaVuSans-78"/>
     <path d="M 31 75.875 
Q 24.46875 64.65625 21.28125 53.65625 
Q 18.109375 42.671875 18.109375 31.390625 
Q 18.109375 20.125 21.3125 9.0625 
Q 24.515625 -2 31 -13.1875 
L 23.1875 -13.1875 
Q 15.875 -1.703125 12.234375 9.375 
Q 8.59375 20.453125 8.59375 31.390625 
Q 8.59375 42.28125 12.203125 53.3125 
Q 15.828125 64.359375 23.1875 75.875 
z
" id="DejaVuSans-40"/>
     <path d="M 8.015625 75.875 
L 15.828125 75.875 
Q 23.140625 64.359375 26.78125 53.3125 
Q 30.421875 42.28125 30.421875 31.390625 
Q 30.421875 20.453125 26.78125 9.375 
Q 23.140625 -1.703125 15.828125 -13.1875 
L 8.015625 -13.1875 
Q 14.5 -2 17.703125 9.0625 
Q 20.90625 20.125 20.90625 31.390625 
Q 20.90625 42.671875 17.703125 53.65625 
Q 14.5 64.65625 8.015625 75.875 
z
" id="DejaVuSans-41"/>
    </defs>
    <g transform="translate(180.051375 17.688)scale(0.264 -0.264)">
     <use xlink:href="#DejaVuSans-103"/>
     <use x="63.476562" xlink:href="#DejaVuSans-114"/>
     <use x="104.558594" xlink:href="#DejaVuSans-111"/>
     <use x="165.740234" xlink:href="#DejaVuSans-117"/>
     <use x="229.119141" xlink:href="#DejaVuSans-112"/>
     <use x="292.595703" xlink:href="#DejaVuSans-95"/>
     <use x="342.595703" xlink:href="#DejaVuSans-99"/>
     <use x="397.576172" xlink:href="#DejaVuSans-115"/>
     <use x="449.675781" xlink:href="#DejaVuSans-119"/>
     <use x="531.462891" xlink:href="#DejaVuSans-49"/>
     <use x="595.085938" xlink:href="#DejaVuSans-48"/>
     <use x="658.708984" xlink:href="#DejaVuSans-48"/>
     <use x="722.332031" xlink:href="#DejaVuSans-48"/>
     <use x="785.955078" xlink:href="#DejaVuSans-98"/>
     <use x="849.431641" xlink:href="#DejaVuSans-111"/>
     <use x="910.613281" xlink:href="#DejaVuSans-108"/>
     <use x="938.396484" xlink:href="#DejaVuSans-100"/>
     <use x="1001.873047" xlink:href="#DejaVuSans-109"/>
     <use x="1099.285156" xlink:href="#DejaVuSans-100"/>
     <use x="1162.761719" xlink:href="#DejaVuSans-112"/>
     <use x="1226.238281" xlink:href="#DejaVuSans-46"/>
     <use x="1258.025391" xlink:href="#DejaVuSans-48"/>
     <use x="1321.648438" xlink:href="#DejaVuSans-53"/>
     <use x="1385.271484" xlink:href="#DejaVuSans-46"/>
     <use x="1417.058594" xlink:href="#DejaVuSans-48"/>
     <use x="1480.681641" xlink:href="#DejaVuSans-57"/>
     <use x="1544.304688" xlink:href="#DejaVuSans-46"/>
     <use x="1576.091797" xlink:href="#DejaVuSans-49"/>
     <use x="1639.714844" xlink:href="#DejaVuSans-57"/>
     <use x="1703.337891" xlink:href="#DejaVuSans-45"/>
     <use x="1739.421875" xlink:href="#DejaVuSans-97"/>
     <use x="1800.701172" xlink:href="#DejaVuSans-118"/>
     <use x="1859.880859" xlink:href="#DejaVuSans-103"/>
     <use x="1923.357422" xlink:href="#DejaVuSans-119"/>
     <use x="2005.144531" xlink:href="#DejaVuSans-105"/>
     <use x="2032.927734" xlink:href="#DejaVuSans-95"/>
     <use x="2082.927734" xlink:href="#DejaVuSans-115"/>
     <use x="2135.027344" xlink:href="#DejaVuSans-116"/>
     <use x="2174.236328" xlink:href="#DejaVuSans-111"/>
     <use x="2235.417969" xlink:href="#DejaVuSans-114"/>
     <use x="2276.53125" xlink:href="#DejaVuSans-121"/>
     <use x="2335.695312" xlink:href="#DejaVuSans-45"/>
     <use x="2371.779297" xlink:href="#DejaVuSans-78"/>
     <use x="2446.583984" xlink:href="#DejaVuSans-95"/>
     <use x="2496.583984" xlink:href="#DejaVuSans-51"/>
     <use x="2560.207031" xlink:href="#DejaVuSans-49"/>
     <use x="2623.830078" xlink:href="#DejaVuSans-40"/>
     <use x="2662.84375" xlink:href="#DejaVuSans-53"/>
     <use x="2726.466797" xlink:href="#DejaVuSans-50"/>
     <use x="2790.089844" xlink:href="#DejaVuSans-41"/>
    </g>
   </g>
  </g>
 </g>
 <defs>
  <clipPath id="p9175693291">
   <rect height="217.44" width="837" x="135" y="34.56"/>
  </clipPath>
 </defs>
</svg>
