<?xml version="1.0" encoding="utf-8" standalone="no"?>
<!DOCTYPE svg PUBLIC "-//W3C//DTD SVG 1.1//EN"
  "http://www.w3.org/Graphics/SVG/1.1/DTD/svg11.dtd">
<!-- Created with matplotlib (https://matplotlib.org/) -->
<svg height="288pt" version="1.1" viewBox="0 0 1080 288" width="1080pt" xmlns="http://www.w3.org/2000/svg" xmlns:xlink="http://www.w3.org/1999/xlink">
 <defs>
  <style type="text/css">
*{stroke-linecap:butt;stroke-linejoin:round;white-space:pre;}
  </style>
 </defs>
 <g id="figure_1">
  <g id="patch_1">
   <path d="M 0 288 
L 1080 288 
L 1080 0 
L 0 0 
z
" style="fill:#ffffff;"/>
  </g>
  <g id="axes_1">
   <g id="patch_2">
    <path d="M 135 252 
L 972 252 
L 972 34.56 
L 135 34.56 
z
" style="fill:#ffffff;"/>
   </g>
   <g id="PolyCollection_1">
    <path clip-path="url(#pcc9e30c330)" d="M 139.185 156.773576 
L 139.185 185.054398 
L 143.37 134.478163 
L 147.555 161.71344 
L 151.74 140.147596 
L 155.925 149.985373 
L 160.11 141.629459 
L 164.295 142.945456 
L 168.48 156.260989 
L 172.665 147.831408 
L 176.85 159.720392 
L 181.035 154.231175 
L 185.22 135.039746 
L 189.405 150.002198 
L 193.59 151.893803 
L 197.775 130.548914 
L 201.96 166.818392 
L 206.145 113.001828 
L 210.33 160.701836 
L 214.515 128.957398 
L 218.7 114.618261 
L 222.885 138.387734 
L 227.07 150.002198 
L 231.255 107.325999 
L 235.44 140.51506 
L 239.625 128.165445 
L 243.81 129.717144 
L 247.995 138.387734 
L 252.18 126.599459 
L 256.365 154.094747 
L 260.55 153.714104 
L 264.735 139.197812 
L 268.92 139.746567 
L 273.105 111.708733 
L 277.29 149.985373 
L 281.475 143.28 
L 285.66 145.807008 
L 289.845 125.297049 
L 294.03 162.677357 
L 298.215 143.85395 
L 302.4 128.053109 
L 306.585 121.554274 
L 310.77 119.777483 
L 314.955 151.781786 
L 319.14 144.530805 
L 323.325 132.480676 
L 327.51 126.337644 
L 331.695 121.962353 
L 335.88 141.256605 
L 340.065 131.465304 
L 344.25 148.257438 
L 348.435 115.988573 
L 352.62 131.902979 
L 356.805 127.290311 
L 360.99 137.429015 
L 365.175 113.226024 
L 369.36 143.28 
L 373.545 141.629459 
L 377.73 145.987226 
L 381.915 124.129102 
L 386.1 128.230589 
L 390.285 118.8678 
L 394.47 148.03492 
L 398.655 129.834853 
L 402.84 140.852706 
L 407.025 125.085747 
L 411.21 119.777483 
L 415.395 130.548914 
L 419.58 147.939712 
L 423.765 118.637268 
L 427.95 133.205196 
L 432.135 139.746567 
L 436.32 126.599459 
L 440.505 128.971874 
L 444.69 126.790395 
L 448.875 133.205196 
L 453.06 118.637268 
L 457.245 133.868662 
L 461.43 141.629459 
L 465.615 113.408356 
L 469.8 137.929222 
L 473.985 137.15794 
L 478.17 141.968609 
L 482.355 120.070449 
L 486.54 149.96202 
L 490.725 129.786424 
L 494.91 127.44649 
L 499.095 140.147596 
L 503.28 114.617126 
L 507.465 111.708733 
L 511.65 121.962353 
L 515.835 114.618261 
L 520.02 121.179444 
L 524.205 136.881598 
L 528.39 157.652355 
L 532.575 109.022971 
L 536.76 156.047399 
L 540.945 122.205118 
L 545.13 127.44649 
L 549.315 133.205196 
L 553.5 140.51506 
L 557.685 109.59783 
L 561.87 160.44092 
L 566.055 145.38202 
L 570.24 133.205196 
L 574.425 122.205118 
L 578.61 148.192472 
L 582.795 141.256605 
L 586.98 147.708031 
L 591.165 95.184311 
L 595.35 132.838464 
L 599.535 152.110015 
L 603.72 119.505042 
L 607.905 117.559381 
L 612.09 135.009436 
L 616.275 104.791952 
L 620.46 114.618261 
L 624.645 128.165445 
L 628.83 125.681881 
L 633.015 100.53107 
L 637.2 129.786424 
L 641.385 145.807008 
L 645.57 133.868662 
L 649.755 144.10109 
L 653.94 145.807008 
L 658.125 149.840507 
L 662.31 112.148047 
L 666.495 125.085747 
L 670.68 129.786424 
L 674.865 123.597988 
L 679.05 135.617183 
L 683.235 118.637268 
L 687.42 123.091449 
L 691.605 110.05489 
L 695.79 156.260989 
L 699.975 127.290311 
L 704.16 142.278051 
L 708.345 135.009436 
L 712.53 120.729518 
L 716.715 121.554274 
L 720.9 123.156342 
L 725.085 141.968609 
L 729.27 96.205955 
L 733.455 119.114198 
L 737.64 122.629165 
L 741.825 130.918359 
L 746.01 150.01343 
L 750.195 125.681881 
L 754.38 124.684869 
L 758.565 122.629165 
L 762.75 142.278051 
L 766.935 116.06176 
L 771.12 139.746567 
L 775.305 116.06176 
L 779.49 124.684869 
L 783.675 117.402688 
L 787.86 133.205196 
L 792.045 126.337644 
L 796.23 138.825521 
L 800.415 136.174118 
L 804.6 121.962353 
L 808.785 133.158746 
L 812.97 158.883716 
L 817.155 126.246891 
L 821.34 141.355393 
L 825.525 106.56491 
L 829.71 130.979816 
L 833.895 139.872759 
L 838.08 95.585979 
L 842.265 149.69936 
L 846.45 124.736896 
L 850.635 124.0526 
L 854.82 146.477938 
L 859.005 161.2967 
L 863.19 140.558545 
L 867.375 152.320568 
L 871.56 128.55308 
L 875.745 133.536643 
L 879.93 152.33393 
L 884.115 137.159937 
L 888.3 118.427529 
L 892.485 132.338511 
L 896.67 114.294737 
L 900.855 102.080544 
L 905.04 97.410133 
L 909.225 137.159937 
L 913.41 132.338511 
L 917.595 119.969 
L 921.78 128.55308 
L 925.965 133.932683 
L 930.15 101.445287 
L 934.335 110.557307 
L 938.52 116.299379 
L 942.705 116.299379 
L 946.89 132.338511 
L 951.075 149.165985 
L 955.26 112.046927 
L 959.445 141.687644 
L 963.63 102.080544 
L 967.815 127.134309 
L 972 129.664463 
L 972 94.196575 
L 972 94.196575 
L 967.815 92.427371 
L 963.63 72.281313 
L 959.445 108.476373 
L 955.26 79.767975 
L 951.075 112.314431 
L 946.89 96.082451 
L 942.705 82.482074 
L 938.52 82.482074 
L 934.335 80.073282 
L 930.15 66.68334 
L 925.965 95.780258 
L 921.78 94.630132 
L 917.595 88.599608 
L 913.41 96.082451 
L 909.225 102.027514 
L 905.04 68.157816 
L 900.855 72.281313 
L 896.67 82.506749 
L 892.485 96.082451 
L 888.3 85.23051 
L 884.115 102.027514 
L 879.93 113.596089 
L 875.745 98.20655 
L 871.56 94.630132 
L 867.375 117.841242 
L 863.19 105.670771 
L 859.005 125.2633 
L 854.82 111.274431 
L 850.635 91.448576 
L 846.45 90.76428 
L 842.265 116.558119 
L 838.08 65.576097 
L 833.895 104.051947 
L 829.71 96.364498 
L 825.525 73.406855 
L 821.34 102.569313 
L 817.155 92.994224 
L 812.97 121.216391 
L 808.785 100.107137 
L 804.6 93.538824 
L 800.415 107.750588 
L 796.23 108.579617 
L 792.045 97.523394 
L 787.86 104.160234 
L 783.675 90.203064 
L 779.49 96.282371 
L 775.305 88.50729 
L 771.12 110.613655 
L 766.935 88.50729 
L 762.75 113.828167 
L 758.565 95.409827 
L 754.38 96.282371 
L 750.195 97.71472 
L 746.01 121.844745 
L 741.825 98.447954 
L 737.64 95.409827 
L 733.455 90.702272 
L 729.27 70.975222 
L 725.085 113.009691 
L 720.9 97.00443 
L 716.715 93.946902 
L 712.53 91.871299 
L 708.345 105.571325 
L 704.16 113.828167 
L 699.975 98.936726 
L 695.79 126.11908 
L 691.605 82.707462 
L 687.42 95.091193 
L 683.235 91.788278 
L 679.05 106.698644 
L 674.865 94.745541 
L 670.68 101.505602 
L 666.495 97.895306 
L 662.31 87.044547 
L 658.125 118.182409 
L 653.94 116.155707 
L 649.755 115.32736 
L 645.57 105.318789 
L 641.385 116.155707 
L 637.2 101.505602 
L 633.015 75.492982 
L 628.83 97.71472 
L 624.645 100.255517 
L 620.46 87.47559 
L 616.275 79.127525 
L 612.09 105.571325 
L 607.905 89.581933 
L 603.72 93.666337 
L 599.535 121.398364 
L 595.35 105.102341 
L 591.165 71.221678 
L 586.98 117.099268 
L 582.795 111.195159 
L 578.61 120.301726 
L 574.425 95.704832 
L 570.24 104.160234 
L 566.055 114.530922 
L 561.87 130.299011 
L 557.685 84.585699 
L 553.5 112.385497 
L 549.315 104.160234 
L 545.13 100.306208 
L 540.945 95.704832 
L 536.76 126.490404 
L 532.575 82.791931 
L 528.39 128.907645 
L 524.205 107.043108 
L 520.02 94.321733 
L 515.835 87.47559 
L 511.65 93.538824 
L 507.465 84.661221 
L 503.28 88.840182 
L 499.095 111.528982 
L 494.91 100.306208 
L 490.725 101.505602 
L 486.54 120.19979 
L 482.355 92.84677 
L 478.17 113.009691 
L 473.985 109.657294 
L 469.8 109.153654 
L 465.615 88.557806 
L 461.43 112.134161 
L 457.245 105.318789 
L 453.06 91.788278 
L 448.875 104.160234 
L 444.69 100.359769 
L 440.505 101.489054 
L 436.32 99.052978 
L 432.135 110.613655 
L 427.95 104.160234 
L 423.765 91.788278 
L 419.58 118.5093 
L 415.395 102.716969 
L 411.21 93.27339 
L 407.025 97.895306 
L 402.84 113.18885 
L 398.655 100.168124 
L 394.47 119.1454 
L 390.285 91.270447 
L 386.1 101.482353 
L 381.915 96.539989 
L 377.73 116.8865 
L 373.545 112.134161 
L 369.36 112.826218 
L 365.175 86.484303 
L 360.99 108.13551 
L 356.805 98.936726 
L 352.62 104.915844 
L 348.435 89.176774 
L 344.25 120.829081 
L 340.065 102.806128 
L 335.88 111.195159 
L 331.695 93.538824 
L 327.51 97.523394 
L 323.325 102.916971 
L 319.14 116.737071 
L 314.955 124.294125 
L 310.77 93.27339 
L 306.585 93.946902 
L 302.4 98.817479 
L 298.215 114.550667 
L 294.03 134.722124 
L 289.845 96.004848 
L 285.66 116.155707 
L 281.475 112.826218 
L 277.29 120.783778 
L 273.105 84.661221 
L 268.92 110.613655 
L 264.735 111.832776 
L 260.55 125.494983 
L 256.365 124.266158 
L 252.18 99.052978 
L 247.995 110.105039 
L 243.81 102.645448 
L 239.625 100.255517 
L 235.44 112.385497 
L 231.255 80.844861 
L 227.07 121.330911 
L 222.885 110.105039 
L 218.7 87.47559 
L 214.515 100.208937 
L 210.33 132.964046 
L 206.145 84.734642 
L 201.96 138.441298 
L 197.775 102.716969 
L 193.59 123.446382 
L 189.405 121.330911 
L 185.22 107.414778 
L 181.035 123.801766 
L 176.85 130.715544 
L 172.665 117.828938 
L 168.48 126.11908 
L 164.295 111.864857 
L 160.11 112.134161 
L 155.925 120.783778 
L 151.74 111.528982 
L 147.555 129.583814 
L 143.37 106.401164 
L 139.185 156.773576 
z
" style="fill:#800080;fill-opacity:0.5;"/>
   </g>
   <g id="PolyCollection_2">
    <path clip-path="url(#pcc9e30c330)" d="M 139.185 34.56 
L 139.185 252 
L 143.37 252 
L 147.555 252 
L 151.74 252 
L 155.925 252 
L 160.11 252 
L 164.295 252 
L 168.48 252 
L 172.665 252 
L 176.85 252 
L 181.035 252 
L 185.22 252 
L 189.405 252 
L 193.59 252 
L 197.775 252 
L 201.96 252 
L 206.145 252 
L 210.33 252 
L 214.515 252 
L 218.7 252 
L 222.885 252 
L 227.07 252 
L 231.255 252 
L 235.44 252 
L 239.625 252 
L 243.81 252 
L 247.995 252 
L 252.18 252 
L 256.365 252 
L 260.55 252 
L 264.735 252 
L 268.92 252 
L 273.105 252 
L 277.29 252 
L 281.475 252 
L 285.66 252 
L 289.845 252 
L 294.03 252 
L 298.215 252 
L 302.4 252 
L 306.585 252 
L 310.77 252 
L 314.955 252 
L 319.14 252 
L 323.325 252 
L 327.51 252 
L 331.695 252 
L 335.88 252 
L 340.065 252 
L 344.25 252 
L 348.435 252 
L 352.62 252 
L 356.805 252 
L 360.99 252 
L 365.175 252 
L 369.36 252 
L 373.545 252 
L 377.73 252 
L 381.915 252 
L 386.1 252 
L 390.285 252 
L 394.47 252 
L 398.655 252 
L 402.84 252 
L 407.025 252 
L 411.21 252 
L 415.395 252 
L 419.58 252 
L 423.765 252 
L 427.95 252 
L 432.135 252 
L 436.32 252 
L 440.505 252 
L 444.69 252 
L 448.875 252 
L 453.06 252 
L 457.245 252 
L 461.43 252 
L 465.615 252 
L 469.8 252 
L 473.985 252 
L 478.17 252 
L 482.355 252 
L 486.54 252 
L 490.725 252 
L 494.91 252 
L 499.095 252 
L 503.28 252 
L 507.465 252 
L 511.65 252 
L 515.835 252 
L 520.02 252 
L 524.205 252 
L 528.39 252 
L 532.575 252 
L 536.76 252 
L 540.945 252 
L 545.13 252 
L 549.315 252 
L 553.5 252 
L 557.685 252 
L 561.87 252 
L 566.055 252 
L 570.24 252 
L 574.425 252 
L 578.61 252 
L 582.795 252 
L 586.98 252 
L 591.165 252 
L 595.35 252 
L 599.535 252 
L 603.72 252 
L 607.905 252 
L 612.09 252 
L 616.275 252 
L 620.46 252 
L 624.645 252 
L 628.83 252 
L 633.015 252 
L 637.2 252 
L 641.385 252 
L 645.57 252 
L 649.755 252 
L 653.94 252 
L 658.125 252 
L 662.31 252 
L 666.495 252 
L 670.68 252 
L 674.865 252 
L 679.05 252 
L 683.235 252 
L 687.42 252 
L 691.605 252 
L 695.79 252 
L 699.975 252 
L 704.16 252 
L 708.345 252 
L 712.53 252 
L 716.715 252 
L 720.9 252 
L 725.085 252 
L 729.27 252 
L 733.455 252 
L 737.64 252 
L 741.825 252 
L 746.01 252 
L 750.195 252 
L 754.38 252 
L 758.565 252 
L 762.75 252 
L 766.935 252 
L 771.12 252 
L 775.305 252 
L 779.49 252 
L 783.675 252 
L 787.86 252 
L 792.045 252 
L 796.23 252 
L 800.415 252 
L 804.6 252 
L 808.785 252 
L 812.97 252 
L 817.155 252 
L 821.34 252 
L 825.525 252 
L 829.71 252 
L 833.895 252 
L 838.08 252 
L 842.265 252 
L 846.45 252 
L 850.635 252 
L 854.82 252 
L 859.005 252 
L 863.19 252 
L 867.375 252 
L 871.56 252 
L 875.745 252 
L 879.93 252 
L 884.115 252 
L 888.3 252 
L 892.485 252 
L 896.67 252 
L 900.855 252 
L 905.04 252 
L 909.225 252 
L 913.41 252 
L 917.595 252 
L 921.78 252 
L 925.965 252 
L 930.15 252 
L 934.335 252 
L 938.52 252 
L 942.705 252 
L 946.89 252 
L 951.075 252 
L 955.26 252 
L 959.445 252 
L 963.63 252 
L 967.815 252 
L 972 252 
L 972 34.56 
L 972 34.56 
L 967.815 34.56 
L 963.63 34.56 
L 959.445 34.56 
L 955.26 34.56 
L 951.075 34.56 
L 946.89 34.56 
L 942.705 34.56 
L 938.52 34.56 
L 934.335 34.56 
L 930.15 34.56 
L 925.965 34.56 
L 921.78 34.56 
L 917.595 34.56 
L 913.41 34.56 
L 909.225 34.56 
L 905.04 34.56 
L 900.855 34.56 
L 896.67 34.56 
L 892.485 34.56 
L 888.3 34.56 
L 884.115 34.56 
L 879.93 34.56 
L 875.745 34.56 
L 871.56 34.56 
L 867.375 34.56 
L 863.19 34.56 
L 859.005 34.56 
L 854.82 34.56 
L 850.635 34.56 
L 846.45 34.56 
L 842.265 34.56 
L 838.08 34.56 
L 833.895 34.56 
L 829.71 34.56 
L 825.525 34.56 
L 821.34 34.56 
L 817.155 34.56 
L 812.97 34.56 
L 808.785 34.56 
L 804.6 34.56 
L 800.415 34.56 
L 796.23 34.56 
L 792.045 34.56 
L 787.86 34.56 
L 783.675 34.56 
L 779.49 34.56 
L 775.305 34.56 
L 771.12 34.56 
L 766.935 34.56 
L 762.75 34.56 
L 758.565 34.56 
L 754.38 34.56 
L 750.195 34.56 
L 746.01 34.56 
L 741.825 34.56 
L 737.64 34.56 
L 733.455 34.56 
L 729.27 34.56 
L 725.085 34.56 
L 720.9 34.56 
L 716.715 34.56 
L 712.53 34.56 
L 708.345 34.56 
L 704.16 34.56 
L 699.975 34.56 
L 695.79 34.56 
L 691.605 34.56 
L 687.42 34.56 
L 683.235 34.56 
L 679.05 34.56 
L 674.865 34.56 
L 670.68 34.56 
L 666.495 34.56 
L 662.31 34.56 
L 658.125 34.56 
L 653.94 34.56 
L 649.755 34.56 
L 645.57 34.56 
L 641.385 34.56 
L 637.2 34.56 
L 633.015 34.56 
L 628.83 34.56 
L 624.645 34.56 
L 620.46 34.56 
L 616.275 34.56 
L 612.09 34.56 
L 607.905 34.56 
L 603.72 34.56 
L 599.535 34.56 
L 595.35 34.56 
L 591.165 34.56 
L 586.98 34.56 
L 582.795 34.56 
L 578.61 34.56 
L 574.425 34.56 
L 570.24 34.56 
L 566.055 34.56 
L 561.87 34.56 
L 557.685 34.56 
L 553.5 34.56 
L 549.315 34.56 
L 545.13 34.56 
L 540.945 34.56 
L 536.76 34.56 
L 532.575 34.56 
L 528.39 34.56 
L 524.205 34.56 
L 520.02 34.56 
L 515.835 34.56 
L 511.65 34.56 
L 507.465 34.56 
L 503.28 34.56 
L 499.095 34.56 
L 494.91 34.56 
L 490.725 34.56 
L 486.54 34.56 
L 482.355 34.56 
L 478.17 34.56 
L 473.985 34.56 
L 469.8 34.56 
L 465.615 34.56 
L 461.43 34.56 
L 457.245 34.56 
L 453.06 34.56 
L 448.875 34.56 
L 444.69 34.56 
L 440.505 34.56 
L 436.32 34.56 
L 432.135 34.56 
L 427.95 34.56 
L 423.765 34.56 
L 419.58 34.56 
L 415.395 34.56 
L 411.21 34.56 
L 407.025 34.56 
L 402.84 34.56 
L 398.655 34.56 
L 394.47 34.56 
L 390.285 34.56 
L 386.1 34.56 
L 381.915 34.56 
L 377.73 34.56 
L 373.545 34.56 
L 369.36 34.56 
L 365.175 34.56 
L 360.99 34.56 
L 356.805 34.56 
L 352.62 34.56 
L 348.435 34.56 
L 344.25 34.56 
L 340.065 34.56 
L 335.88 34.56 
L 331.695 34.56 
L 327.51 34.56 
L 323.325 34.56 
L 319.14 34.56 
L 314.955 34.56 
L 310.77 34.56 
L 306.585 34.56 
L 302.4 34.56 
L 298.215 34.56 
L 294.03 34.56 
L 289.845 34.56 
L 285.66 34.56 
L 281.475 34.56 
L 277.29 34.56 
L 273.105 34.56 
L 268.92 34.56 
L 264.735 34.56 
L 260.55 34.56 
L 256.365 34.56 
L 252.18 34.56 
L 247.995 34.56 
L 243.81 34.56 
L 239.625 34.56 
L 235.44 34.56 
L 231.255 34.56 
L 227.07 34.56 
L 222.885 34.56 
L 218.7 34.56 
L 214.515 34.56 
L 210.33 34.56 
L 206.145 34.56 
L 201.96 34.56 
L 197.775 34.56 
L 193.59 34.56 
L 189.405 34.56 
L 185.22 34.56 
L 181.035 34.56 
L 176.85 34.56 
L 172.665 34.56 
L 168.48 34.56 
L 164.295 34.56 
L 160.11 34.56 
L 155.925 34.56 
L 151.74 34.56 
L 147.555 34.56 
L 143.37 34.56 
L 139.185 34.56 
z
" style="fill:#ffd700;fill-opacity:0.1;"/>
   </g>
   <g id="PolyCollection_3">
    <path clip-path="url(#pcc9e30c330)" d="M 804.6 34.56 
L 804.6 252 
L 808.785 252 
L 812.97 252 
L 817.155 252 
L 821.34 252 
L 825.525 252 
L 829.71 252 
L 833.895 252 
L 838.08 252 
L 842.265 252 
L 846.45 252 
L 850.635 252 
L 854.82 252 
L 859.005 252 
L 863.19 252 
L 867.375 252 
L 871.56 252 
L 875.745 252 
L 879.93 252 
L 884.115 252 
L 888.3 252 
L 892.485 252 
L 896.67 252 
L 900.855 252 
L 905.04 252 
L 909.225 252 
L 913.41 252 
L 917.595 252 
L 921.78 252 
L 925.965 252 
L 930.15 252 
L 934.335 252 
L 938.52 252 
L 942.705 252 
L 946.89 252 
L 951.075 252 
L 955.26 252 
L 959.445 252 
L 963.63 252 
L 967.815 252 
L 972 252 
L 972 34.56 
L 972 34.56 
L 967.815 34.56 
L 963.63 34.56 
L 959.445 34.56 
L 955.26 34.56 
L 951.075 34.56 
L 946.89 34.56 
L 942.705 34.56 
L 938.52 34.56 
L 934.335 34.56 
L 930.15 34.56 
L 925.965 34.56 
L 921.78 34.56 
L 917.595 34.56 
L 913.41 34.56 
L 909.225 34.56 
L 905.04 34.56 
L 900.855 34.56 
L 896.67 34.56 
L 892.485 34.56 
L 888.3 34.56 
L 884.115 34.56 
L 879.93 34.56 
L 875.745 34.56 
L 871.56 34.56 
L 867.375 34.56 
L 863.19 34.56 
L 859.005 34.56 
L 854.82 34.56 
L 850.635 34.56 
L 846.45 34.56 
L 842.265 34.56 
L 838.08 34.56 
L 833.895 34.56 
L 829.71 34.56 
L 825.525 34.56 
L 821.34 34.56 
L 817.155 34.56 
L 812.97 34.56 
L 808.785 34.56 
L 804.6 34.56 
z
" style="fill:#ff0000;fill-opacity:0.2;"/>
   </g>
   <g id="matplotlib.axis_1">
    <g id="xtick_1">
     <g id="line2d_1">
      <defs>
       <path d="M 0 0 
L 0 3.5 
" id="m093b7f7033" style="stroke:#000000;stroke-width:0.8;"/>
      </defs>
      <g>
       <use style="stroke:#000000;stroke-width:0.8;" x="135" xlink:href="#m093b7f7033" y="252"/>
      </g>
     </g>
     <g id="text_1">
      <!-- 0 -->
      <defs>
       <path d="M 31.78125 66.40625 
Q 24.171875 66.40625 20.328125 58.90625 
Q 16.5 51.421875 16.5 36.375 
Q 16.5 21.390625 20.328125 13.890625 
Q 24.171875 6.390625 31.78125 6.390625 
Q 39.453125 6.390625 43.28125 13.890625 
Q 47.125 21.390625 47.125 36.375 
Q 47.125 51.421875 43.28125 58.90625 
Q 39.453125 66.40625 31.78125 66.40625 
z
M 31.78125 74.21875 
Q 44.046875 74.21875 50.515625 64.515625 
Q 56.984375 54.828125 56.984375 36.375 
Q 56.984375 17.96875 50.515625 8.265625 
Q 44.046875 -1.421875 31.78125 -1.421875 
Q 19.53125 -1.421875 13.0625 8.265625 
Q 6.59375 17.96875 6.59375 36.375 
Q 6.59375 54.828125 13.0625 64.515625 
Q 19.53125 74.21875 31.78125 74.21875 
z
" id="DejaVuSans-48"/>
      </defs>
      <g transform="translate(128.00125 275.716563)scale(0.22 -0.22)">
       <use xlink:href="#DejaVuSans-48"/>
      </g>
     </g>
    </g>
    <g id="xtick_2">
     <g id="line2d_2">
      <g>
       <use style="stroke:#000000;stroke-width:0.8;" x="302.4" xlink:href="#m093b7f7033" y="252"/>
      </g>
     </g>
     <g id="text_2">
      <!-- 40 -->
      <defs>
       <path d="M 37.796875 64.3125 
L 12.890625 25.390625 
L 37.796875 25.390625 
z
M 35.203125 72.90625 
L 47.609375 72.90625 
L 47.609375 25.390625 
L 58.015625 25.390625 
L 58.015625 17.1875 
L 47.609375 17.1875 
L 47.609375 0 
L 37.796875 0 
L 37.796875 17.1875 
L 4.890625 17.1875 
L 4.890625 26.703125 
z
" id="DejaVuSans-52"/>
      </defs>
      <g transform="translate(288.4025 275.716563)scale(0.22 -0.22)">
       <use xlink:href="#DejaVuSans-52"/>
       <use x="63.623047" xlink:href="#DejaVuSans-48"/>
      </g>
     </g>
    </g>
    <g id="xtick_3">
     <g id="line2d_3">
      <g>
       <use style="stroke:#000000;stroke-width:0.8;" x="469.8" xlink:href="#m093b7f7033" y="252"/>
      </g>
     </g>
     <g id="text_3">
      <!-- 80 -->
      <defs>
       <path d="M 31.78125 34.625 
Q 24.75 34.625 20.71875 30.859375 
Q 16.703125 27.09375 16.703125 20.515625 
Q 16.703125 13.921875 20.71875 10.15625 
Q 24.75 6.390625 31.78125 6.390625 
Q 38.8125 6.390625 42.859375 10.171875 
Q 46.921875 13.96875 46.921875 20.515625 
Q 46.921875 27.09375 42.890625 30.859375 
Q 38.875 34.625 31.78125 34.625 
z
M 21.921875 38.8125 
Q 15.578125 40.375 12.03125 44.71875 
Q 8.5 49.078125 8.5 55.328125 
Q 8.5 64.0625 14.71875 69.140625 
Q 20.953125 74.21875 31.78125 74.21875 
Q 42.671875 74.21875 48.875 69.140625 
Q 55.078125 64.0625 55.078125 55.328125 
Q 55.078125 49.078125 51.53125 44.71875 
Q 48 40.375 41.703125 38.8125 
Q 48.828125 37.15625 52.796875 32.3125 
Q 56.78125 27.484375 56.78125 20.515625 
Q 56.78125 9.90625 50.3125 4.234375 
Q 43.84375 -1.421875 31.78125 -1.421875 
Q 19.734375 -1.421875 13.25 4.234375 
Q 6.78125 9.90625 6.78125 20.515625 
Q 6.78125 27.484375 10.78125 32.3125 
Q 14.796875 37.15625 21.921875 38.8125 
z
M 18.3125 54.390625 
Q 18.3125 48.734375 21.84375 45.5625 
Q 25.390625 42.390625 31.78125 42.390625 
Q 38.140625 42.390625 41.71875 45.5625 
Q 45.3125 48.734375 45.3125 54.390625 
Q 45.3125 60.0625 41.71875 63.234375 
Q 38.140625 66.40625 31.78125 66.40625 
Q 25.390625 66.40625 21.84375 63.234375 
Q 18.3125 60.0625 18.3125 54.390625 
z
" id="DejaVuSans-56"/>
      </defs>
      <g transform="translate(455.8025 275.716563)scale(0.22 -0.22)">
       <use xlink:href="#DejaVuSans-56"/>
       <use x="63.623047" xlink:href="#DejaVuSans-48"/>
      </g>
     </g>
    </g>
    <g id="xtick_4">
     <g id="line2d_4">
      <g>
       <use style="stroke:#000000;stroke-width:0.8;" x="637.2" xlink:href="#m093b7f7033" y="252"/>
      </g>
     </g>
     <g id="text_4">
      <!-- 120 -->
      <defs>
       <path d="M 12.40625 8.296875 
L 28.515625 8.296875 
L 28.515625 63.921875 
L 10.984375 60.40625 
L 10.984375 69.390625 
L 28.421875 72.90625 
L 38.28125 72.90625 
L 38.28125 8.296875 
L 54.390625 8.296875 
L 54.390625 0 
L 12.40625 0 
z
" id="DejaVuSans-49"/>
       <path d="M 19.1875 8.296875 
L 53.609375 8.296875 
L 53.609375 0 
L 7.328125 0 
L 7.328125 8.296875 
Q 12.9375 14.109375 22.625 23.890625 
Q 32.328125 33.6875 34.8125 36.53125 
Q 39.546875 41.84375 41.421875 45.53125 
Q 43.3125 49.21875 43.3125 52.78125 
Q 43.3125 58.59375 39.234375 62.25 
Q 35.15625 65.921875 28.609375 65.921875 
Q 23.96875 65.921875 18.8125 64.3125 
Q 13.671875 62.703125 7.8125 59.421875 
L 7.8125 69.390625 
Q 13.765625 71.78125 18.9375 73 
Q 24.125 74.21875 28.421875 74.21875 
Q 39.75 74.21875 46.484375 68.546875 
Q 53.21875 62.890625 53.21875 53.421875 
Q 53.21875 48.921875 51.53125 44.890625 
Q 49.859375 40.875 45.40625 35.40625 
Q 44.1875 33.984375 37.640625 27.21875 
Q 31.109375 20.453125 19.1875 8.296875 
z
" id="DejaVuSans-50"/>
      </defs>
      <g transform="translate(616.20375 275.716563)scale(0.22 -0.22)">
       <use xlink:href="#DejaVuSans-49"/>
       <use x="63.623047" xlink:href="#DejaVuSans-50"/>
       <use x="127.246094" xlink:href="#DejaVuSans-48"/>
      </g>
     </g>
    </g>
    <g id="xtick_5">
     <g id="line2d_5">
      <g>
       <use style="stroke:#000000;stroke-width:0.8;" x="804.6" xlink:href="#m093b7f7033" y="252"/>
      </g>
     </g>
     <g id="text_5">
      <!-- 160 -->
      <defs>
       <path d="M 33.015625 40.375 
Q 26.375 40.375 22.484375 35.828125 
Q 18.609375 31.296875 18.609375 23.390625 
Q 18.609375 15.53125 22.484375 10.953125 
Q 26.375 6.390625 33.015625 6.390625 
Q 39.65625 6.390625 43.53125 10.953125 
Q 47.40625 15.53125 47.40625 23.390625 
Q 47.40625 31.296875 43.53125 35.828125 
Q 39.65625 40.375 33.015625 40.375 
z
M 52.59375 71.296875 
L 52.59375 62.3125 
Q 48.875 64.0625 45.09375 64.984375 
Q 41.3125 65.921875 37.59375 65.921875 
Q 27.828125 65.921875 22.671875 59.328125 
Q 17.53125 52.734375 16.796875 39.40625 
Q 19.671875 43.65625 24.015625 45.921875 
Q 28.375 48.1875 33.59375 48.1875 
Q 44.578125 48.1875 50.953125 41.515625 
Q 57.328125 34.859375 57.328125 23.390625 
Q 57.328125 12.15625 50.6875 5.359375 
Q 44.046875 -1.421875 33.015625 -1.421875 
Q 20.359375 -1.421875 13.671875 8.265625 
Q 6.984375 17.96875 6.984375 36.375 
Q 6.984375 53.65625 15.1875 63.9375 
Q 23.390625 74.21875 37.203125 74.21875 
Q 40.921875 74.21875 44.703125 73.484375 
Q 48.484375 72.75 52.59375 71.296875 
z
" id="DejaVuSans-54"/>
      </defs>
      <g transform="translate(783.60375 275.716563)scale(0.22 -0.22)">
       <use xlink:href="#DejaVuSans-49"/>
       <use x="63.623047" xlink:href="#DejaVuSans-54"/>
       <use x="127.246094" xlink:href="#DejaVuSans-48"/>
      </g>
     </g>
    </g>
    <g id="xtick_6">
     <g id="line2d_6">
      <g>
       <use style="stroke:#000000;stroke-width:0.8;" x="972" xlink:href="#m093b7f7033" y="252"/>
      </g>
     </g>
     <g id="text_6">
      <!-- 200 -->
      <g transform="translate(951.00375 275.716563)scale(0.22 -0.22)">
       <use xlink:href="#DejaVuSans-50"/>
       <use x="63.623047" xlink:href="#DejaVuSans-48"/>
       <use x="127.246094" xlink:href="#DejaVuSans-48"/>
      </g>
     </g>
    </g>
   </g>
   <g id="matplotlib.axis_2">
    <g id="ytick_1">
     <g id="line2d_7">
      <path clip-path="url(#pcc9e30c330)" d="M 135 249.868235 
L 972 249.868235 
" style="fill:none;stroke:#b0b0b0;stroke-linecap:square;stroke-width:0.8;"/>
     </g>
     <g id="line2d_8">
      <defs>
       <path d="M 0 0 
L -3.5 0 
" id="md385a036d8" style="stroke:#000000;stroke-width:0.8;"/>
      </defs>
      <g>
       <use style="stroke:#000000;stroke-width:0.8;" x="135" xlink:href="#md385a036d8" y="249.868235"/>
      </g>
     </g>
     <g id="text_7">
      <!-- 0.0 -->
      <defs>
       <path d="M 10.6875 12.40625 
L 21 12.40625 
L 21 0 
L 10.6875 0 
z
" id="DejaVuSans-46"/>
      </defs>
      <g transform="translate(93.013125 258.226517)scale(0.22 -0.22)">
       <use xlink:href="#DejaVuSans-48"/>
       <use x="63.623047" xlink:href="#DejaVuSans-46"/>
       <use x="95.410156" xlink:href="#DejaVuSans-48"/>
      </g>
     </g>
    </g>
    <g id="ytick_2">
     <g id="line2d_9">
      <path clip-path="url(#pcc9e30c330)" d="M 135 228.550588 
L 972 228.550588 
" style="fill:none;stroke:#b0b0b0;stroke-linecap:square;stroke-width:0.8;"/>
     </g>
     <g id="line2d_10">
      <g>
       <use style="stroke:#000000;stroke-width:0.8;" x="135" xlink:href="#md385a036d8" y="228.550588"/>
      </g>
     </g>
     <g id="text_8">
      <!-- 0.1 -->
      <g transform="translate(93.013125 236.908869)scale(0.22 -0.22)">
       <use xlink:href="#DejaVuSans-48"/>
       <use x="63.623047" xlink:href="#DejaVuSans-46"/>
       <use x="95.410156" xlink:href="#DejaVuSans-49"/>
      </g>
     </g>
    </g>
    <g id="ytick_3">
     <g id="line2d_11">
      <path clip-path="url(#pcc9e30c330)" d="M 135 207.232941 
L 972 207.232941 
" style="fill:none;stroke:#b0b0b0;stroke-linecap:square;stroke-width:0.8;"/>
     </g>
     <g id="line2d_12">
      <g>
       <use style="stroke:#000000;stroke-width:0.8;" x="135" xlink:href="#md385a036d8" y="207.232941"/>
      </g>
     </g>
     <g id="text_9">
      <!-- 0.2 -->
      <g transform="translate(93.013125 215.591222)scale(0.22 -0.22)">
       <use xlink:href="#DejaVuSans-48"/>
       <use x="63.623047" xlink:href="#DejaVuSans-46"/>
       <use x="95.410156" xlink:href="#DejaVuSans-50"/>
      </g>
     </g>
    </g>
    <g id="ytick_4">
     <g id="line2d_13">
      <path clip-path="url(#pcc9e30c330)" d="M 135 185.915294 
L 972 185.915294 
" style="fill:none;stroke:#b0b0b0;stroke-linecap:square;stroke-width:0.8;"/>
     </g>
     <g id="line2d_14">
      <g>
       <use style="stroke:#000000;stroke-width:0.8;" x="135" xlink:href="#md385a036d8" y="185.915294"/>
      </g>
     </g>
     <g id="text_10">
      <!-- 0.3 -->
      <defs>
       <path d="M 40.578125 39.3125 
Q 47.65625 37.796875 51.625 33 
Q 55.609375 28.21875 55.609375 21.1875 
Q 55.609375 10.40625 48.1875 4.484375 
Q 40.765625 -1.421875 27.09375 -1.421875 
Q 22.515625 -1.421875 17.65625 -0.515625 
Q 12.796875 0.390625 7.625 2.203125 
L 7.625 11.71875 
Q 11.71875 9.328125 16.59375 8.109375 
Q 21.484375 6.890625 26.8125 6.890625 
Q 36.078125 6.890625 40.9375 10.546875 
Q 45.796875 14.203125 45.796875 21.1875 
Q 45.796875 27.640625 41.28125 31.265625 
Q 36.765625 34.90625 28.71875 34.90625 
L 20.21875 34.90625 
L 20.21875 43.015625 
L 29.109375 43.015625 
Q 36.375 43.015625 40.234375 45.921875 
Q 44.09375 48.828125 44.09375 54.296875 
Q 44.09375 59.90625 40.109375 62.90625 
Q 36.140625 65.921875 28.71875 65.921875 
Q 24.65625 65.921875 20.015625 65.03125 
Q 15.375 64.15625 9.8125 62.3125 
L 9.8125 71.09375 
Q 15.4375 72.65625 20.34375 73.4375 
Q 25.25 74.21875 29.59375 74.21875 
Q 40.828125 74.21875 47.359375 69.109375 
Q 53.90625 64.015625 53.90625 55.328125 
Q 53.90625 49.265625 50.4375 45.09375 
Q 46.96875 40.921875 40.578125 39.3125 
z
" id="DejaVuSans-51"/>
      </defs>
      <g transform="translate(93.013125 194.273575)scale(0.22 -0.22)">
       <use xlink:href="#DejaVuSans-48"/>
       <use x="63.623047" xlink:href="#DejaVuSans-46"/>
       <use x="95.410156" xlink:href="#DejaVuSans-51"/>
      </g>
     </g>
    </g>
    <g id="ytick_5">
     <g id="line2d_15">
      <path clip-path="url(#pcc9e30c330)" d="M 135 164.597647 
L 972 164.597647 
" style="fill:none;stroke:#b0b0b0;stroke-linecap:square;stroke-width:0.8;"/>
     </g>
     <g id="line2d_16">
      <g>
       <use style="stroke:#000000;stroke-width:0.8;" x="135" xlink:href="#md385a036d8" y="164.597647"/>
      </g>
     </g>
     <g id="text_11">
      <!-- 0.4 -->
      <g transform="translate(93.013125 172.955928)scale(0.22 -0.22)">
       <use xlink:href="#DejaVuSans-48"/>
       <use x="63.623047" xlink:href="#DejaVuSans-46"/>
       <use x="95.410156" xlink:href="#DejaVuSans-52"/>
      </g>
     </g>
    </g>
    <g id="ytick_6">
     <g id="line2d_17">
      <path clip-path="url(#pcc9e30c330)" d="M 135 143.28 
L 972 143.28 
" style="fill:none;stroke:#b0b0b0;stroke-linecap:square;stroke-width:0.8;"/>
     </g>
     <g id="line2d_18">
      <g>
       <use style="stroke:#000000;stroke-width:0.8;" x="135" xlink:href="#md385a036d8" y="143.28"/>
      </g>
     </g>
     <g id="text_12">
      <!-- 0.5 -->
      <defs>
       <path d="M 10.796875 72.90625 
L 49.515625 72.90625 
L 49.515625 64.59375 
L 19.828125 64.59375 
L 19.828125 46.734375 
Q 21.96875 47.46875 24.109375 47.828125 
Q 26.265625 48.1875 28.421875 48.1875 
Q 40.625 48.1875 47.75 41.5 
Q 54.890625 34.8125 54.890625 23.390625 
Q 54.890625 11.625 47.5625 5.09375 
Q 40.234375 -1.421875 26.90625 -1.421875 
Q 22.3125 -1.421875 17.546875 -0.640625 
Q 12.796875 0.140625 7.71875 1.703125 
L 7.71875 11.625 
Q 12.109375 9.234375 16.796875 8.0625 
Q 21.484375 6.890625 26.703125 6.890625 
Q 35.15625 6.890625 40.078125 11.328125 
Q 45.015625 15.765625 45.015625 23.390625 
Q 45.015625 31 40.078125 35.4375 
Q 35.15625 39.890625 26.703125 39.890625 
Q 22.75 39.890625 18.8125 39.015625 
Q 14.890625 38.140625 10.796875 36.28125 
z
" id="DejaVuSans-53"/>
      </defs>
      <g transform="translate(93.013125 151.638281)scale(0.22 -0.22)">
       <use xlink:href="#DejaVuSans-48"/>
       <use x="63.623047" xlink:href="#DejaVuSans-46"/>
       <use x="95.410156" xlink:href="#DejaVuSans-53"/>
      </g>
     </g>
    </g>
    <g id="ytick_7">
     <g id="line2d_19">
      <path clip-path="url(#pcc9e30c330)" d="M 135 121.962353 
L 972 121.962353 
" style="fill:none;stroke:#b0b0b0;stroke-linecap:square;stroke-width:0.8;"/>
     </g>
     <g id="line2d_20">
      <g>
       <use style="stroke:#000000;stroke-width:0.8;" x="135" xlink:href="#md385a036d8" y="121.962353"/>
      </g>
     </g>
     <g id="text_13">
      <!-- 0.6 -->
      <g transform="translate(93.013125 130.320634)scale(0.22 -0.22)">
       <use xlink:href="#DejaVuSans-48"/>
       <use x="63.623047" xlink:href="#DejaVuSans-46"/>
       <use x="95.410156" xlink:href="#DejaVuSans-54"/>
      </g>
     </g>
    </g>
    <g id="ytick_8">
     <g id="line2d_21">
      <path clip-path="url(#pcc9e30c330)" d="M 135 100.644706 
L 972 100.644706 
" style="fill:none;stroke:#b0b0b0;stroke-linecap:square;stroke-width:0.8;"/>
     </g>
     <g id="line2d_22">
      <g>
       <use style="stroke:#000000;stroke-width:0.8;" x="135" xlink:href="#md385a036d8" y="100.644706"/>
      </g>
     </g>
     <g id="text_14">
      <!-- 0.7 -->
      <defs>
       <path d="M 8.203125 72.90625 
L 55.078125 72.90625 
L 55.078125 68.703125 
L 28.609375 0 
L 18.3125 0 
L 43.21875 64.59375 
L 8.203125 64.59375 
z
" id="DejaVuSans-55"/>
      </defs>
      <g transform="translate(93.013125 109.002987)scale(0.22 -0.22)">
       <use xlink:href="#DejaVuSans-48"/>
       <use x="63.623047" xlink:href="#DejaVuSans-46"/>
       <use x="95.410156" xlink:href="#DejaVuSans-55"/>
      </g>
     </g>
    </g>
    <g id="ytick_9">
     <g id="line2d_23">
      <path clip-path="url(#pcc9e30c330)" d="M 135 79.327059 
L 972 79.327059 
" style="fill:none;stroke:#b0b0b0;stroke-linecap:square;stroke-width:0.8;"/>
     </g>
     <g id="line2d_24">
      <g>
       <use style="stroke:#000000;stroke-width:0.8;" x="135" xlink:href="#md385a036d8" y="79.327059"/>
      </g>
     </g>
     <g id="text_15">
      <!-- 0.8 -->
      <g transform="translate(93.013125 87.68534)scale(0.22 -0.22)">
       <use xlink:href="#DejaVuSans-48"/>
       <use x="63.623047" xlink:href="#DejaVuSans-46"/>
       <use x="95.410156" xlink:href="#DejaVuSans-56"/>
      </g>
     </g>
    </g>
    <g id="ytick_10">
     <g id="line2d_25">
      <path clip-path="url(#pcc9e30c330)" d="M 135 58.009412 
L 972 58.009412 
" style="fill:none;stroke:#b0b0b0;stroke-linecap:square;stroke-width:0.8;"/>
     </g>
     <g id="line2d_26">
      <g>
       <use style="stroke:#000000;stroke-width:0.8;" x="135" xlink:href="#md385a036d8" y="58.009412"/>
      </g>
     </g>
     <g id="text_16">
      <!-- 0.9 -->
      <defs>
       <path d="M 10.984375 1.515625 
L 10.984375 10.5 
Q 14.703125 8.734375 18.5 7.8125 
Q 22.3125 6.890625 25.984375 6.890625 
Q 35.75 6.890625 40.890625 13.453125 
Q 46.046875 20.015625 46.78125 33.40625 
Q 43.953125 29.203125 39.59375 26.953125 
Q 35.25 24.703125 29.984375 24.703125 
Q 19.046875 24.703125 12.671875 31.3125 
Q 6.296875 37.9375 6.296875 49.421875 
Q 6.296875 60.640625 12.9375 67.421875 
Q 19.578125 74.21875 30.609375 74.21875 
Q 43.265625 74.21875 49.921875 64.515625 
Q 56.59375 54.828125 56.59375 36.375 
Q 56.59375 19.140625 48.40625 8.859375 
Q 40.234375 -1.421875 26.421875 -1.421875 
Q 22.703125 -1.421875 18.890625 -0.6875 
Q 15.09375 0.046875 10.984375 1.515625 
z
M 30.609375 32.421875 
Q 37.25 32.421875 41.125 36.953125 
Q 45.015625 41.5 45.015625 49.421875 
Q 45.015625 57.28125 41.125 61.84375 
Q 37.25 66.40625 30.609375 66.40625 
Q 23.96875 66.40625 20.09375 61.84375 
Q 16.21875 57.28125 16.21875 49.421875 
Q 16.21875 41.5 20.09375 36.953125 
Q 23.96875 32.421875 30.609375 32.421875 
z
" id="DejaVuSans-57"/>
      </defs>
      <g transform="translate(93.013125 66.367693)scale(0.22 -0.22)">
       <use xlink:href="#DejaVuSans-48"/>
       <use x="63.623047" xlink:href="#DejaVuSans-46"/>
       <use x="95.410156" xlink:href="#DejaVuSans-57"/>
      </g>
     </g>
    </g>
    <g id="ytick_11">
     <g id="line2d_27">
      <path clip-path="url(#pcc9e30c330)" d="M 135 36.691765 
L 972 36.691765 
" style="fill:none;stroke:#b0b0b0;stroke-linecap:square;stroke-width:0.8;"/>
     </g>
     <g id="line2d_28">
      <g>
       <use style="stroke:#000000;stroke-width:0.8;" x="135" xlink:href="#md385a036d8" y="36.691765"/>
      </g>
     </g>
     <g id="text_17">
      <!-- 1.0 -->
      <g transform="translate(93.013125 45.050046)scale(0.22 -0.22)">
       <use xlink:href="#DejaVuSans-49"/>
       <use x="63.623047" xlink:href="#DejaVuSans-46"/>
       <use x="95.410156" xlink:href="#DejaVuSans-48"/>
      </g>
     </g>
    </g>
   </g>
   <g id="line2d_29">
    <path clip-path="url(#pcc9e30c330)" d="M 139.185 170.913987 
L 143.37 120.439664 
L 147.555 145.648627 
L 151.74 125.838289 
L 155.925 135.384575 
L 160.11 126.88181 
L 164.295 127.405156 
L 168.48 141.190035 
L 172.665 132.830173 
L 176.85 145.217968 
L 181.035 139.016471 
L 185.22 121.227262 
L 189.405 135.666555 
L 193.59 137.670093 
L 197.775 116.632941 
L 201.96 152.629845 
L 206.145 98.868235 
L 210.33 146.832941 
L 214.515 114.583167 
L 218.7 101.046926 
L 222.885 124.246387 
L 227.07 135.666555 
L 231.255 94.08543 
L 235.44 126.450279 
L 239.625 114.210481 
L 243.81 116.181296 
L 247.995 124.246387 
L 252.18 112.826218 
L 256.365 139.180452 
L 260.55 139.604544 
L 264.735 125.515294 
L 268.92 125.180111 
L 273.105 98.184977 
L 277.29 135.384575 
L 281.475 128.053109 
L 285.66 130.981357 
L 289.845 110.650948 
L 294.03 148.699741 
L 298.215 129.202309 
L 302.4 113.435294 
L 306.585 107.750588 
L 310.77 106.525436 
L 314.955 138.037956 
L 319.14 130.633938 
L 323.325 117.698824 
L 327.51 111.930519 
L 331.695 107.750588 
L 335.88 126.225882 
L 340.065 117.135716 
L 344.25 134.543259 
L 348.435 102.582674 
L 352.62 118.409412 
L 356.805 113.113518 
L 360.99 122.782262 
L 365.175 99.855163 
L 369.36 128.053109 
L 373.545 126.88181 
L 377.73 131.436863 
L 381.915 110.334545 
L 386.1 114.856471 
L 390.285 105.069123 
L 394.47 133.59016 
L 398.655 115.001489 
L 402.84 127.020778 
L 407.025 111.490526 
L 411.21 106.525436 
L 415.395 116.632941 
L 419.58 133.224506 
L 423.765 105.212773 
L 427.95 118.682715 
L 432.135 125.180111 
L 436.32 112.826218 
L 440.505 115.230464 
L 444.69 113.575082 
L 448.875 118.682715 
L 453.06 105.212773 
L 457.245 119.593725 
L 461.43 126.88181 
L 465.615 100.983081 
L 469.8 123.541438 
L 473.985 123.407617 
L 478.17 127.48915 
L 482.355 106.45861 
L 486.54 135.080905 
L 490.725 115.646013 
L 494.91 113.876349 
L 499.095 125.838289 
L 503.28 101.728654 
L 507.465 98.184977 
L 511.65 107.750588 
L 515.835 101.046926 
L 520.02 107.750588 
L 524.205 121.962353 
L 528.39 143.28 
L 532.575 95.907451 
L 536.76 141.268901 
L 540.945 108.954975 
L 549.315 118.682715 
L 553.5 126.450279 
L 557.685 97.091765 
L 561.87 145.369965 
L 566.055 129.956471 
L 570.24 118.682715 
L 574.425 108.954975 
L 578.61 134.247099 
L 582.795 126.225882 
L 586.98 132.403649 
L 591.165 83.202995 
L 595.35 118.970402 
L 599.535 136.75419 
L 603.72 106.585689 
L 607.905 103.570657 
L 612.09 120.290381 
L 616.275 91.959739 
L 620.46 101.046926 
L 624.645 114.210481 
L 628.83 111.698301 
L 633.015 88.012026 
L 637.2 115.646013 
L 641.385 130.981357 
L 645.57 119.593725 
L 649.755 129.714225 
L 653.94 130.981357 
L 658.125 134.011458 
L 662.31 99.596297 
L 666.495 111.490526 
L 670.68 115.646013 
L 674.865 109.171765 
L 679.05 121.157913 
L 683.235 105.212773 
L 687.42 109.091321 
L 691.605 96.381176 
L 695.79 141.190035 
L 699.975 113.113518 
L 704.16 128.053109 
L 708.345 120.290381 
L 712.53 106.300408 
L 716.715 107.750588 
L 720.9 110.080386 
L 725.085 127.48915 
L 729.27 83.590588 
L 733.455 104.908235 
L 737.64 109.019496 
L 741.825 114.683156 
L 746.01 135.929087 
L 750.195 111.698301 
L 754.38 110.48362 
L 758.565 109.019496 
L 762.75 128.053109 
L 766.935 102.284525 
L 771.12 125.180111 
L 775.305 102.284525 
L 779.49 110.48362 
L 783.675 103.802876 
L 787.86 118.682715 
L 792.045 111.930519 
L 796.23 123.702569 
L 800.415 121.962353 
L 804.6 107.750588 
L 808.785 116.632941 
L 812.97 140.050053 
L 817.155 109.620557 
L 821.34 121.962353 
L 825.525 89.985882 
L 829.71 113.672157 
L 833.895 121.962353 
L 838.08 80.581038 
L 842.265 133.128739 
L 846.45 107.750588 
L 850.635 107.750588 
L 854.82 128.876184 
L 859.005 143.28 
L 863.19 123.114658 
L 867.375 135.080905 
L 871.56 111.591606 
L 875.745 115.871597 
L 879.93 132.965009 
L 884.115 119.593725 
L 888.3 101.82902 
L 892.485 114.210481 
L 896.67 98.400743 
L 900.855 87.180929 
L 905.04 82.783975 
L 909.225 119.593725 
L 913.41 114.210481 
L 917.595 104.284304 
L 921.78 111.591606 
L 925.965 114.856471 
L 930.15 84.064314 
L 934.335 95.315294 
L 938.52 99.390727 
L 942.705 99.390727 
L 946.89 114.210481 
L 951.075 130.740208 
L 955.26 95.907451 
L 959.445 125.082009 
L 963.63 87.180929 
L 967.815 109.78084 
L 972 111.930519 
L 972 111.930519 
" style="fill:none;stroke:#800080;stroke-linecap:square;stroke-width:3;"/>
   </g>
   <g id="line2d_30">
    <path clip-path="url(#pcc9e30c330)" d="M 135 143.28 
L 972 143.28 
" style="fill:none;stroke:#000000;stroke-dasharray:5.55,2.4;stroke-dashoffset:0;stroke-width:1.5;"/>
   </g>
   <g id="patch_3">
    <path d="M 135 252 
L 135 34.56 
" style="fill:none;stroke:#000000;stroke-linecap:square;stroke-linejoin:miter;stroke-width:0.8;"/>
   </g>
   <g id="patch_4">
    <path d="M 972 252 
L 972 34.56 
" style="fill:none;stroke:#000000;stroke-linecap:square;stroke-linejoin:miter;stroke-width:0.8;"/>
   </g>
   <g id="patch_5">
    <path d="M 135 252 
L 972 252 
" style="fill:none;stroke:#000000;stroke-linecap:square;stroke-linejoin:miter;stroke-width:0.8;"/>
   </g>
   <g id="patch_6">
    <path d="M 135 34.56 
L 972 34.56 
" style="fill:none;stroke:#000000;stroke-linecap:square;stroke-linejoin:miter;stroke-width:0.8;"/>
   </g>
   <g id="text_18">
    <!-- group_csw1000block01.04.25.19-avgwi_story-N_24(56) -->
    <defs>
     <path d="M 45.40625 27.984375 
Q 45.40625 37.75 41.375 43.109375 
Q 37.359375 48.484375 30.078125 48.484375 
Q 22.859375 48.484375 18.828125 43.109375 
Q 14.796875 37.75 14.796875 27.984375 
Q 14.796875 18.265625 18.828125 12.890625 
Q 22.859375 7.515625 30.078125 7.515625 
Q 37.359375 7.515625 41.375 12.890625 
Q 45.40625 18.265625 45.40625 27.984375 
z
M 54.390625 6.78125 
Q 54.390625 -7.171875 48.1875 -13.984375 
Q 42 -20.796875 29.203125 -20.796875 
Q 24.46875 -20.796875 20.265625 -20.09375 
Q 16.0625 -19.390625 12.109375 -17.921875 
L 12.109375 -9.1875 
Q 16.0625 -11.328125 19.921875 -12.34375 
Q 23.78125 -13.375 27.78125 -13.375 
Q 36.625 -13.375 41.015625 -8.765625 
Q 45.40625 -4.15625 45.40625 5.171875 
L 45.40625 9.625 
Q 42.625 4.78125 38.28125 2.390625 
Q 33.9375 0 27.875 0 
Q 17.828125 0 11.671875 7.65625 
Q 5.515625 15.328125 5.515625 27.984375 
Q 5.515625 40.671875 11.671875 48.328125 
Q 17.828125 56 27.875 56 
Q 33.9375 56 38.28125 53.609375 
Q 42.625 51.21875 45.40625 46.390625 
L 45.40625 54.6875 
L 54.390625 54.6875 
z
" id="DejaVuSans-103"/>
     <path d="M 41.109375 46.296875 
Q 39.59375 47.171875 37.8125 47.578125 
Q 36.03125 48 33.890625 48 
Q 26.265625 48 22.1875 43.046875 
Q 18.109375 38.09375 18.109375 28.8125 
L 18.109375 0 
L 9.078125 0 
L 9.078125 54.6875 
L 18.109375 54.6875 
L 18.109375 46.1875 
Q 20.953125 51.171875 25.484375 53.578125 
Q 30.03125 56 36.53125 56 
Q 37.453125 56 38.578125 55.875 
Q 39.703125 55.765625 41.0625 55.515625 
z
" id="DejaVuSans-114"/>
     <path d="M 30.609375 48.390625 
Q 23.390625 48.390625 19.1875 42.75 
Q 14.984375 37.109375 14.984375 27.296875 
Q 14.984375 17.484375 19.15625 11.84375 
Q 23.34375 6.203125 30.609375 6.203125 
Q 37.796875 6.203125 41.984375 11.859375 
Q 46.1875 17.53125 46.1875 27.296875 
Q 46.1875 37.015625 41.984375 42.703125 
Q 37.796875 48.390625 30.609375 48.390625 
z
M 30.609375 56 
Q 42.328125 56 49.015625 48.375 
Q 55.71875 40.765625 55.71875 27.296875 
Q 55.71875 13.875 49.015625 6.21875 
Q 42.328125 -1.421875 30.609375 -1.421875 
Q 18.84375 -1.421875 12.171875 6.21875 
Q 5.515625 13.875 5.515625 27.296875 
Q 5.515625 40.765625 12.171875 48.375 
Q 18.84375 56 30.609375 56 
z
" id="DejaVuSans-111"/>
     <path d="M 8.5 21.578125 
L 8.5 54.6875 
L 17.484375 54.6875 
L 17.484375 21.921875 
Q 17.484375 14.15625 20.5 10.265625 
Q 23.53125 6.390625 29.59375 6.390625 
Q 36.859375 6.390625 41.078125 11.03125 
Q 45.3125 15.671875 45.3125 23.6875 
L 45.3125 54.6875 
L 54.296875 54.6875 
L 54.296875 0 
L 45.3125 0 
L 45.3125 8.40625 
Q 42.046875 3.421875 37.71875 1 
Q 33.40625 -1.421875 27.6875 -1.421875 
Q 18.265625 -1.421875 13.375 4.4375 
Q 8.5 10.296875 8.5 21.578125 
z
M 31.109375 56 
z
" id="DejaVuSans-117"/>
     <path d="M 18.109375 8.203125 
L 18.109375 -20.796875 
L 9.078125 -20.796875 
L 9.078125 54.6875 
L 18.109375 54.6875 
L 18.109375 46.390625 
Q 20.953125 51.265625 25.265625 53.625 
Q 29.59375 56 35.59375 56 
Q 45.5625 56 51.78125 48.09375 
Q 58.015625 40.1875 58.015625 27.296875 
Q 58.015625 14.40625 51.78125 6.484375 
Q 45.5625 -1.421875 35.59375 -1.421875 
Q 29.59375 -1.421875 25.265625 0.953125 
Q 20.953125 3.328125 18.109375 8.203125 
z
M 48.6875 27.296875 
Q 48.6875 37.203125 44.609375 42.84375 
Q 40.53125 48.484375 33.40625 48.484375 
Q 26.265625 48.484375 22.1875 42.84375 
Q 18.109375 37.203125 18.109375 27.296875 
Q 18.109375 17.390625 22.1875 11.75 
Q 26.265625 6.109375 33.40625 6.109375 
Q 40.53125 6.109375 44.609375 11.75 
Q 48.6875 17.390625 48.6875 27.296875 
z
" id="DejaVuSans-112"/>
     <path d="M 50.984375 -16.609375 
L 50.984375 -23.578125 
L -0.984375 -23.578125 
L -0.984375 -16.609375 
z
" id="DejaVuSans-95"/>
     <path d="M 48.78125 52.59375 
L 48.78125 44.1875 
Q 44.96875 46.296875 41.140625 47.34375 
Q 37.3125 48.390625 33.40625 48.390625 
Q 24.65625 48.390625 19.8125 42.84375 
Q 14.984375 37.3125 14.984375 27.296875 
Q 14.984375 17.28125 19.8125 11.734375 
Q 24.65625 6.203125 33.40625 6.203125 
Q 37.3125 6.203125 41.140625 7.25 
Q 44.96875 8.296875 48.78125 10.40625 
L 48.78125 2.09375 
Q 45.015625 0.34375 40.984375 -0.53125 
Q 36.96875 -1.421875 32.421875 -1.421875 
Q 20.0625 -1.421875 12.78125 6.34375 
Q 5.515625 14.109375 5.515625 27.296875 
Q 5.515625 40.671875 12.859375 48.328125 
Q 20.21875 56 33.015625 56 
Q 37.15625 56 41.109375 55.140625 
Q 45.0625 54.296875 48.78125 52.59375 
z
" id="DejaVuSans-99"/>
     <path d="M 44.28125 53.078125 
L 44.28125 44.578125 
Q 40.484375 46.53125 36.375 47.5 
Q 32.28125 48.484375 27.875 48.484375 
Q 21.1875 48.484375 17.84375 46.4375 
Q 14.5 44.390625 14.5 40.28125 
Q 14.5 37.15625 16.890625 35.375 
Q 19.28125 33.59375 26.515625 31.984375 
L 29.59375 31.296875 
Q 39.15625 29.25 43.1875 25.515625 
Q 47.21875 21.78125 47.21875 15.09375 
Q 47.21875 7.46875 41.1875 3.015625 
Q 35.15625 -1.421875 24.609375 -1.421875 
Q 20.21875 -1.421875 15.453125 -0.5625 
Q 10.6875 0.296875 5.421875 2 
L 5.421875 11.28125 
Q 10.40625 8.6875 15.234375 7.390625 
Q 20.0625 6.109375 24.8125 6.109375 
Q 31.15625 6.109375 34.5625 8.28125 
Q 37.984375 10.453125 37.984375 14.40625 
Q 37.984375 18.0625 35.515625 20.015625 
Q 33.0625 21.96875 24.703125 23.78125 
L 21.578125 24.515625 
Q 13.234375 26.265625 9.515625 29.90625 
Q 5.8125 33.546875 5.8125 39.890625 
Q 5.8125 47.609375 11.28125 51.796875 
Q 16.75 56 26.8125 56 
Q 31.78125 56 36.171875 55.265625 
Q 40.578125 54.546875 44.28125 53.078125 
z
" id="DejaVuSans-115"/>
     <path d="M 4.203125 54.6875 
L 13.1875 54.6875 
L 24.421875 12.015625 
L 35.59375 54.6875 
L 46.1875 54.6875 
L 57.421875 12.015625 
L 68.609375 54.6875 
L 77.59375 54.6875 
L 63.28125 0 
L 52.6875 0 
L 40.921875 44.828125 
L 29.109375 0 
L 18.5 0 
z
" id="DejaVuSans-119"/>
     <path d="M 48.6875 27.296875 
Q 48.6875 37.203125 44.609375 42.84375 
Q 40.53125 48.484375 33.40625 48.484375 
Q 26.265625 48.484375 22.1875 42.84375 
Q 18.109375 37.203125 18.109375 27.296875 
Q 18.109375 17.390625 22.1875 11.75 
Q 26.265625 6.109375 33.40625 6.109375 
Q 40.53125 6.109375 44.609375 11.75 
Q 48.6875 17.390625 48.6875 27.296875 
z
M 18.109375 46.390625 
Q 20.953125 51.265625 25.265625 53.625 
Q 29.59375 56 35.59375 56 
Q 45.5625 56 51.78125 48.09375 
Q 58.015625 40.1875 58.015625 27.296875 
Q 58.015625 14.40625 51.78125 6.484375 
Q 45.5625 -1.421875 35.59375 -1.421875 
Q 29.59375 -1.421875 25.265625 0.953125 
Q 20.953125 3.328125 18.109375 8.203125 
L 18.109375 0 
L 9.078125 0 
L 9.078125 75.984375 
L 18.109375 75.984375 
z
" id="DejaVuSans-98"/>
     <path d="M 9.421875 75.984375 
L 18.40625 75.984375 
L 18.40625 0 
L 9.421875 0 
z
" id="DejaVuSans-108"/>
     <path d="M 9.078125 75.984375 
L 18.109375 75.984375 
L 18.109375 31.109375 
L 44.921875 54.6875 
L 56.390625 54.6875 
L 27.390625 29.109375 
L 57.625 0 
L 45.90625 0 
L 18.109375 26.703125 
L 18.109375 0 
L 9.078125 0 
z
" id="DejaVuSans-107"/>
     <path d="M 4.890625 31.390625 
L 31.203125 31.390625 
L 31.203125 23.390625 
L 4.890625 23.390625 
z
" id="DejaVuSans-45"/>
     <path d="M 34.28125 27.484375 
Q 23.390625 27.484375 19.1875 25 
Q 14.984375 22.515625 14.984375 16.5 
Q 14.984375 11.71875 18.140625 8.90625 
Q 21.296875 6.109375 26.703125 6.109375 
Q 34.1875 6.109375 38.703125 11.40625 
Q 43.21875 16.703125 43.21875 25.484375 
L 43.21875 27.484375 
z
M 52.203125 31.203125 
L 52.203125 0 
L 43.21875 0 
L 43.21875 8.296875 
Q 40.140625 3.328125 35.546875 0.953125 
Q 30.953125 -1.421875 24.3125 -1.421875 
Q 15.921875 -1.421875 10.953125 3.296875 
Q 6 8.015625 6 15.921875 
Q 6 25.140625 12.171875 29.828125 
Q 18.359375 34.515625 30.609375 34.515625 
L 43.21875 34.515625 
L 43.21875 35.40625 
Q 43.21875 41.609375 39.140625 45 
Q 35.0625 48.390625 27.6875 48.390625 
Q 23 48.390625 18.546875 47.265625 
Q 14.109375 46.140625 10.015625 43.890625 
L 10.015625 52.203125 
Q 14.9375 54.109375 19.578125 55.046875 
Q 24.21875 56 28.609375 56 
Q 40.484375 56 46.34375 49.84375 
Q 52.203125 43.703125 52.203125 31.203125 
z
" id="DejaVuSans-97"/>
     <path d="M 2.984375 54.6875 
L 12.5 54.6875 
L 29.59375 8.796875 
L 46.6875 54.6875 
L 56.203125 54.6875 
L 35.6875 0 
L 23.484375 0 
z
" id="DejaVuSans-118"/>
     <path d="M 9.421875 54.6875 
L 18.40625 54.6875 
L 18.40625 0 
L 9.421875 0 
z
M 9.421875 75.984375 
L 18.40625 75.984375 
L 18.40625 64.59375 
L 9.421875 64.59375 
z
" id="DejaVuSans-105"/>
     <path d="M 18.3125 70.21875 
L 18.3125 54.6875 
L 36.8125 54.6875 
L 36.8125 47.703125 
L 18.3125 47.703125 
L 18.3125 18.015625 
Q 18.3125 11.328125 20.140625 9.421875 
Q 21.96875 7.515625 27.59375 7.515625 
L 36.8125 7.515625 
L 36.8125 0 
L 27.59375 0 
Q 17.1875 0 13.234375 3.875 
Q 9.28125 7.765625 9.28125 18.015625 
L 9.28125 47.703125 
L 2.6875 47.703125 
L 2.6875 54.6875 
L 9.28125 54.6875 
L 9.28125 70.21875 
z
" id="DejaVuSans-116"/>
     <path d="M 32.171875 -5.078125 
Q 28.375 -14.84375 24.75 -17.8125 
Q 21.140625 -20.796875 15.09375 -20.796875 
L 7.90625 -20.796875 
L 7.90625 -13.28125 
L 13.1875 -13.28125 
Q 16.890625 -13.28125 18.9375 -11.515625 
Q 21 -9.765625 23.484375 -3.21875 
L 25.09375 0.875 
L 2.984375 54.6875 
L 12.5 54.6875 
L 29.59375 11.921875 
L 46.6875 54.6875 
L 56.203125 54.6875 
z
" id="DejaVuSans-121"/>
     <path d="M 9.8125 72.90625 
L 23.09375 72.90625 
L 55.421875 11.921875 
L 55.421875 72.90625 
L 64.984375 72.90625 
L 64.984375 0 
L 51.703125 0 
L 19.390625 60.984375 
L 19.390625 0 
L 9.8125 0 
z
" id="DejaVuSans-78"/>
     <path d="M 31 75.875 
Q 24.46875 64.65625 21.28125 53.65625 
Q 18.109375 42.671875 18.109375 31.390625 
Q 18.109375 20.125 21.3125 9.0625 
Q 24.515625 -2 31 -13.1875 
L 23.1875 -13.1875 
Q 15.875 -1.703125 12.234375 9.375 
Q 8.59375 20.453125 8.59375 31.390625 
Q 8.59375 42.28125 12.203125 53.3125 
Q 15.828125 64.359375 23.1875 75.875 
z
" id="DejaVuSans-40"/>
     <path d="M 8.015625 75.875 
L 15.828125 75.875 
Q 23.140625 64.359375 26.78125 53.3125 
Q 30.421875 42.28125 30.421875 31.390625 
Q 30.421875 20.453125 26.78125 9.375 
Q 23.140625 -1.703125 15.828125 -13.1875 
L 8.015625 -13.1875 
Q 14.5 -2 17.703125 9.0625 
Q 20.90625 20.125 20.90625 31.390625 
Q 20.90625 42.671875 17.703125 53.65625 
Q 14.5 64.65625 8.015625 75.875 
z
" id="DejaVuSans-41"/>
    </defs>
    <g transform="translate(186.35025 17.688)scale(0.264 -0.264)">
     <use xlink:href="#DejaVuSans-103"/>
     <use x="63.476562" xlink:href="#DejaVuSans-114"/>
     <use x="104.558594" xlink:href="#DejaVuSans-111"/>
     <use x="165.740234" xlink:href="#DejaVuSans-117"/>
     <use x="229.119141" xlink:href="#DejaVuSans-112"/>
     <use x="292.595703" xlink:href="#DejaVuSans-95"/>
     <use x="342.595703" xlink:href="#DejaVuSans-99"/>
     <use x="397.576172" xlink:href="#DejaVuSans-115"/>
     <use x="449.675781" xlink:href="#DejaVuSans-119"/>
     <use x="531.462891" xlink:href="#DejaVuSans-49"/>
     <use x="595.085938" xlink:href="#DejaVuSans-48"/>
     <use x="658.708984" xlink:href="#DejaVuSans-48"/>
     <use x="722.332031" xlink:href="#DejaVuSans-48"/>
     <use x="785.955078" xlink:href="#DejaVuSans-98"/>
     <use x="849.431641" xlink:href="#DejaVuSans-108"/>
     <use x="877.214844" xlink:href="#DejaVuSans-111"/>
     <use x="938.396484" xlink:href="#DejaVuSans-99"/>
     <use x="993.376953" xlink:href="#DejaVuSans-107"/>
     <use x="1051.287109" xlink:href="#DejaVuSans-48"/>
     <use x="1114.910156" xlink:href="#DejaVuSans-49"/>
     <use x="1178.533203" xlink:href="#DejaVuSans-46"/>
     <use x="1210.320312" xlink:href="#DejaVuSans-48"/>
     <use x="1273.943359" xlink:href="#DejaVuSans-52"/>
     <use x="1337.566406" xlink:href="#DejaVuSans-46"/>
     <use x="1369.353516" xlink:href="#DejaVuSans-50"/>
     <use x="1432.976562" xlink:href="#DejaVuSans-53"/>
     <use x="1496.599609" xlink:href="#DejaVuSans-46"/>
     <use x="1528.386719" xlink:href="#DejaVuSans-49"/>
     <use x="1592.009766" xlink:href="#DejaVuSans-57"/>
     <use x="1655.632812" xlink:href="#DejaVuSans-45"/>
     <use x="1691.716797" xlink:href="#DejaVuSans-97"/>
     <use x="1752.996094" xlink:href="#DejaVuSans-118"/>
     <use x="1812.175781" xlink:href="#DejaVuSans-103"/>
     <use x="1875.652344" xlink:href="#DejaVuSans-119"/>
     <use x="1957.439453" xlink:href="#DejaVuSans-105"/>
     <use x="1985.222656" xlink:href="#DejaVuSans-95"/>
     <use x="2035.222656" xlink:href="#DejaVuSans-115"/>
     <use x="2087.322266" xlink:href="#DejaVuSans-116"/>
     <use x="2126.53125" xlink:href="#DejaVuSans-111"/>
     <use x="2187.712891" xlink:href="#DejaVuSans-114"/>
     <use x="2228.826172" xlink:href="#DejaVuSans-121"/>
     <use x="2287.990234" xlink:href="#DejaVuSans-45"/>
     <use x="2324.074219" xlink:href="#DejaVuSans-78"/>
     <use x="2398.878906" xlink:href="#DejaVuSans-95"/>
     <use x="2448.878906" xlink:href="#DejaVuSans-50"/>
     <use x="2512.501953" xlink:href="#DejaVuSans-52"/>
     <use x="2576.125" xlink:href="#DejaVuSans-40"/>
     <use x="2615.138672" xlink:href="#DejaVuSans-53"/>
     <use x="2678.761719" xlink:href="#DejaVuSans-54"/>
     <use x="2742.384766" xlink:href="#DejaVuSans-41"/>
    </g>
   </g>
  </g>
 </g>
 <defs>
  <clipPath id="pcc9e30c330">
   <rect height="217.44" width="837" x="135" y="34.56"/>
  </clipPath>
 </defs>
</svg>
